<svg width="72" height="62" viewBox="0 0 72 62" fill="none" xmlns="http://www.w3.org/2000/svg">
<path fill-rule="evenodd" clip-rule="evenodd" d="M9 8.85714C6.61305 8.85714 4.32387 9.7903 2.63604 11.4513C0.948211 13.1124 0 15.3652 0 17.7143V53.1429C0 55.4919 0.948211 57.7448 2.63604 59.4058C4.32387 61.0668 6.61305 62 9 62H63C65.3869 62 67.6761 61.0668 69.364 59.4058C71.0518 57.7448 72 55.4919 72 53.1429V17.7143C72 15.3652 71.0518 13.1124 69.364 11.4513C67.6761 9.7903 65.3869 8.85714 63 8.85714H55.863C54.6696 8.85689 53.5252 8.39015 52.6815 7.55957L47.637 2.59514C45.9496 0.933991 43.6608 0.000501646 41.274 0H30.726C28.3392 0.000501646 26.0504 0.933991 24.363 2.59514L19.3185 7.55957C18.4748 8.39015 17.3304 8.85689 16.137 8.85714H9ZM36 48.7143C37.7728 48.7143 39.5283 48.3706 41.1662 47.703C42.8041 47.0353 44.2924 46.0567 45.5459 44.823C46.7995 43.5893 47.7939 42.1247 48.4724 40.5128C49.1508 38.9009 49.5 37.1733 49.5 35.4286C49.5 33.6839 49.1508 31.9562 48.4724 30.3443C47.7939 28.7325 46.7995 27.2678 45.5459 26.0341C44.2924 24.8005 42.8041 23.8218 41.1662 23.1542C39.5283 22.4865 37.7728 22.1429 36 22.1429C32.4196 22.1429 28.9858 23.5426 26.4541 26.0341C23.9223 28.5257 22.5 31.905 22.5 35.4286C22.5 38.9522 23.9223 42.3314 26.4541 44.823C28.9858 47.3145 32.4196 48.7143 36 48.7143Z" fill="#591B4C"/>
</svg>
