<svg width="24" height="24" viewBox="0 0 24 24" fill="none" xmlns="http://www.w3.org/2000/svg">
<path d="M17.4379 6.13813C17.6294 6.52877 18.0265 6.77636 18.4615 6.77636H22.1538C22.5561 6.77636 22.86 7.1005 22.86 7.45455V20.1818C22.86 20.5359 22.5561 20.86 22.1538 20.86H1.84615C1.4439 20.86 1.14 20.5359 1.14 20.1818V7.45455C1.14 7.1005 1.4439 6.77636 1.84615 6.77636H5.53846C5.96208 6.77636 6.35076 6.54147 6.54773 6.16643L7.93235 3.53007C7.94527 3.50545 7.9573 3.48038 7.96839 3.45488C8.03178 3.30923 8.21248 3.14 8.58462 3.14H15.5077C15.8798 3.14 16.0605 3.30923 16.1239 3.45488C16.1308 3.47067 16.138 3.48631 16.1456 3.50177L17.4379 6.13813Z" stroke="#591B4C" stroke-width="2.28" stroke-miterlimit="10" stroke-linejoin="round"/>
<path d="M12 17C14.2091 17 16 15.2091 16 13C16 10.7909 14.2091 9 12 9C9.79086 9 8 10.7909 8 13C8 15.2091 9.79086 17 12 17Z" stroke="#591B4C" stroke-width="2.28" stroke-miterlimit="10" stroke-linejoin="round"/>
<path d="M4 9.25C3.58579 9.25 3.25 9.58579 3.25 10C3.25 10.4142 3.58579 10.75 4 10.75V9.25ZM6 10.75C6.41421 10.75 6.75 10.4142 6.75 10C6.75 9.58579 6.41421 9.25 6 9.25V10.75ZM4 10.75H6V9.25H4V10.75Z" fill="#591B4C"/>
</svg>
