<svg width="248" height="256" viewBox="0 0 248 256" fill="none" xmlns="http://www.w3.org/2000/svg">
<g clip-path="url(#clip0_134_1894)">
<path d="M87.9824 256H114.101C115.54 248.9 115.676 193.865 115.54 182.025C115.46 174.163 115.273 168.243 115.273 168.243L106.764 164.431C106.764 164.431 106.598 169.214 105.39 179.651C104.671 185.607 103.671 232.205 102.131 242.009C101.901 243.513 101.65 245.066 101.412 246.663C91.1187 249.9 87.9824 256 87.9824 256Z" fill="#591B4C"/>
<path d="M105.412 179.651C108.662 180.931 112.081 181.731 115.561 182.025C115.482 174.163 115.295 168.243 115.295 168.243L106.786 164.431C106.786 164.431 106.62 169.214 105.412 179.651Z" fill="#3D0E34"/>
<path d="M101.412 246.664C101.412 246.664 106.634 247.117 109.576 251.289C108.274 247.417 105.645 244.13 102.153 242.01C101.923 243.513 101.671 245.067 101.412 246.664Z" fill="#3D0E34"/>
<path d="M156.85 256H130.732C129.293 248.9 129.149 193.865 129.293 182.025C129.365 174.163 129.559 168.243 129.559 168.243L138.061 164.431C138.061 164.431 138.227 169.214 139.435 179.651C140.155 185.607 141.155 232.205 142.694 242.009C142.934 243.515 143.173 245.066 143.413 246.663C153.714 249.9 156.85 256 156.85 256Z" fill="#591B4C"/>
<path d="M139.414 179.651C136.167 180.933 132.75 181.732 129.271 182.025C129.343 174.163 129.538 168.243 129.538 168.243L138.062 164.431C138.062 164.431 138.205 169.214 139.414 179.651Z" fill="#3D0E34"/>
<path d="M143.413 246.664C143.413 246.664 138.191 247.117 135.256 251.289C136.553 247.416 139.181 244.128 142.673 242.01C142.912 243.515 143.159 245.067 143.413 246.664Z" fill="#3D0E34"/>
<path d="M159.454 190.341C161.936 191.578 161.18 180.58 163.835 183.867C167.863 188.845 161.741 191.866 161.36 193.937C161.547 195.844 164.863 196.311 167.467 193.937C168.469 194.345 169.572 194.434 170.627 194.192C171.681 193.95 172.635 193.389 173.358 192.585C178.315 193.729 179.703 186.248 177.933 162.863L177.825 161.424C175.322 130.011 170.697 127.789 170.697 127.789C167.647 123.976 166.316 125.883 166.69 136.55C167.05 146.541 167.575 167.898 165.604 173.386C165.502 173.7 165.356 173.997 165.173 174.271C162.691 177.702 162.295 176.199 159.49 179.666C156.188 183.838 157.879 189.557 159.454 190.341Z" fill="#E0CC00"/>
<path d="M165.604 173.444C167.387 172.78 169.094 171.929 170.697 170.905C174.085 168.689 176.337 165.078 177.826 161.482C175.323 130.069 170.697 127.846 170.697 127.846C167.647 124.034 166.317 125.94 166.691 136.608C167.05 146.606 167.554 167.963 165.604 173.444Z" fill="#E2C100"/>
<path d="M161.871 194.196C162.273 194.32 162.684 194.412 163.101 194.47C163.561 194.561 164.038 194.508 164.468 194.319C165.305 193.942 166.07 193.421 166.726 192.779C167.38 192.14 167.884 191.364 168.203 190.507C168.523 189.651 168.65 188.734 168.575 187.823C168.575 187.535 169.035 187.471 169.078 187.758C169.303 188.889 169.276 190.055 168.999 191.174C168.722 192.293 168.201 193.337 167.474 194.232C166.687 195.226 165.539 195.87 164.281 196.023C163.679 196.088 163.07 195.992 162.518 195.743C162.26 195.638 162.033 195.468 161.862 195.248C161.69 195.028 161.579 194.767 161.54 194.491C161.526 194.304 161.691 194.132 161.871 194.196Z" fill="#E2C100"/>
<path d="M166.834 193.585C167.617 194.116 168.578 194.317 169.508 194.145C170.439 193.973 171.264 193.441 171.805 192.664C172.47 191.801 172.915 190.789 173.099 189.715C173.366 188.391 173.186 187.075 173.33 185.751C173.317 185.656 173.343 185.56 173.402 185.483C173.461 185.407 173.547 185.357 173.642 185.345C173.738 185.333 173.834 185.359 173.91 185.417C173.987 185.476 174.037 185.563 174.049 185.658C174.491 187.247 174.585 188.913 174.322 190.542C174.146 191.9 173.596 193.183 172.733 194.247C171.164 196.138 167.395 197.038 165.834 194.606C165.395 193.923 166.201 193.247 166.834 193.585Z" fill="#E2C100"/>
<path d="M88.2197 190.341C85.7381 191.578 86.4934 180.579 83.8391 183.867C79.8109 188.844 85.9323 191.866 86.3135 193.937C86.1265 195.843 82.8104 196.311 80.2065 193.937C79.2047 194.345 78.1014 194.434 77.0472 194.192C75.9929 193.95 75.0389 193.389 74.3153 192.585C69.3592 193.772 67.9709 186.291 69.726 162.906L69.8339 161.467C72.3371 130.054 76.9624 127.832 76.9624 127.832C80.0123 124.019 81.3502 125.925 80.969 136.593C80.6093 146.584 80.0842 167.941 82.0552 173.429C82.1578 173.743 82.303 174.04 82.4867 174.314C84.9684 177.745 85.364 176.242 88.1694 179.709C91.4926 183.838 89.795 189.557 88.2197 190.341Z" fill="#E0CC00"/>
<path d="M82.0694 173.444C80.2868 172.78 78.5797 171.929 76.9766 170.905C73.5886 168.689 71.3371 165.078 69.8481 161.482C72.3514 130.069 76.9766 127.846 76.9766 127.846C80.0265 124.034 81.3645 125.94 80.9832 136.608C80.6236 146.606 80.0985 167.963 82.0694 173.444Z" fill="#E2C100"/>
<path d="M85.8028 194.196C85.401 194.321 84.9896 194.412 84.5728 194.47C84.1125 194.56 83.6355 194.507 83.2061 194.318C82.3696 193.94 81.6053 193.419 80.9474 192.779C80.2928 192.141 79.786 191.367 79.4629 190.512C79.1398 189.657 79.0081 188.742 79.0772 187.83C79.0772 187.542 78.624 187.478 78.5736 187.765C78.3486 188.896 78.3757 190.062 78.653 191.181C78.9302 192.3 79.4509 193.345 80.1777 194.239C80.978 195.222 82.1332 195.85 83.3931 195.987C83.9818 196.061 84.5794 195.979 85.1266 195.75C85.3852 195.645 85.6116 195.475 85.7833 195.255C85.955 195.035 86.066 194.774 86.1049 194.498C86.1481 194.304 85.9826 194.131 85.8028 194.196Z" fill="#E2C100"/>
<path d="M80.8466 193.585C80.0852 194.055 79.19 194.259 78.3002 194.168C77.3368 193.976 76.4755 193.442 75.8761 192.664C75.2105 191.801 74.766 190.789 74.5813 189.715C74.3223 188.391 74.495 187.075 74.3511 185.751C74.3572 185.704 74.354 185.656 74.3416 185.61C74.3292 185.564 74.3079 185.521 74.2788 185.483C74.2498 185.446 74.2136 185.414 74.1723 185.39C74.131 185.367 74.0854 185.351 74.0382 185.345C73.991 185.339 73.943 185.342 73.897 185.355C73.851 185.367 73.8079 185.388 73.7702 185.417C73.694 185.476 73.6442 185.563 73.6318 185.658C73.1893 187.247 73.096 188.913 73.3584 190.542C73.5347 191.9 74.085 193.183 74.9481 194.247C76.5162 196.138 80.2855 197.038 81.8464 194.606C82.2996 193.923 81.4724 193.247 80.8466 193.585Z" fill="#E2C100"/>
<path d="M94.0245 103.188C92.9729 104.961 91.4386 106.398 89.6007 107.331C88.4194 107.961 87.0813 108.235 85.7477 108.121C84.414 108.008 83.1416 107.511 82.0838 106.691C82.0838 106.691 76.991 93.8439 79.4727 90.9882L79.5518 90.9019C82.2205 88.3843 95.2258 100.936 94.0245 103.188Z" fill="#732B60"/>
<path d="M81.2855 95.4839C81.2855 95.4839 85.4144 102.85 87.3134 105.072C84.4362 107.043 83.5082 106.662 83.5082 106.662C83.5082 106.662 81.0266 100.246 81.2855 95.4839Z" fill="#914A82"/>
<path d="M94.0246 103.188C92.973 104.961 91.4386 106.398 89.6008 107.331C86.7273 101.573 83.3578 96.0755 79.5303 90.9019C82.2205 88.3843 95.2258 100.936 94.0246 103.188Z" fill="#591B4C"/>
<path d="M167.712 107.101C166.643 107.76 165.414 108.115 164.158 108.128C162.902 108.141 161.666 107.811 160.583 107.173C158.665 106.04 157.14 104.345 156.217 102.318C155.332 100.109 167.669 90.3769 171.323 91.3048C171.613 91.3699 171.868 91.5388 172.042 91.7796C174.171 94.8943 167.712 107.101 167.712 107.101Z" fill="#732B60"/>
<path d="M158.203 102.512C160.343 98.9546 163.582 96.1901 167.432 94.6353C162.605 101.239 161.001 103.699 161.001 103.699L158.203 102.512Z" fill="#914A82"/>
<path d="M167.712 107.101C166.643 107.76 165.414 108.115 164.158 108.128C162.902 108.141 161.666 107.81 160.583 107.173C164.748 101.778 169.402 94.3834 171.294 91.3047C171.584 91.3698 171.84 91.5387 172.013 91.7794C174.171 94.8941 167.712 107.101 167.712 107.101Z" fill="#591B4C"/>
<path d="M83.954 104.886C76.509 109.259 74.3007 113.021 73.5383 132.824C72.7758 152.627 74.0418 160.496 78.8684 166.1C83.6951 171.703 109.101 173.444 125.114 172.962C141.126 172.48 161.698 172.962 166.777 166.359C171.855 159.755 172.876 133.587 171.351 117.33C169.826 101.073 157.936 101.368 148.995 100.311C133.99 98.5341 96.909 97.2609 83.954 104.886Z" fill="#E0CC00"/>
<path d="M77.3582 144.427C77.3582 144.427 75.8404 160.05 83.8321 166.143C91.8237 172.235 153.369 171.48 161.173 166.143C168.978 160.805 169.366 141.384 169.366 141.384C169.366 141.384 164.605 155.669 152.988 157.928C141.37 160.187 91.4497 161.525 87.069 158.878C82.6883 156.231 77.5524 147.858 77.3582 144.427Z" fill="#E2C100"/>
<path d="M131.724 117.654C130.831 120.298 130.805 123.158 131.652 125.818C133.134 130.414 138.328 133.011 143.528 132.493C150.973 131.774 154.505 124.48 151.391 116.539C143.744 116.985 131.724 117.654 131.724 117.654Z" fill="#D6B200"/>
<path d="M151.052 121.941C150.678 126.465 147.93 129.508 143.701 130.105C139.471 130.702 136.054 129.508 133.537 125.789C131.019 122.07 132.35 117.337 132.35 117.337L133.235 117.279L135.227 117.179L147.65 116.459L149.089 116.38L150.398 116.294C150.398 116.294 151.412 117.416 151.052 121.941Z" fill="white"/>
<path d="M151.052 121.941C150.678 126.465 147.93 129.508 143.701 130.105C139.471 130.702 136.054 129.508 133.537 125.789C131.019 122.07 132.35 117.337 132.35 117.337L133.235 117.28C133.019 119.956 133.163 124.077 135.508 126.631C139.104 130.573 145.578 128.961 147.319 126.631C149.06 124.3 149.578 121.358 149.067 116.366L150.376 116.28C150.376 116.28 151.412 117.416 151.052 121.941Z" fill="#FDDCC0"/>
<path d="M141.104 122.458C143.132 123.329 145.213 124.071 147.334 124.681C146.816 125.875 143.737 127.558 141.579 127.731C140.125 127.793 138.691 127.367 137.507 126.519C136.324 125.672 135.458 124.452 135.048 123.056C134.421 121.13 134.497 119.045 135.263 117.171L147.686 116.452C148.192 117.839 148.486 119.294 148.556 120.768C148.528 120.977 141.104 122.458 141.104 122.458Z" fill="#591B4C"/>
<path d="M129.861 112.848C129.717 113.273 130.084 117.883 130.696 118.193C136.537 117.912 152.851 117.078 152.901 116.409C152.951 115.74 131.753 116.409 131.811 116.186C131.868 115.963 130.084 112.179 129.861 112.848Z" fill="#D6B200"/>
<path d="M115.762 116.984C115.762 116.984 119.553 124.257 112.885 129.932C107.598 134.442 98.024 132.212 95.5136 127.206C93.0032 122.199 95.5712 115.352 95.5712 115.352L115.762 116.984Z" fill="#D6B200"/>
<path d="M113.9 125.487C111.382 129.199 107.965 130.386 103.729 129.803C99.4917 129.22 96.7583 126.156 96.3843 121.653C96.0102 117.15 97.0604 116.006 97.0604 116.006L98.7436 116.107L99.7794 116.172L100.657 116.222L112.087 116.877H112.166L113.727 116.97L115.058 117.042C115.058 117.042 116.425 121.782 113.9 125.487Z" fill="white"/>
<path d="M113.9 125.487C111.382 129.199 107.965 130.386 103.729 129.803C99.4917 129.22 96.7583 126.156 96.3843 121.653C96.0102 117.15 97.0604 116.006 97.0604 116.006L98.7436 116.107C97.8301 119.15 96.9813 126.501 102.772 128.515C109.792 130.954 115.777 124.595 113.756 117.006L115.087 117.078C115.087 117.078 116.425 121.782 113.9 125.487Z" fill="#FDDCC0"/>
<path d="M106.088 122.667C108.102 123.384 110.192 123.867 112.317 124.106C111.77 125.132 110.993 126.017 110.047 126.694C109.102 127.37 108.012 127.819 106.865 128.004C104.75 128.335 101.297 127.443 100.074 123.106C99.4183 120.805 99.6256 118.344 100.657 116.186L112.087 116.848C112.4 118.283 112.442 119.764 112.209 121.214L106.088 122.667Z" fill="#591B4C"/>
<path d="M117.331 117.733C118.59 116.028 118.295 111.719 117.698 111.496C117.101 111.273 115.324 115.87 115.324 115.87C115.324 115.87 92.0251 114.388 92.9098 115.805C93.2695 116.373 116.144 118.107 117.331 117.733Z" fill="#D6B200"/>
<path d="M141.593 143.369C140.938 145.654 139.489 147.631 137.508 148.944C136.824 149.412 136.102 149.821 135.35 150.167L135.213 150.224C134.512 150.552 133.792 150.836 133.055 151.073C132.336 151.303 131.573 151.497 130.796 151.663H130.674C129.955 151.814 129.192 151.943 128.43 152.044H128.351C127.631 152.13 126.912 152.202 126.193 152.253H125.963C125.315 152.253 124.661 152.317 123.999 152.325H123.459C122.891 152.325 122.33 152.325 121.783 152.325H121.539C120.819 152.325 120.1 152.238 119.381 152.166H119.302C118.518 152.087 117.762 151.979 117.043 151.843H116.914C116.145 151.699 115.384 151.517 114.633 151.296H114.569C113.834 151.081 113.113 150.822 112.411 150.519L112.166 150.425C111.393 150.081 110.65 149.675 109.943 149.21C108.584 148.331 107.416 147.186 106.512 145.843C103.901 141.916 104.743 136.715 108.886 135.262C109.352 135.1 109.834 134.991 110.325 134.939C110.778 134.881 111.217 134.845 111.655 134.823H112.022C112.983 134.804 113.945 134.852 114.899 134.967C115.892 135.082 116.842 135.255 117.777 135.449C118.698 135.643 119.597 135.845 120.481 136.025H120.625C121.483 136.206 122.35 136.341 123.222 136.428H123.359L123.992 136.463C124.711 136.463 125.43 136.463 126.056 136.463C127.013 136.463 127.905 136.348 128.732 136.24H128.998C129.955 136.111 130.825 135.946 131.631 135.78L131.875 135.73C132.839 135.528 133.717 135.334 134.537 135.205L135.004 135.133C135.35 135.09 135.681 135.061 136.012 135.046C136.576 135.025 137.142 135.074 137.695 135.19C140.363 135.715 143.147 137.895 141.593 143.369Z" fill="#732B60"/>
<path d="M119.222 143.952C119.067 142.805 119.2 141.638 119.611 140.557C120.165 138.722 121.726 138.276 122.56 139.276C123.394 140.276 122.618 143.009 124.121 142.952C125.624 142.894 126.063 142.391 125.898 141.168C125.732 139.945 124.783 139.557 125.898 138.607C127.013 137.658 132.077 140.276 130.019 144.232C127.962 148.189 120.33 148.045 119.222 143.952Z" fill="#591B4C"/>
<path d="M124.006 145.11C121.898 144.937 120.517 142.772 116.403 142.995C112.475 143.211 111.274 145.671 111.835 148.081C112.914 149.821 116.956 151.792 124.344 151.569C131.731 151.346 134.659 149.455 135.695 148.304C136.731 147.153 136.148 143.549 133.429 143.067C128.832 142.254 127.991 145.448 124.006 145.11Z" fill="#C1472A"/>
<path d="M133.105 144.952C131.588 144.232 129.883 145.016 128.595 145.865C127.943 146.345 127.244 146.757 126.509 147.095C125.76 147.387 124.928 147.387 124.179 147.095C122.517 146.541 121.086 145.513 119.395 145.009C117.913 144.57 116.259 144.455 114.928 145.383C114.82 145.462 114.885 145.664 115.022 145.613C116.655 144.988 118.266 145.822 119.525 146.836C120.783 147.851 122.33 148.958 124.049 149.174C124.849 149.261 125.657 149.178 126.422 148.93C127.187 148.682 127.891 148.275 128.487 147.735C129.732 146.743 130.983 145.498 132.703 145.887C133.256 146.031 133.666 145.225 133.105 144.952Z" fill="#F26F4B"/>
<path d="M114.885 134.723V134.651C114.889 134.675 114.889 134.699 114.885 134.723Z" fill="white"/>
<path d="M114.878 134.651C114.882 134.675 114.882 134.699 114.878 134.723V134.651Z" fill="white"/>
<path d="M131.731 134.651V134.723C131.728 134.699 131.728 134.675 131.731 134.651Z" fill="white"/>
<path d="M131.731 134.651V134.723C131.728 134.699 131.728 134.675 131.731 134.651Z" fill="white"/>
<path d="M137.256 148.944C136.573 149.412 135.851 149.821 135.098 150.167L134.976 150.231C134.322 150.525 133.652 150.782 132.969 151.001V151.073C132.975 151.113 132.975 151.155 132.969 151.195C132.962 151.157 132.962 151.118 132.969 151.08L132.803 151.123V151.195C132.802 151.171 132.802 151.147 132.803 151.123C132.118 151.343 131.421 151.528 130.717 151.677H130.602C129.892 151.821 129.173 151.943 128.444 152.044H128.358C127.725 152.137 127.077 152.188 126.43 152.245H126.193C125.538 152.289 124.891 152.31 124.229 152.317H123.675C123.107 152.317 122.553 152.317 122.006 152.281H121.762C121.042 152.281 120.323 152.195 119.604 152.123H119.51C118.733 152.044 117.978 151.936 117.259 151.799H117.122C116.358 151.655 115.602 151.473 114.856 151.253H114.784C114.05 151.036 113.329 150.774 112.626 150.469L112.403 150.382C111.628 150.038 110.883 149.631 110.173 149.167C110.173 148.886 110.173 148.555 110.217 148.224C110.296 147.189 110.54 146.066 111.152 146.023C111.763 145.98 112.267 147.217 112.518 148.541C112.641 147.728 112.892 147.023 113.374 146.966C114.022 146.908 114.648 148.526 114.813 150.03C114.899 148.958 115.129 147.757 115.755 147.692C116.381 147.627 116.935 149.023 117.194 150.418C117.273 149.382 117.51 148.26 118.129 148.188C118.748 148.116 119.359 149.627 119.568 151.109C119.568 151.109 119.568 151.152 119.568 151.181V151.145C119.632 150.059 119.863 148.793 120.517 148.735C121.049 148.678 121.553 149.757 121.819 150.972C121.92 149.994 122.164 149.008 122.747 148.958C123.33 148.908 123.833 150.087 124.092 151.389C124.272 150.224 124.668 149.231 125.178 149.231C125.689 149.231 125.955 149.886 126.149 150.67C126.344 149.649 126.718 148.814 127.178 148.829C128.243 148.829 128.207 149.864 128.307 150.879C128.422 149.49 128.861 148.109 129.458 148.116C130.055 148.124 130.408 149.217 130.58 150.274C130.688 148.836 131.127 147.397 131.739 147.433C132.35 147.469 132.573 148.203 132.76 149.052C132.908 148.121 133.291 147.245 133.875 146.505C134.357 146.505 134.673 147.189 134.868 147.987C134.997 146.649 135.421 145.361 136.004 145.369C136.932 145.369 137.184 146.426 137.263 147.426C137.263 147.987 137.234 148.584 137.256 148.944Z" fill="white"/>
<path d="M137.256 148.944C136.573 149.412 135.851 149.821 135.098 150.167L134.976 150.231C134.322 150.526 133.652 150.782 132.969 151.001V151.073C132.975 151.113 132.975 151.155 132.969 151.195C132.962 151.157 132.962 151.118 132.969 151.08L132.803 151.123V151.195C132.802 151.171 132.802 151.147 132.803 151.123C132.118 151.343 131.421 151.528 130.717 151.677H130.602C129.892 151.821 129.173 151.943 128.444 152.044H128.358C127.725 152.138 127.077 152.188 126.43 152.245H126.193C125.538 152.289 124.891 152.31 124.229 152.317H123.675C123.107 152.317 122.553 152.317 122.006 152.281H121.762C121.042 152.281 120.323 152.195 119.604 152.123H119.51C118.733 152.044 117.978 151.936 117.259 151.799H117.122C116.358 151.655 115.602 151.473 114.856 151.253H114.784C114.05 151.036 113.329 150.774 112.626 150.469L112.403 150.382C111.628 150.038 110.883 149.632 110.173 149.167C110.173 148.886 110.173 148.555 110.217 148.224C111.036 148.763 111.927 149.185 112.864 149.476C115.028 150.228 117.254 150.786 119.517 151.145C124.179 151.864 130.48 151.037 134.386 149.131C135.358 148.598 136.301 148.014 137.213 147.383C137.263 147.987 137.234 148.584 137.256 148.944Z" fill="#FDDCC0"/>
<path d="M111.648 134.788C111.561 135.213 111.436 135.629 111.274 136.032C110.849 137.111 110.188 138.19 109.835 138.132C109.483 138.075 109.238 137.413 109.116 136.572C109.037 136.133 108.972 135.658 108.929 135.234C109.395 135.074 109.878 134.963 110.367 134.903C110.763 134.852 111.209 134.816 111.648 134.788Z" fill="white"/>
<path d="M114.877 134.924C114.813 135.42 114.68 135.904 114.482 136.363C114.057 137.463 113.381 138.564 113.043 138.521C112.554 138.456 112.324 137.147 112.151 135.982C112.094 135.543 112.058 135.111 112.036 134.795C112.985 134.769 113.935 134.812 114.877 134.924Z" fill="white"/>
<path d="M117.769 135.399C117.675 135.956 117.513 136.499 117.287 137.018C116.863 138.039 116.252 138.988 115.914 138.953C115.432 138.895 115.194 137.629 115.029 136.485C114.957 135.852 114.914 135.262 114.892 134.924C115.878 135.039 116.834 135.212 117.769 135.399Z" fill="white"/>
<path d="M120.632 136.039C120.614 136.191 120.583 136.34 120.539 136.485C120.425 136.882 120.286 137.272 120.121 137.651C119.69 138.607 119.136 139.456 118.812 139.42C118.374 139.377 118.093 138.269 117.964 137.198C117.863 136.478 117.812 135.824 117.784 135.442C118.719 135.622 119.611 135.831 120.488 136.011L120.632 136.039Z" fill="white"/>
<path d="M123.243 136.413C123.108 136.909 122.928 137.39 122.704 137.852C122.294 138.73 121.79 139.471 121.488 139.449C121.186 139.427 120.855 138.593 120.704 137.687C120.625 137.269 120.575 136.831 120.539 136.428C120.539 136.262 120.539 136.104 120.488 135.953H120.632C121.494 136.154 122.365 136.307 123.243 136.413Z" fill="white"/>
<path d="M137.716 135.161C137.716 135.528 137.637 135.917 137.572 136.298C137.414 137.24 137.162 138.089 136.774 138.132C136.385 138.175 135.824 137.212 135.4 136.19C135.247 135.841 135.122 135.48 135.026 135.111C135.357 135.063 135.691 135.032 136.026 135.018C136.593 135 137.16 135.049 137.716 135.161Z" fill="white"/>
<path d="M134.565 135.169C134.565 135.478 134.501 135.838 134.45 136.198C134.306 137.298 134.04 138.456 133.58 138.507C133.227 138.507 132.587 137.514 132.141 136.449C132.038 136.215 131.949 135.975 131.875 135.73C132.86 135.5 133.745 135.32 134.565 135.169Z" fill="white"/>
<path d="M131.652 135.744C131.652 135.996 131.602 136.269 131.566 136.557C131.429 137.679 131.163 138.895 130.688 138.952C130.35 138.952 129.753 138.046 129.322 137.032C129.206 136.764 129.105 136.49 129.02 136.212C129.976 136.075 130.868 135.917 131.652 135.744Z" fill="white"/>
<path d="M128.753 136.248C128.753 136.536 128.689 136.867 128.653 137.198C128.502 138.269 128.235 139.356 127.797 139.356C127.473 139.391 126.933 138.571 126.509 137.629C126.337 137.243 126.191 136.847 126.07 136.442C127.041 136.442 127.926 136.349 128.753 136.248Z" fill="white"/>
<path d="M126.07 136.478C126.027 136.874 125.977 137.327 125.905 137.751C125.747 138.643 125.502 139.427 125.121 139.478C124.74 139.528 124.315 138.758 123.92 137.888C123.695 137.426 123.512 136.944 123.373 136.449C123.582 136.449 123.79 136.485 124.006 136.492C124.733 136.492 125.416 136.492 126.07 136.478Z" fill="white"/>
<path d="M110.317 134.903C110.763 134.852 111.209 134.816 111.648 134.788C111.561 135.213 111.436 135.629 111.274 136.032C110.539 136.143 109.816 136.323 109.116 136.572C109.037 136.133 108.972 135.658 108.929 135.234C109.379 135.077 109.844 134.966 110.317 134.903Z" fill="#FDDCC0"/>
<path d="M112.015 134.78C112.976 134.758 113.938 134.806 114.892 134.924C114.828 135.42 114.695 135.904 114.496 136.363L113.281 136.089C112.914 136.009 112.541 135.968 112.166 135.967C112.072 135.528 112.036 135.097 112.015 134.78Z" fill="#FDDCC0"/>
<path d="M114.892 134.924C115.878 135.039 116.834 135.212 117.769 135.399C117.675 135.956 117.513 136.499 117.287 137.018C116.518 136.831 115.741 136.643 115.029 136.485C114.957 135.852 114.914 135.262 114.892 134.924Z" fill="#FDDCC0"/>
<path d="M123.243 136.413C123.108 136.909 122.928 137.39 122.704 137.852H121.812C121.44 137.83 121.07 137.784 120.704 137.715C120.625 137.298 120.575 136.859 120.539 136.457C120.425 136.854 120.286 137.243 120.121 137.622C119.46 137.492 118.726 137.334 117.964 137.169C117.863 136.449 117.812 135.795 117.784 135.414C118.719 135.593 119.611 135.802 120.488 135.982H120.632C121.494 136.173 122.366 136.317 123.243 136.413Z" fill="#FDDCC0"/>
<path d="M126.07 136.478C126.027 136.874 125.977 137.327 125.905 137.751C125.247 137.843 124.584 137.889 123.92 137.888C123.695 137.426 123.512 136.944 123.373 136.449C123.582 136.449 123.79 136.485 124.006 136.492C124.733 136.492 125.416 136.492 126.07 136.478Z" fill="#FDDCC0"/>
<path d="M128.753 136.248C128.753 136.536 128.689 136.867 128.653 137.198L128.027 137.349C127.495 137.485 126.984 137.586 126.509 137.665C126.337 137.279 126.191 136.883 126.07 136.478C127.041 136.442 127.926 136.349 128.753 136.248Z" fill="#FDDCC0"/>
<path d="M129.02 136.212C129.976 136.075 130.847 135.917 131.652 135.744C131.652 135.996 131.602 136.269 131.566 136.557C130.911 136.679 130.127 136.83 129.322 137.032C129.206 136.764 129.105 136.49 129.02 136.212Z" fill="#FDDCC0"/>
<path d="M131.897 135.694C132.861 135.5 133.738 135.306 134.566 135.169C134.566 135.478 134.501 135.838 134.451 136.198C134.156 136.198 133.889 136.198 133.681 136.234C133.278 136.234 132.76 136.341 132.163 136.449C132.059 136.203 131.97 135.951 131.897 135.694Z" fill="#FDDCC0"/>
<path d="M137.716 135.161C137.716 135.528 137.637 135.917 137.572 136.298L137.45 136.233C137.45 136.233 136.436 136.197 135.4 136.19C135.247 135.841 135.122 135.48 135.026 135.111C135.357 135.063 135.691 135.032 136.026 135.018C136.593 135 137.16 135.049 137.716 135.161Z" fill="#FDDCC0"/>
<path d="M142.291 138.701C141.936 137.401 141.181 136.246 140.133 135.399C138.856 134.464 137.288 134.013 135.709 134.126C133.993 134.236 132.289 134.477 130.609 134.845C126.495 135.565 122.452 135.881 118.381 134.989C116.705 134.622 115.014 134.27 113.346 134.047C110.296 133.68 107.152 134.292 105.361 137.011C104.622 138.212 104.199 139.58 104.131 140.989C104.063 142.397 104.352 143.8 104.973 145.067C106.289 147.944 108.907 149.937 111.734 151.145C115.047 152.49 118.564 153.263 122.136 153.433C125.638 153.708 129.16 153.28 132.494 152.174C135.496 151.141 138.172 149.332 140.248 146.93C141.254 145.772 142.009 144.417 142.464 142.952C142.804 141.547 142.744 140.074 142.291 138.701ZM140.219 145.038C138.608 147.43 136.318 149.286 133.645 150.368C127.674 152.915 120.963 152.476 114.806 150.829C111.928 150.059 109.138 148.707 107.224 146.369C106.368 145.405 105.774 144.237 105.498 142.978C105.223 141.718 105.274 140.409 105.649 139.176C106.081 137.852 106.988 136.735 108.195 136.039C109.626 135.361 111.222 135.112 112.792 135.32C114.59 135.457 116.388 135.874 118.129 136.183C119.007 136.334 119.87 136.421 120.755 136.593C122.998 136.965 125.292 136.912 127.516 136.435C129.264 136.162 131.026 135.96 132.774 135.716C135.436 135.37 138.802 134.874 140.593 137.392C142.269 139.715 141.658 142.744 140.219 145.038Z" fill="#D6B200"/>
<circle cx="79" cy="83" r="4" fill="#591B4C"/>
<circle cx="75" cy="64" r="8" fill="#591B4C"/>
<rect x="68" width="112" height="49" rx="15" fill="#591B4C"/>
<path d="M80.4461 8.8H76.3181V20H78.1581V16.16H80.4461C82.5581 16.16 84.1581 14.544 84.1581 12.48C84.1581 10.4 82.5581 8.8 80.4461 8.8ZM80.4461 14.432H78.1581V10.528H80.4461C81.5341 10.528 82.3181 11.344 82.3181 12.48C82.3181 13.6 81.5341 14.432 80.4461 14.432ZM85.8036 20H87.5316V8.32H85.8036V20ZM91.058 16.736H97.426C97.458 16.512 97.49 16.256 97.49 16.016C97.49 13.712 95.858 11.792 93.474 11.792C90.962 11.792 89.25 13.632 89.25 16C89.25 18.4 90.962 20.208 93.602 20.208C95.17 20.208 96.37 19.552 97.106 18.464L95.682 17.632C95.298 18.192 94.578 18.624 93.618 18.624C92.338 18.624 91.33 17.984 91.058 16.736ZM91.042 15.328C91.282 14.128 92.162 13.36 93.458 13.36C94.498 13.36 95.506 13.952 95.746 15.328H91.042ZM105.46 12V13.136C104.852 12.304 103.908 11.792 102.66 11.792C100.484 11.792 98.6756 13.616 98.6756 16C98.6756 18.368 100.484 20.208 102.66 20.208C103.908 20.208 104.852 19.696 105.46 18.848V20H107.188V12H105.46ZM102.932 18.56C101.492 18.56 100.404 17.488 100.404 16C100.404 14.512 101.492 13.44 102.932 13.44C104.372 13.44 105.46 14.512 105.46 16C105.46 17.488 104.372 18.56 102.932 18.56ZM110.867 14.208C110.867 13.632 111.411 13.36 112.035 13.36C112.691 13.36 113.251 13.648 113.539 14.272L114.995 13.456C114.435 12.4 113.347 11.792 112.035 11.792C110.403 11.792 109.107 12.736 109.107 14.24C109.107 17.104 113.411 16.304 113.411 17.728C113.411 18.368 112.819 18.624 112.051 18.624C111.171 18.624 110.531 18.192 110.275 17.472L108.787 18.336C109.299 19.488 110.451 20.208 112.051 20.208C113.779 20.208 115.171 19.344 115.171 17.744C115.171 14.784 110.867 15.664 110.867 14.208ZM118.007 16.736H124.375C124.407 16.512 124.439 16.256 124.439 16.016C124.439 13.712 122.807 11.792 120.423 11.792C117.911 11.792 116.199 13.632 116.199 16C116.199 18.4 117.911 20.208 120.551 20.208C122.119 20.208 123.319 19.552 124.055 18.464L122.631 17.632C122.247 18.192 121.527 18.624 120.567 18.624C119.287 18.624 118.279 17.984 118.007 16.736ZM117.991 15.328C118.231 14.128 119.111 13.36 120.407 13.36C121.447 13.36 122.455 13.952 122.695 15.328H117.991ZM134.055 20.208C135.623 20.208 136.983 19.392 137.655 18.128L136.167 17.28C135.783 18.016 134.999 18.512 134.039 18.512C132.631 18.512 131.559 17.44 131.559 16C131.559 14.56 132.631 13.488 134.039 13.488C134.999 13.488 135.783 13.968 136.135 14.72L137.623 13.856C136.983 12.608 135.623 11.792 134.055 11.792C131.639 11.792 129.831 13.616 129.831 16C129.831 18.368 131.639 20.208 134.055 20.208ZM143.272 11.792C142.184 11.792 141.32 12.192 140.792 13.024V8.8H139.064V20H140.792V15.712C140.792 14.08 141.688 13.408 142.824 13.408C143.912 13.408 144.616 14.048 144.616 15.264V20H146.344V15.088C146.344 13.008 145.064 11.792 143.272 11.792ZM149.725 16.736H156.093C156.125 16.512 156.157 16.256 156.157 16.016C156.157 13.712 154.525 11.792 152.141 11.792C149.629 11.792 147.917 13.632 147.917 16C147.917 18.4 149.629 20.208 152.269 20.208C153.837 20.208 155.037 19.552 155.773 18.464L154.349 17.632C153.965 18.192 153.245 18.624 152.285 18.624C151.005 18.624 149.997 17.984 149.725 16.736ZM149.709 15.328C149.949 14.128 150.829 13.36 152.125 13.36C153.165 13.36 154.173 13.952 154.413 15.328H149.709ZM161.567 20.208C163.135 20.208 164.495 19.392 165.167 18.128L163.679 17.28C163.295 18.016 162.511 18.512 161.551 18.512C160.143 18.512 159.071 17.44 159.071 16C159.071 14.56 160.143 13.488 161.551 13.488C162.511 13.488 163.295 13.968 163.647 14.72L165.135 13.856C164.495 12.608 163.135 11.792 161.567 11.792C159.151 11.792 157.343 13.616 157.343 16C157.343 18.368 159.151 20.208 161.567 20.208ZM173.648 20L170 15.92L173.52 12H171.408L168.304 15.536V8.8H166.576V20H168.304V16.304L171.584 20H173.648ZM92.2737 31L90.2257 36.808L87.8417 31H85.9537L89.3457 38.856L89.2657 39.016C88.8657 40.072 88.2577 40.648 87.1377 40.584V42.2C88.9777 42.312 90.2897 41.288 91.0417 39.256L94.1137 31H92.2737ZM98.8177 39.208C101.17 39.208 103.042 37.368 103.042 35C103.042 32.616 101.17 30.792 98.8177 30.792C96.4817 30.792 94.5937 32.616 94.5937 35C94.5937 37.368 96.4817 39.208 98.8177 39.208ZM98.8177 37.528C97.4097 37.528 96.3217 36.456 96.3217 35C96.3217 33.544 97.4097 32.472 98.8177 32.472C100.226 32.472 101.314 33.544 101.314 35C101.314 36.456 100.226 37.528 98.8177 37.528ZM110.156 31V35.288C110.156 36.92 109.26 37.592 108.124 37.592C107.036 37.592 106.332 36.952 106.332 35.736V31H104.604V35.912C104.604 37.992 105.884 39.208 107.676 39.208C108.764 39.208 109.628 38.808 110.156 37.976V39H111.884V31H110.156ZM115.793 32.344V31H114.065V39H115.793V34.968C115.793 33.176 117.121 32.648 118.257 32.728V30.856C117.249 30.856 116.273 31.256 115.793 32.344ZM125.806 37.24V34.216H130.286V32.472H125.806V29.56H130.686V27.8H123.966V39H130.766V37.24H125.806ZM141.234 30.792C140.162 30.792 139.314 31.224 138.786 32.056C138.322 31.256 137.554 30.792 136.514 30.792C135.522 30.792 134.738 31.176 134.226 31.96V31H132.498V39H134.226V34.52C134.226 33.064 135.026 32.408 136.002 32.408C136.946 32.408 137.506 33.032 137.506 34.152V39H139.234V34.52C139.234 33.064 139.954 32.408 140.978 32.408C141.922 32.408 142.53 33.032 142.53 34.152V39H144.258V34.04C144.258 32.04 143.042 30.792 141.234 30.792ZM152.603 31V32.136C151.995 31.304 151.051 30.792 149.803 30.792C147.627 30.792 145.819 32.616 145.819 35C145.819 37.368 147.627 39.208 149.803 39.208C151.051 39.208 151.995 38.696 152.603 37.848V39H154.331V31H152.603ZM150.075 37.56C148.635 37.56 147.547 36.488 147.547 35C147.547 33.512 148.635 32.44 150.075 32.44C151.515 32.44 152.603 33.512 152.603 35C152.603 36.488 151.515 37.56 150.075 37.56ZM157.369 29.8C157.977 29.8 158.473 29.288 158.473 28.696C158.473 28.088 157.977 27.592 157.369 27.592C156.761 27.592 156.265 28.088 156.265 28.696C156.265 29.288 156.761 29.8 157.369 29.8ZM156.505 39H158.233V31H156.505V39ZM160.4 39H162.128V27.32H160.4V39Z" fill="white"/>
</g>
<defs>
<clipPath id="clip0_134_1894">
<rect width="248" height="256" fill="white"/>
</clipPath>
</defs>
</svg>
