<svg width="248" height="248" viewBox="0 0 248 248" fill="none" xmlns="http://www.w3.org/2000/svg">
<path d="M104.335 174.009C108.106 175.496 112.073 176.426 116.112 176.769C116.023 167.636 115.802 160.754 115.802 160.754L105.918 156.338C105.918 156.338 105.741 161.88 104.335 174.009Z" fill="#36152D"/>
<path d="M84.0806 248H114.433C116.097 239.757 116.259 175.805 116.126 162.049C116.038 152.915 115.817 146.034 115.817 146.034L105.933 141.618C105.933 141.618 105.741 147.175 104.335 159.282C103.533 166.208 102.334 220.37 100.552 231.742C100.28 233.493 99.993 235.289 99.6913 237.151C87.7238 240.92 84.0806 248 84.0806 248Z" fill="#521946"/>
<path d="M99.6914 237.159C99.6914 237.159 105.756 237.689 109.171 242.532C107.661 238.033 104.608 234.214 100.553 231.749C100.28 233.501 99.9932 235.297 99.6914 237.159Z" fill="#36152D"/>
<path d="M143.844 174.009C140.074 175.498 136.107 176.427 132.068 176.769C132.157 167.636 132.377 160.754 132.377 160.754L142.262 156.338C142.262 156.338 142.439 161.88 143.844 174.009Z" fill="#36152D"/>
<path d="M164.107 248H133.754C132.083 239.757 131.921 175.805 132.054 162.049C132.142 152.915 132.363 146.034 132.363 146.034L142.247 141.618C142.247 141.618 142.439 147.175 143.844 159.282C144.647 166.208 145.846 220.37 147.628 231.742C147.907 233.493 148.194 235.289 148.496 237.151C160.471 240.92 164.107 248 164.107 248Z" fill="#521946"/>
<path d="M148.496 237.159C148.496 237.159 142.424 237.689 139.009 242.532C140.519 238.033 143.572 234.214 147.627 231.749C147.907 233.501 148.194 235.297 148.496 237.159Z" fill="#36152D"/>
<path d="M79.2675 68.6646C77.8095 69.3314 76.4359 70.1689 75.1754 71.1596C72.4521 73.3676 70.6415 76.8931 69.4492 80.4333C71.4659 111.346 75.1754 113.554 75.1754 113.554C77.6263 117.3 78.7008 115.423 78.3917 104.928C78.1047 95.0651 77.6851 74.0595 79.2675 68.6646Z" fill="#DAC011"/>
<path d="M168.839 67.4355C170.299 68.1022 171.673 68.9424 172.932 69.938C175.655 72.146 177.465 75.6641 178.658 79.2043C176.641 110.117 172.932 112.325 172.932 112.325C170.481 116.071 169.406 114.201 169.715 103.706C170.039 93.8361 170.422 72.8305 168.839 67.4355Z" fill="#DAC011"/>
<path d="M165.395 52.4723C169.413 47.5043 163.305 44.4793 162.922 42.389C163.113 40.4828 166.425 40.0191 169.023 42.389C170.025 41.9805 171.128 41.8914 172.182 42.1338C173.236 42.3762 174.189 42.9383 174.911 43.7433C179.857 42.6025 181.241 50.0729 179.475 73.4264C179.475 73.9048 179.401 74.3832 179.364 74.8469C176.869 106.223 172.247 108.438 172.247 108.438C169.2 112.243 167.868 110.345 168.251 99.6871C168.604 89.7069 169.134 68.3774 167.161 62.8868C167.06 62.5707 166.914 62.2707 166.727 61.9962C166.21 61.22 165.591 60.517 164.887 59.906" fill="#D6CC10"/>
<path d="M163.415 42.1536C163.817 42.0325 164.228 41.9415 164.644 41.8812C165.105 41.7891 165.583 41.8405 166.013 42.0284C166.848 42.4084 167.61 42.9315 168.265 43.5741C168.919 44.2113 169.423 44.9851 169.743 45.8402C170.062 46.6953 170.189 47.6104 170.113 48.52C170.113 48.8071 170.569 48.8733 170.621 48.5863C170.838 47.4619 170.808 46.3035 170.53 45.1923C170.253 44.0811 169.736 43.0439 169.016 42.1536C168.229 41.1593 167.081 40.5165 165.822 40.3651C165.235 40.2954 164.639 40.3765 164.092 40.6006C163.835 40.7054 163.609 40.8762 163.439 41.0959C163.268 41.3155 163.158 41.5763 163.121 41.8518C163.091 42.0137 163.253 42.2198 163.415 42.1536Z" fill="#DAC011"/>
<path d="M168.383 42.7865C169.165 42.2547 170.126 42.053 171.056 42.2252C171.986 42.3975 172.811 42.9298 173.351 43.7065C174.013 44.5694 174.458 45.5793 174.646 46.6505C174.904 47.9753 174.727 49.2928 174.867 50.6102C174.873 50.6927 174.907 50.7706 174.964 50.831C175.02 50.8913 175.096 50.9303 175.178 50.9415C175.26 50.9528 175.343 50.9355 175.414 50.8926C175.485 50.8497 175.539 50.7838 175.566 50.7059C176.012 49.1163 176.107 47.4489 175.846 45.8188C175.66 44.4693 175.108 43.1965 174.249 42.1388C172.689 40.2546 168.92 39.3493 167.36 41.7781C166.933 42.4332 167.757 43.103 168.383 42.7865Z" fill="#DAC011"/>
<path d="M81.8139 51.2505C77.7953 46.2751 83.9262 43.2722 84.2868 41.1599C84.0955 39.261 80.7834 38.7973 78.1853 41.1599C77.1847 40.7505 76.082 40.6602 75.0281 40.9013C73.9742 41.1424 73.0204 41.7031 72.2973 42.5068C67.3513 41.3512 65.9676 48.8217 67.734 72.1752C67.7708 72.661 67.8003 73.132 67.8444 73.5957C70.3395 104.972 74.9616 107.187 74.9616 107.187C78.0381 110.985 79.3409 109.093 78.9581 98.4727C78.5975 88.4925 78.0749 67.163 80.0474 61.6724C80.1487 61.3562 80.2949 61.0563 80.4817 60.7818C81.0953 59.8473 81.8733 59.0319 82.778 58.3751" fill="#D6CC10"/>
<path d="M83.7717 40.9244C83.3719 40.8026 82.9635 40.7116 82.5499 40.6521C82.0885 40.5628 81.6108 40.6167 81.1809 40.8067C80.3449 41.1857 79.5805 41.7061 78.9214 42.3449C78.2707 42.9842 77.7681 43.7584 77.4489 44.6129C77.1298 45.4675 77.0018 46.3816 77.074 47.2909C77.1108 47.5779 76.625 47.6442 76.5735 47.3645C76.3552 46.2401 76.3857 45.0816 76.6629 43.9703C76.9401 42.859 77.4572 41.8219 78.178 40.9318C78.5667 40.4383 79.0489 40.0263 79.597 39.7194C80.1451 39.4125 80.7484 39.2167 81.3723 39.1433C81.9588 39.071 82.5541 39.1495 83.1019 39.3715C83.3587 39.4775 83.5833 39.6487 83.7537 39.8681C83.9241 40.0875 84.0343 40.3476 84.0734 40.6227C84.0834 40.6643 84.0826 40.7078 84.0709 40.749C84.0593 40.7902 84.0373 40.8278 84.007 40.8581C83.9768 40.8883 83.9392 40.9103 83.898 40.922C83.8568 40.9336 83.8133 40.9344 83.7717 40.9244Z" fill="#DAC011"/>
<path d="M78.8259 41.5574C78.0648 41.0875 77.1685 40.8854 76.2794 40.9833C75.3198 41.1624 74.4586 41.6859 73.8579 42.4553C73.1967 43.3188 72.7524 44.3285 72.5625 45.3994C72.3049 46.7168 72.4816 48.0343 72.3417 49.3517C72.3544 49.4493 72.3278 49.548 72.2678 49.626C72.2077 49.7039 72.1192 49.7549 72.0216 49.7676C71.924 49.7803 71.8253 49.7537 71.7473 49.6936C71.6693 49.6336 71.6184 49.545 71.6057 49.4474C71.1601 47.8603 71.0647 46.1953 71.326 44.5677C71.5133 43.2184 72.0655 41.946 72.9232 40.8876C74.4835 39.0035 78.2519 38.1055 79.8122 40.527C80.2464 41.2041 79.4516 41.8739 78.8259 41.5574Z" fill="#DAC011"/>
<path d="M164.387 5H82.02V54.3051H164.387V5Z" fill="#FFC738"/>
<path d="M123.207 23.2676L164.387 54.305H82.02L123.207 23.2676Z" fill="#FFA136"/>
<path d="M123.207 36.03L164.387 5H82.02L123.207 36.03Z" fill="#FFE23D"/>
<path d="M82.7781 58.353C84.0921 57.6136 85.2396 56.6114 86.149 55.409C89.4537 51.3094 87.7609 45.598 86.1858 44.8178C83.7055 43.5813 84.4636 54.5625 81.814 51.2873" fill="#D6CC10"/>
<path d="M164.887 59.906C163.783 59.0154 162.988 58.9713 161.075 56.6013C157.777 52.5018 159.47 46.7903 161.075 46.0028C163.548 44.7663 162.797 55.7549 165.447 52.4723" fill="#D6CC10"/>
<path d="M93.6709 88.8088C92.5902 90.6235 91.0185 92.0957 89.1371 93.0556C87.9275 93.6976 86.5581 93.9767 85.1937 93.8592C83.8293 93.7417 82.5279 93.2326 81.4458 92.3932C81.4458 92.3932 76.2349 79.2555 78.7741 76.3262C78.7992 76.2974 78.8263 76.2703 78.8551 76.2452C81.593 73.6692 94.9 86.5051 93.6709 88.8088Z" fill="#732B60"/>
<path d="M80.6288 80.9263C80.6288 80.9263 84.8534 88.4703 86.8039 90.7446C83.8598 92.7539 82.903 92.3638 82.903 92.3638C82.903 92.3638 80.3712 85.806 80.6288 80.9263Z" fill="#914A82"/>
<path d="M93.6709 88.8088C92.5902 90.6235 91.0185 92.0957 89.1371 93.0556C86.2015 87.1611 82.7536 81.536 78.833 76.2452C81.593 73.6692 94.9 86.5051 93.6709 88.8088Z" fill="#591B4C"/>
<path d="M169.06 92.8201C167.965 93.4935 166.708 93.8555 165.422 93.8672C164.137 93.8789 162.873 93.5398 161.766 92.8864C159.803 91.7274 158.244 89.9931 157.299 87.9183C156.393 85.6661 169.016 75.708 172.755 76.6501C173.052 76.7198 173.313 76.895 173.491 77.1432C175.677 80.3301 169.06 92.8201 169.06 92.8201Z" fill="#732B60"/>
<path d="M159.337 88.1244C159.426 87.7711 162.546 82.5749 168.78 80.0283C163.842 86.7849 162.2 89.2946 162.2 89.2946L159.337 88.1244Z" fill="#914A82"/>
<path d="M169.06 92.8205C167.965 93.4939 166.707 93.8559 165.422 93.8675C164.137 93.8792 162.873 93.5401 161.766 92.8867C166.035 87.374 170.79 79.8079 172.725 76.6504C173.022 76.7201 173.284 76.8954 173.461 77.1435C175.677 80.3304 169.06 92.8205 169.06 92.8205Z" fill="#591B4C"/>
<path d="M83.3596 90.546C75.7419 95.0283 73.4824 98.8629 72.7022 119.14C71.922 139.417 73.2174 147.469 78.156 153.188C83.0946 158.906 109.068 160.724 125.467 160.202C141.865 159.679 162.892 160.202 168.089 153.445C173.285 146.689 174.33 119.92 172.77 103.286C171.209 86.6525 159.043 86.9543 149.895 85.865C134.564 84.047 96.6151 82.7517 83.3596 90.546Z" fill="#E0CC00"/>
<path d="M76.6174 131.012C76.6174 131.012 75.0571 146.99 83.2415 153.232C91.4259 159.473 154.391 158.693 162.384 153.232C170.377 147.771 170.775 127.913 170.775 127.913C170.775 127.913 165.902 142.53 154.016 144.841C142.129 147.152 91.0505 148.521 86.5682 145.82C82.086 143.119 76.8088 134.537 76.6174 131.012Z" fill="#E2C100"/>
<path d="M132.238 103.625C131.324 106.33 131.298 109.257 132.164 111.978C133.68 116.689 138.994 119.338 144.315 118.816C151.933 118.08 155.554 110.617 152.36 102.491C144.544 102.933 132.238 103.625 132.238 103.625Z" fill="#D6B200"/>
<path d="M152.014 108.041C151.632 112.67 148.82 115.784 144.5 116.387C140.179 116.991 136.669 115.784 134.093 111.971C131.517 108.159 132.878 103.308 132.878 103.308L133.783 103.257L135.83 103.146L148.54 102.41L150.012 102.329L151.352 102.249C151.352 102.249 152.375 103.367 152.014 108.041Z" fill="white"/>
<path d="M152.014 108.041C151.632 112.67 148.82 115.784 144.5 116.387C140.179 116.991 136.669 115.784 134.093 111.971C131.517 108.159 132.878 103.308 132.878 103.308L133.783 103.257C133.563 105.987 133.71 110.212 136.109 112.825C139.789 116.858 146.413 115.217 148.194 112.825C149.976 110.433 150.505 107.437 149.983 102.322L151.322 102.241C151.322 102.241 152.375 103.367 152.014 108.041Z" fill="#FDDCC0"/>
<path d="M141.835 108.527C143.913 109.418 146.044 110.18 148.216 110.808C147.679 112.023 144.536 113.752 142.328 113.921C140.838 113.993 139.368 113.559 138.155 112.691C136.942 111.823 136.058 110.571 135.645 109.137C135.005 107.168 135.083 105.034 135.866 103.117L148.577 102.381C149.095 103.799 149.395 105.288 149.467 106.797C149.431 107.01 141.835 108.527 141.835 108.527Z" fill="#591B4C"/>
<path d="M130.331 98.6936C130.184 99.1279 130.559 103.846 131.185 104.162C137.161 103.882 153.854 103.021 153.906 102.344C153.957 101.667 132.267 102.344 132.326 102.116C132.385 101.888 130.559 98.0165 130.331 98.6936Z" fill="#D6B200"/>
<path d="M115.913 102.933C115.913 102.933 119.792 110.367 112.969 116.181C107.559 120.796 97.7631 118.522 95.2018 113.392C92.6405 108.262 95.2533 101.262 95.2533 101.262L115.913 102.933Z" fill="#D6B200"/>
<path d="M113.999 111.633C111.423 115.431 107.927 116.645 103.592 116.049C99.2573 115.453 96.4384 112.31 96.0777 107.68C95.7171 103.051 96.7696 101.91 96.7696 101.91L98.4918 102.006L99.5517 102.072L100.457 102.124L112.145 102.801H112.255L113.852 102.889L115.214 102.963C115.214 102.963 116.59 107.835 113.999 111.633Z" fill="white"/>
<path d="M113.999 111.633C111.423 115.431 107.927 116.645 103.592 116.049C99.2573 115.453 96.4384 112.31 96.0777 107.68C95.7171 103.051 96.7696 101.91 96.7696 101.91L98.4918 102.006C97.5571 105.119 96.6886 112.648 102.613 114.702C109.797 117.204 115.928 110.698 113.852 102.926L115.214 102.999C115.214 102.999 116.59 107.835 113.999 111.633Z" fill="#FDDCC0"/>
<path d="M106.007 108.777C108.068 109.51 110.206 110.004 112.38 110.249C111.822 111.299 111.027 112.205 110.059 112.896C109.091 113.587 107.976 114.044 106.801 114.231C104.638 114.577 101.105 113.664 99.8536 109.219C99.1823 106.867 99.3943 104.351 100.45 102.146L112.145 102.815C112.466 104.284 112.508 105.799 112.27 107.283L106.007 108.777Z" fill="#591B4C"/>
<path d="M117.51 103.691C118.798 101.947 118.496 97.5453 117.885 97.3171C117.275 97.089 115.457 101.792 115.457 101.792C115.457 101.792 91.6174 100.269 92.5227 101.718C92.8907 102.3 116.31 104.074 117.51 103.691Z" fill="#D6B200"/>
<path d="M142.336 129.923C141.66 132.26 140.179 134.284 138.155 135.634C137.456 136.11 136.717 136.527 135.947 136.878L135.815 136.944C135.084 137.274 134.334 137.562 133.57 137.805C132.834 138.041 132.054 138.247 131.259 138.416H131.134C130.398 138.571 129.617 138.696 128.837 138.799H128.756C128.02 138.895 127.284 138.968 126.548 139.012H126.313C125.643 139.056 124.973 139.079 124.296 139.086H123.744C123.163 139.086 122.589 139.086 122.029 139.049H121.779C121.043 139.012 120.307 138.961 119.571 138.887H119.49C118.688 138.799 117.915 138.688 117.179 138.556H117.046C116.229 138.401 115.457 138.217 114.713 138.004H114.647C113.896 137.784 113.158 137.519 112.439 137.209L112.211 137.113C111.419 136.766 110.658 136.353 109.937 135.877C108.549 134.976 107.358 133.804 106.433 132.432C103.754 128.414 104.615 123.085 108.855 121.606C109.331 121.437 109.825 121.324 110.327 121.267C110.79 121.208 111.247 121.172 111.688 121.149H112.064C113.047 121.124 114.031 121.17 115.008 121.289C116.023 121.414 116.995 121.591 117.952 121.782C118.894 121.974 119.814 122.187 120.719 122.371H120.866C121.744 122.554 122.631 122.691 123.523 122.783H123.671C123.884 122.783 124.105 122.783 124.318 122.828C125.054 122.828 125.79 122.828 126.431 122.828C127.409 122.828 128.322 122.71 129.176 122.607L129.448 122.563C130.42 122.43 131.31 122.261 132.142 122.092L132.385 122.04C133.371 121.834 134.269 121.635 135.115 121.503L135.586 121.436C135.928 121.389 136.272 121.36 136.617 121.348C137.195 121.326 137.773 121.376 138.339 121.495C141.077 122.092 143.925 124.329 142.336 129.923Z" fill="#732B60"/>
<path d="M119.446 130.496C119.291 129.323 119.427 128.13 119.843 127.023C120.41 125.138 122.007 124.682 122.861 125.712C123.715 126.743 122.92 129.525 124.458 129.466C125.997 129.407 126.453 128.899 126.276 127.648C126.1 126.397 125.143 125.992 126.276 125.028C127.41 124.064 132.598 126.736 130.494 130.776C128.389 134.817 120.587 134.706 119.446 130.496Z" fill="#591B4C"/>
<path d="M124.34 131.711C122.184 131.527 120.771 129.319 116.561 129.547C112.542 129.761 111.313 132.285 111.887 134.743C112.991 136.532 117.128 138.541 124.686 138.313C132.245 138.085 135.241 136.149 136.301 134.971C137.36 133.794 136.764 130.114 133.99 129.621C129.279 128.782 128.44 132.05 124.34 131.711Z" fill="#C1472A"/>
<path d="M133.651 131.549C132.105 130.813 130.354 131.608 129.036 132.484C128.369 132.974 127.654 133.396 126.902 133.742C126.135 134.04 125.284 134.04 124.517 133.742C122.817 133.183 121.352 132.13 119.63 131.615C118.106 131.159 116.414 131.041 115.052 131.998C114.942 132.071 115.008 132.285 115.148 132.226C116.818 131.586 118.467 132.447 119.755 133.477C121.043 134.508 122.626 135.648 124.385 135.869C125.203 135.958 126.03 135.873 126.813 135.619C127.595 135.366 128.316 134.949 128.926 134.397C130.199 133.389 131.48 132.116 133.246 132.506C133.805 132.645 134.225 131.821 133.651 131.549Z" fill="#F26F4B"/>
<path d="M115.008 121.076V121.002C115.011 121.026 115.011 121.051 115.008 121.076Z" fill="white"/>
<path d="M115 121.002C115.004 121.026 115.004 121.051 115 121.076V121.002Z" fill="white"/>
<path d="M132.245 121.002V121.076C132.241 121.051 132.241 121.026 132.245 121.002Z" fill="white"/>
<path d="M132.245 121.002V121.076C132.241 121.051 132.241 121.026 132.245 121.002Z" fill="white"/>
<path d="M137.898 135.627C137.198 136.107 136.46 136.528 135.69 136.885L135.565 136.944C134.898 137.251 134.212 137.515 133.511 137.732V137.805C133.518 137.849 133.518 137.894 133.511 137.938C133.505 137.899 133.505 137.859 133.511 137.82C133.456 137.83 133.402 137.845 133.349 137.864V137.938C133.346 137.913 133.346 137.889 133.349 137.864C132.657 138.078 131.951 138.269 131.215 138.423H131.097C130.371 138.571 129.635 138.696 128.889 138.799H128.808C128.153 138.887 127.491 138.946 126.828 138.998H126.541C125.864 139.042 125.202 139.056 124.525 139.071H123.965C123.391 139.071 122.817 139.071 122.265 139.034H122.007C121.271 138.998 120.535 138.939 119.799 138.872C119.768 138.88 119.735 138.88 119.704 138.872C118.909 138.791 118.136 138.681 117.4 138.549H117.268C116.483 138.404 115.707 138.22 114.942 137.997H114.868C114.116 137.78 113.378 137.514 112.66 137.202L112.432 137.113C111.641 136.758 110.878 136.342 110.15 135.87C110.15 135.575 110.15 135.237 110.195 134.905C110.276 133.845 110.526 132.697 111.151 132.653C111.777 132.609 112.292 133.868 112.55 135.222C112.675 134.397 112.932 133.669 113.433 133.617C114.095 133.551 114.728 135.214 114.905 136.745C114.986 135.649 115.221 134.42 115.862 134.361C116.502 134.302 117.069 135.722 117.334 137.15C117.415 136.083 117.65 134.942 118.283 134.869C118.916 134.795 119.549 136.341 119.755 137.857C119.755 137.857 119.755 137.901 119.755 137.93V137.857C119.822 136.738 120.057 135.45 120.727 135.384C121.271 135.332 121.787 136.429 122.059 137.673C122.162 136.672 122.42 135.663 123.008 135.612C123.597 135.56 124.12 136.775 124.385 138.1C124.569 136.907 124.974 135.892 125.496 135.892C126.019 135.892 126.291 136.561 126.49 137.364C126.696 136.318 127.071 135.465 127.55 135.472C128.639 135.472 128.602 136.532 128.698 137.57C128.816 136.157 129.264 134.736 129.883 134.743C130.501 134.751 130.854 135.87 131.024 136.951C131.134 135.479 131.583 134.007 132.216 134.044C132.738 134.044 133.07 134.824 133.254 135.693C133.403 134.734 133.796 133.829 134.394 133.065C134.888 133.065 135.211 133.765 135.41 134.581C135.543 133.213 135.984 131.895 136.573 131.91C137.522 131.91 137.78 132.984 137.861 134.015C137.905 134.648 137.876 135.273 137.898 135.627Z" fill="white"/>
<path d="M137.898 135.627C137.198 136.107 136.46 136.528 135.69 136.885L135.565 136.944C134.898 137.251 134.212 137.514 133.511 137.732V137.805C133.518 137.849 133.518 137.894 133.511 137.938C133.505 137.899 133.505 137.859 133.511 137.82C133.456 137.83 133.402 137.845 133.349 137.864V137.938C133.346 137.913 133.346 137.888 133.349 137.864C132.657 138.077 131.951 138.269 131.215 138.423H131.097C130.371 138.571 129.635 138.696 128.889 138.799H128.808C128.153 138.887 127.491 138.946 126.828 138.997H126.541C125.864 139.042 125.202 139.056 124.525 139.071H123.965C123.391 139.071 122.817 139.071 122.265 139.034H122.007C121.271 138.997 120.535 138.939 119.799 138.872C119.768 138.88 119.735 138.88 119.704 138.872C118.909 138.791 118.136 138.681 117.4 138.548H117.268C116.483 138.404 115.707 138.22 114.942 137.996H114.868C114.116 137.78 113.378 137.514 112.66 137.202L112.432 137.113C111.641 136.758 110.878 136.342 110.15 135.869C110.15 135.575 110.15 135.236 110.195 134.905C111.036 135.451 111.947 135.881 112.903 136.186C115.129 136.941 117.417 137.5 119.741 137.857C124.51 138.593 130.957 137.746 134.961 135.796C136.131 135.222 137.007 134.508 137.846 134.007C137.905 134.648 137.876 135.273 137.898 135.627Z" fill="#FDDCC0"/>
<path d="M111.696 121.149C111.608 121.582 111.48 122.006 111.313 122.415C110.879 123.527 110.202 124.623 109.841 124.572C109.48 124.52 109.23 123.836 109.068 122.975C108.987 122.518 108.921 122.04 108.877 121.598C109.354 121.434 109.848 121.323 110.349 121.267C110.798 121.208 111.247 121.171 111.696 121.149Z" fill="white"/>
<path d="M115 121.289C114.934 121.796 114.798 122.291 114.596 122.761C114.161 123.887 113.47 125.013 113.124 124.969C112.623 124.903 112.388 123.556 112.218 122.371C112.152 121.915 112.115 121.48 112.093 121.157C113.064 121.131 114.036 121.175 115 121.289Z" fill="white"/>
<path d="M117.959 121.775C117.865 122.343 117.7 122.897 117.466 123.424C117.032 124.469 116.406 125.44 116.06 125.403C115.567 125.352 115.324 124.049 115.155 122.879C115.081 122.239 115.037 121.628 115.015 121.282C116.023 121.399 117.002 121.583 117.959 121.775Z" fill="white"/>
<path d="M120.889 122.4C120.87 122.555 120.838 122.708 120.793 122.857C120.677 123.261 120.534 123.657 120.366 124.042C119.932 125.021 119.358 125.897 119.027 125.86C118.578 125.816 118.291 124.682 118.158 123.578C118.055 122.842 118.004 122.172 117.974 121.782C118.931 121.974 119.844 122.18 120.749 122.364C120.794 122.382 120.841 122.394 120.889 122.4Z" fill="white"/>
<path d="M123.56 122.806C123.422 123.312 123.237 123.805 123.008 124.278C122.589 125.175 122.073 125.941 121.764 125.911C121.455 125.882 121.117 125.043 120.962 124.116C120.881 123.689 120.829 123.232 120.793 122.828C120.793 122.651 120.793 122.489 120.749 122.334C120.795 122.34 120.842 122.34 120.888 122.334C121.77 122.54 122.662 122.697 123.56 122.806Z" fill="white"/>
<path d="M138.391 121.532C138.391 121.9 138.31 122.268 138.244 122.687C138.082 123.652 137.824 124.528 137.427 124.572C137.029 124.616 136.455 123.622 136.021 122.584C135.865 122.224 135.737 121.853 135.638 121.473C135.98 121.426 136.324 121.397 136.669 121.385C137.247 121.36 137.825 121.409 138.391 121.532Z" fill="white"/>
<path d="M135.145 121.539C135.145 121.856 135.079 122.216 135.027 122.592C134.88 123.718 134.608 124.895 134.137 124.954C133.776 124.991 133.121 123.931 132.665 122.842C132.561 122.601 132.47 122.356 132.393 122.106C133.401 121.87 134.299 121.672 135.145 121.539Z" fill="white"/>
<path d="M132.164 122.128C132.164 122.386 132.112 122.665 132.076 122.952C131.943 124.108 131.671 125.352 131.178 125.403C130.832 125.403 130.221 124.476 129.779 123.445C129.661 123.169 129.558 122.886 129.47 122.599C130.449 122.466 131.34 122.297 132.164 122.128Z" fill="white"/>
<path d="M129.198 122.636C129.198 122.938 129.132 123.269 129.095 123.607C128.94 124.704 128.668 125.815 128.219 125.859C127.888 125.859 127.336 125.05 126.902 124.086C126.723 123.692 126.573 123.286 126.453 122.871C127.446 122.834 128.352 122.761 129.198 122.636Z" fill="white"/>
<path d="M126.453 122.871C126.409 123.283 126.357 123.747 126.284 124.181C126.122 125.087 125.879 125.896 125.481 125.94C125.084 125.985 124.657 125.204 124.252 124.314C124.025 123.84 123.838 123.347 123.693 122.842C123.906 122.842 124.12 122.842 124.341 122.886C125.084 122.893 125.783 122.893 126.453 122.871Z" fill="white"/>
<path d="M110.334 121.289C110.798 121.23 111.247 121.193 111.696 121.171C111.608 121.604 111.48 122.028 111.313 122.437C110.548 122.547 109.796 122.734 109.068 122.997C108.987 122.54 108.921 122.062 108.877 121.62C109.349 121.457 109.838 121.346 110.334 121.289Z" fill="#FDDCC0"/>
<path d="M112.071 121.142C113.055 121.117 114.039 121.163 115.015 121.282C114.949 121.789 114.813 122.284 114.611 122.754C114.162 122.643 113.735 122.555 113.367 122.474C112.987 122.396 112.599 122.359 112.211 122.364C112.13 121.9 112.093 121.466 112.071 121.142Z" fill="#FDDCC0"/>
<path d="M115.015 121.289C116.023 121.407 117.002 121.591 117.959 121.782C117.865 122.35 117.7 122.904 117.466 123.431L115.155 122.886C115.081 122.239 115.037 121.628 115.015 121.289Z" fill="#FDDCC0"/>
<path d="M123.56 122.805C123.422 123.312 123.237 123.805 123.008 124.277H122.096C121.716 124.257 121.337 124.213 120.962 124.145C120.881 123.718 120.83 123.262 120.793 122.857C120.677 123.261 120.534 123.657 120.366 124.042C119.689 123.917 118.938 123.755 118.158 123.578C118.055 122.842 118.004 122.172 117.974 121.782C118.931 121.974 119.844 122.18 120.749 122.364C120.795 122.369 120.842 122.369 120.889 122.364C121.771 122.559 122.663 122.706 123.56 122.805Z" fill="#FDDCC0"/>
<path d="M126.453 122.871C126.409 123.283 126.357 123.747 126.284 124.181C125.61 124.27 124.932 124.314 124.252 124.314C124.025 123.84 123.838 123.347 123.693 122.842C123.906 122.842 124.12 122.842 124.341 122.886C125.084 122.893 125.783 122.893 126.453 122.871Z" fill="#FDDCC0"/>
<path d="M129.198 122.636C129.198 122.938 129.132 123.269 129.095 123.607L128.455 123.762C127.943 123.896 127.424 124.004 126.902 124.086C126.723 123.692 126.573 123.286 126.453 122.871C127.446 122.834 128.352 122.761 129.198 122.636Z" fill="#FDDCC0"/>
<path d="M129.47 122.599C130.449 122.466 131.34 122.297 132.164 122.128C132.164 122.386 132.112 122.665 132.076 122.952C131.406 123.077 130.604 123.232 129.779 123.445C129.661 123.169 129.558 122.886 129.47 122.599Z" fill="#FDDCC0"/>
<path d="M132.415 122.076C133.401 121.87 134.299 121.672 135.145 121.539C135.145 121.856 135.079 122.216 135.027 122.592C134.765 122.578 134.502 122.578 134.24 122.592C133.828 122.628 133.305 122.702 132.687 122.805C132.583 122.567 132.492 122.324 132.415 122.076Z" fill="#FDDCC0"/>
<path d="M138.391 121.532C138.391 121.9 138.31 122.268 138.244 122.687L138.119 122.629C138.119 122.629 137.081 122.629 136.021 122.584C135.865 122.224 135.737 121.853 135.638 121.473C135.98 121.426 136.324 121.397 136.669 121.385C137.247 121.36 137.825 121.409 138.391 121.532Z" fill="#FDDCC0"/>
<path d="M143.057 125.146C142.69 123.817 141.918 122.636 140.849 121.767C139.54 120.814 137.938 120.353 136.323 120.465C134.567 120.578 132.823 120.824 131.104 121.201C126.894 121.937 122.758 122.261 118.592 121.355C116.87 120.98 115.14 120.619 113.396 120.391C110.275 120.016 107.059 120.634 105.226 123.416C104.47 124.645 104.037 126.045 103.967 127.487C103.898 128.928 104.194 130.363 104.829 131.659C106.176 134.567 108.855 136.642 111.747 137.879C115.136 139.26 118.735 140.054 122.39 140.226C125.955 140.506 129.541 140.073 132.937 138.953C136.012 137.898 138.752 136.046 140.878 133.588C141.903 132.403 142.672 131.02 143.138 129.525C143.518 128.086 143.49 126.57 143.057 125.146ZM140.908 131.637C139.259 134.083 136.916 135.979 134.181 137.084C128.072 139.697 121.205 139.24 114.905 137.562C111.961 136.775 109.105 135.354 107.147 132.991C106.271 132.005 105.663 130.811 105.38 129.522C105.098 128.233 105.152 126.894 105.535 125.631C105.971 124.254 106.909 123.09 108.163 122.371C109.626 121.674 111.26 121.418 112.866 121.635C114.706 121.782 116.546 122.209 118.335 122.518C119.232 122.673 120.108 122.761 121.014 122.945C123.31 123.322 125.656 123.267 127.932 122.783C129.721 122.496 131.524 122.29 133.32 122.047C136.036 121.694 139.48 121.193 141.313 123.762C143.028 126.191 142.402 129.282 140.908 131.637Z" fill="#D6B200"/>
</svg>
