<svg width="72" height="62" viewBox="0 0 72 62" fill="none" xmlns="http://www.w3.org/2000/svg">
<path d="M25.6815 29.7024C25.2664 30.1254 24.7698 30.4628 24.2208 30.6949C23.6718 30.927 23.0813 31.0491 22.4838 31.0543C21.8863 31.0594 21.2937 30.9473 20.7407 30.7246C20.1877 30.502 19.6852 30.1731 19.2627 29.7573C18.8402 29.3415 18.5061 28.847 18.2798 28.3028C18.0535 27.7585 17.9397 27.1754 17.9449 26.5874C17.9501 25.9993 18.0742 25.4182 18.31 24.8779C18.5459 24.3376 18.8887 23.849 19.3185 23.4404L32.8185 10.1547C33.6624 9.32449 34.8068 8.85809 36 8.85809C37.1932 8.85809 38.3376 9.32449 39.1815 10.1547L52.6815 23.4404C53.5012 24.2757 53.9548 25.3943 53.9445 26.5555C53.9343 27.7166 53.461 28.8274 52.6267 29.6485C51.7924 30.4696 50.6637 30.9353 49.4838 30.9454C48.3039 30.9555 47.1672 30.5091 46.3185 29.7024L40.5 23.9763V48.7143H63C65.3869 48.7143 67.6761 47.7811 69.364 46.1201C71.0518 44.4591 72 42.2062 72 39.8571V8.85714C72 6.50808 71.0518 4.25523 69.364 2.5942C67.6761 0.933163 65.3869 0 63 0H9C6.61305 0 4.32387 0.933163 2.63604 2.5942C0.948211 4.25523 0 6.50808 0 8.85714V39.8571C0 42.2062 0.948211 44.4591 2.63604 46.1201C4.32387 47.7811 6.61305 48.7143 9 48.7143H31.5V23.9763L25.6815 29.7024ZM31.5 57.5714C31.5 58.746 31.9741 59.8724 32.818 60.7029C33.6619 61.5334 34.8065 62 36 62C37.1935 62 38.3381 61.5334 39.182 60.7029C40.0259 59.8724 40.5 58.746 40.5 57.5714V48.7143H31.5V57.5714Z" fill="#591B4C"/>
</svg>
