<svg width="25" height="27" viewBox="0 0 25 27" fill="none" xmlns="http://www.w3.org/2000/svg">
<path d="M22.4868 26.6666H16.4708C15.5476 26.6666 14.7996 25.9206 14.7996 25V19C14.7996 18.2633 14.2014 17.6666 13.4627 17.6666H10.7889C10.0503 17.6666 9.45204 18.2633 9.45204 19V25C9.45204 25.9206 8.70404 26.6666 7.78092 26.6666H1.76487C0.841745 26.6666 0.09375 25.9206 0.09375 25V12.2753C0.09375 10.7426 0.798296 9.29463 2.00485 8.34663L11.5048 0.880626C11.8692 0.595293 12.3825 0.595293 12.7462 0.880626L22.2475 8.34663C23.454 9.29463 24.1579 10.742 24.1579 12.274V25C24.1579 25.9206 23.4099 26.6666 22.4868 26.6666Z" fill="#591B4C"/>
</svg>
