<svg width="32" height="32" viewBox="0 0 32 32" fill="none" xmlns="http://www.w3.org/2000/svg">
<path fill-rule="evenodd" clip-rule="evenodd" d="M7.27467 31.9842C6.56103 31.9588 5.64126 31.903 5.22321 31.8186V31.8186C4.58507 31.6897 3.98243 31.4944 3.48127 31.2389V31.2389C2.89243 30.9388 2.36469 30.556 1.909 30.101V30.101C1.45227 29.6451 1.06786 29.1169 0.766571 28.5272V28.5272C0.511851 28.0287 0.316578 27.4297 0.187164 26.7952V26.7952C0.101088 26.373 0.044161 25.4463 0.0183548 24.7281V24.7281C0.0078898 24.4345 0.00252035 24.0546 0.00252035 23.8794V23.8794L0 8.12304C0 7.94853 0.00531466 7.56851 0.0157248 7.27461V7.27461C0.0410927 6.56102 0.096924 5.64126 0.181356 5.22321V5.22321C0.310168 4.58512 0.505605 3.98243 0.760982 3.48126V3.48126C1.06112 2.89238 1.44394 2.36475 1.89892 1.909V1.909C2.35478 1.45233 2.88307 1.06792 3.47272 0.76657V0.76657C3.97126 0.511905 4.57022 0.316578 5.20469 0.187163V0.187163C5.62696 0.101088 6.55363 0.0441609 7.27188 0.0184095V0.0184095C7.56534 0.0078898 7.94531 0.00252035 8.12053 0.00252035V0.00252035L23.8769 0C24.0515 0 24.4315 0.00525986 24.7253 0.0157248V0.0157248C25.4389 0.0411475 26.3587 0.0969239 26.7767 0.181356V0.181356C27.4149 0.310222 28.0176 0.505659 28.5187 0.760982V0.760982C29.1075 1.06112 29.6353 1.444 30.0909 1.89892V1.89892C30.5476 2.35483 30.932 2.88301 31.2334 3.47272V3.47272C31.488 3.97125 31.6834 4.57016 31.8128 5.20469V5.20469C31.8989 5.62696 31.9558 6.55368 31.9816 7.27187V7.27187C31.9921 7.56538 31.9974 7.9453 31.9974 8.12052V8.12052L32 23.8769C32 24.0514 31.9947 24.4315 31.9842 24.7253V24.7253C31.9588 25.4389 31.903 26.3587 31.8186 26.7767V26.7767C31.6898 27.4148 31.4943 28.0175 31.239 28.5187V28.5187C30.9389 29.1075 30.5559 29.6352 30.1011 30.091V30.091C29.6452 30.5476 29.1169 30.9321 28.5272 31.2333V31.2333C28.0287 31.4881 27.4298 31.6834 26.7953 31.8127V31.8127C26.373 31.8988 25.4463 31.9558 24.7281 31.9815V31.9815C24.4346 31.9921 24.0546 31.9974 23.8794 31.9974V31.9974L8.12305 31.9999C7.94848 31.9999 7.56846 31.9947 7.27467 31.9842" fill="url(#paint0_radial_117_1760)"/>
<mask id="mask0_117_1760" style="mask-type:alpha" maskUnits="userSpaceOnUse" x="0" y="0" width="32" height="32">
<path fill-rule="evenodd" clip-rule="evenodd" d="M7.27467 31.9842C6.56103 31.9588 5.64126 31.903 5.22321 31.8186V31.8186C4.58507 31.6897 3.98243 31.4944 3.48127 31.2389V31.2389C2.89243 30.9388 2.36469 30.556 1.909 30.101V30.101C1.45227 29.6451 1.06786 29.1169 0.766571 28.5272V28.5272C0.511851 28.0287 0.316578 27.4297 0.187164 26.7952V26.7952C0.101088 26.373 0.044161 25.4463 0.0183548 24.7281V24.7281C0.0078898 24.4345 0.00252035 24.0546 0.00252035 23.8794V23.8794L0 8.12304C0 7.94853 0.00531466 7.56851 0.0157248 7.27461V7.27461C0.0410927 6.56102 0.096924 5.64126 0.181356 5.22321V5.22321C0.310168 4.58512 0.505605 3.98243 0.760982 3.48126V3.48126C1.06112 2.89238 1.44394 2.36475 1.89892 1.909V1.909C2.35478 1.45233 2.88307 1.06792 3.47272 0.76657V0.76657C3.97126 0.511905 4.57022 0.316578 5.20469 0.187163V0.187163C5.62696 0.101088 6.55363 0.0441609 7.27188 0.0184095V0.0184095C7.56534 0.0078898 7.94531 0.00252035 8.12053 0.00252035V0.00252035L23.8769 0C24.0515 0 24.4315 0.00525986 24.7253 0.0157248V0.0157248C25.4389 0.0411475 26.3587 0.0969239 26.7767 0.181356V0.181356C27.4149 0.310222 28.0176 0.505659 28.5187 0.760982V0.760982C29.1075 1.06112 29.6353 1.444 30.0909 1.89892V1.89892C30.5476 2.35483 30.932 2.88301 31.2334 3.47272V3.47272C31.488 3.97125 31.6834 4.57016 31.8128 5.20469V5.20469C31.8989 5.62696 31.9558 6.55368 31.9816 7.27187V7.27187C31.9921 7.56538 31.9974 7.9453 31.9974 8.12052V8.12052L32 23.8769C32 24.0514 31.9947 24.4315 31.9842 24.7253V24.7253C31.9588 25.4389 31.903 26.3587 31.8186 26.7767V26.7767C31.6898 27.4148 31.4943 28.0175 31.239 28.5187V28.5187C30.9389 29.1075 30.5559 29.6352 30.1011 30.091V30.091C29.6452 30.5476 29.1169 30.9321 28.5272 31.2333V31.2333C28.0287 31.4881 27.4298 31.6834 26.7953 31.8127V31.8127C26.373 31.8988 25.4463 31.9558 24.7281 31.9815V31.9815C24.4346 31.9921 24.0546 31.9974 23.8794 31.9974V31.9974L8.12305 31.9999C7.94848 31.9999 7.56846 31.9947 7.27467 31.9842" fill="white"/>
</mask>
<g mask="url(#mask0_117_1760)">
<path fill-rule="evenodd" clip-rule="evenodd" d="M16.0644 4.11621C12.8497 4.11621 12.4463 4.13035 11.1837 4.18813C9.92354 4.24615 9.0634 4.44677 8.31077 4.74113C7.53225 5.04516 6.87185 5.45186 6.21392 6.11373C5.5555 6.77535 5.15107 7.43945 4.84775 8.22209C4.5543 8.97919 4.35455 9.84441 4.29783 11.1111C4.24136 12.3808 4.22656 12.7867 4.22656 16.0195C4.22656 19.2522 4.24087 19.6567 4.29808 20.9263C4.35603 22.1935 4.55553 23.0585 4.848 23.8154C5.15058 24.5982 5.555 25.2624 6.21318 25.924C6.87087 26.5861 7.53127 26.9938 8.30929 27.2978C9.06241 27.5922 9.9228 27.7928 11.1827 27.8508C12.4453 27.9086 12.8485 27.9227 16.0629 27.9227C19.2779 27.9227 19.6801 27.9086 20.9427 27.8508C22.2028 27.7928 23.0639 27.5922 23.8171 27.2978C24.5953 26.9938 25.2547 26.5861 25.9124 25.924C26.5709 25.2624 26.9753 24.5982 27.2786 23.8156C27.5696 23.0585 27.7693 22.1933 27.8285 20.9266C27.8852 19.6569 27.9 19.2522 27.9 16.0195C27.9 12.7867 27.8852 12.381 27.8285 11.1114C27.7693 9.84416 27.5696 8.97919 27.2786 8.22234C26.9753 7.43945 26.5709 6.77535 25.9124 6.11373C25.254 5.45161 24.5956 5.04491 23.8163 4.74113C23.0617 4.44677 22.2011 4.24615 20.9409 4.18813C19.6783 4.13035 19.2764 4.11621 16.0607 4.11621H16.0644ZM15.6737 6.26067H15.6738L16.0684 6.26079C19.2288 6.26079 19.6034 6.2722 20.8514 6.32923C22.0055 6.3823 22.6319 6.57622 23.0491 6.73915C23.6015 6.9549 23.9954 7.2128 24.4094 7.62941C24.8237 8.04603 25.0802 8.4428 25.2952 8.99829C25.4572 9.41738 25.6503 10.0473 25.7028 11.2078C25.7595 12.4626 25.7719 12.8396 25.7719 16.0162C25.7719 19.1929 25.7595 19.5698 25.7028 20.8246C25.6501 21.9852 25.4572 22.6151 25.2952 23.0342C25.0807 23.5897 24.8237 23.9852 24.4094 24.4016C23.9951 24.8182 23.6018 25.0761 23.0491 25.2918C22.6324 25.4555 22.0055 25.6489 20.8514 25.702C19.6036 25.759 19.2288 25.7714 16.0684 25.7714C12.9077 25.7714 12.5331 25.759 11.2853 25.702C10.1312 25.6484 9.50481 25.4545 9.08731 25.2916C8.53492 25.0758 8.14036 24.8179 7.72607 24.4013C7.31178 23.9847 7.05531 23.5889 6.84028 23.0332C6.67826 22.6141 6.48517 21.9842 6.43265 20.8237C6.37593 19.5689 6.36458 19.1919 6.36458 16.0133C6.36458 12.8346 6.37593 12.4596 6.43265 11.2048C6.48542 10.0443 6.67826 9.4144 6.84028 8.99481C7.05482 8.43933 7.31178 8.04255 7.72607 7.62594C8.14036 7.20933 8.53492 6.95142 9.08731 6.73518C9.50456 6.57151 10.1312 6.37808 11.2853 6.32477C12.3772 6.27517 12.8004 6.26029 15.0065 6.25781V6.26079C15.2126 6.26046 15.4343 6.26056 15.6736 6.26067H15.6737H15.6737ZM20.9622 9.66537C20.9622 8.87653 21.5985 8.23747 22.3827 8.23747V8.23698C23.1669 8.23698 23.8031 8.87678 23.8031 9.66537C23.8031 10.454 23.1669 11.0938 22.3827 11.0938C21.5985 11.0938 20.9622 10.454 20.9622 9.66537ZM16.0681 9.90625C12.7112 9.90638 9.98958 12.6433 9.98958 16.0191C9.98958 19.3949 12.7113 22.1306 16.0683 22.1306C19.4253 22.1306 22.146 19.3949 22.146 16.0191C22.146 12.6433 19.425 9.90625 16.0681 9.90625ZM20.0097 16.0198C20.0097 13.8284 18.2431 12.0521 16.0641 12.0521C13.8849 12.0521 12.1185 13.8284 12.1185 16.0198C12.1185 18.211 13.8849 19.9876 16.0641 19.9876C18.2431 19.9876 20.0097 18.211 20.0097 16.0198Z" fill="white"/>
</g>
<defs>
<radialGradient id="paint0_radial_117_1760" cx="0" cy="0" r="1" gradientUnits="userSpaceOnUse" gradientTransform="translate(8.50004 34.4646) rotate(-90) scale(31.7143)">
<stop stop-color="#FFDD55"/>
<stop offset="0.1" stop-color="#FFDD55"/>
<stop offset="0.5" stop-color="#FF543E"/>
<stop offset="1" stop-color="#C837AB"/>
</radialGradient>
</defs>
</svg>
