<svg width="40" height="40" viewBox="0 0 40 40" fill="none" xmlns="http://www.w3.org/2000/svg">
<g clip-path="url(#clip0_77_1095)">
<path d="M8.00031 12.0004C9.47278 12.0004 10.7295 11.4797 11.771 10.438C12.8128 9.39634 13.3337 8.13921 13.3337 6.66703C13.3337 5.19501 12.8128 3.93788 11.771 2.89608C10.7295 1.85443 9.4727 1.3335 8.00031 1.3335C6.52799 1.3335 5.27115 1.85443 4.2295 2.89608C3.18793 3.93788 2.66699 5.19471 2.66699 6.66703C2.66699 8.1395 3.18793 9.39634 4.2295 10.438C5.27115 11.4794 6.52799 12.0004 8.00031 12.0004Z" fill="#591B4C"/>
<path d="M14.3438 20.3238C15.9063 21.8858 17.7915 22.6672 20.0002 22.6672C22.2089 22.6672 24.094 21.8858 25.6564 20.3238C27.2187 18.7608 28 16.8754 28 14.6672C28 12.4588 27.2187 10.5735 25.6564 9.01087C24.094 7.44828 22.2089 6.66699 20.0002 6.66699C17.7915 6.66699 15.9062 7.44843 14.3438 9.01087C12.7814 10.5732 12 12.4586 12 14.6672C12 16.8757 12.7814 18.761 14.3438 20.3238Z" fill="#591B4C"/>
<path d="M32.0009 12.0004C33.4728 12.0004 34.7298 11.4797 35.7714 10.438C36.813 9.39634 37.3336 8.13921 37.3336 6.66703C37.3336 5.19501 36.813 3.93788 35.7714 2.89608C34.7299 1.85443 33.4728 1.3335 32.0009 1.3335C30.5281 1.3335 29.2713 1.85443 28.2297 2.89608C27.1883 3.93788 26.6675 5.19471 26.6675 6.66703C26.6675 8.1395 27.1884 9.39634 28.2297 10.438C29.2713 11.4794 30.5281 12.0004 32.0009 12.0004Z" fill="#591B4C"/>
<path d="M37.4164 12.0005C37.3335 12.0005 37.0314 12.1464 36.5105 12.438C35.9901 12.7298 35.3126 13.025 34.4795 13.3237C33.6465 13.622 32.8197 13.7714 32.0006 13.7714C31.0696 13.7714 30.1467 13.6118 29.2297 13.2922C29.2986 13.8058 29.3336 14.2643 29.3336 14.6671C29.3336 16.5977 28.771 18.3754 27.6455 20.0004C29.896 20.0701 31.7359 20.9588 33.167 22.6676H35.9586C37.0973 22.6676 38.0557 22.3858 38.8333 21.8234C39.6109 21.2613 40 20.438 40 19.3548C40.0002 14.4516 39.1395 12.0002 37.4164 12.0005Z" fill="#591B4C"/>
<path d="M34.3026 28.8444C34.1567 28.0318 33.9725 27.2782 33.7502 26.584C33.528 25.8892 33.2293 25.2126 32.8548 24.5528C32.4797 23.8936 32.0489 23.3307 31.5628 22.8652C31.0763 22.3997 30.4825 22.0287 29.7813 21.7505C29.0801 21.4728 28.3055 21.334 27.4584 21.334C27.3194 21.334 27.0209 21.4834 26.5625 21.782C26.104 22.0804 25.5976 22.4143 25.0417 22.7819C24.4861 23.1494 23.7437 23.483 22.8125 23.7817C21.8813 24.0804 20.9439 24.2297 19.9999 24.2297C19.0556 24.2297 18.118 24.0804 17.1874 23.7817C16.2566 23.483 15.5137 23.1494 14.9581 22.7819C14.4024 22.4143 13.8956 22.0804 13.4374 21.782C12.9789 21.4834 12.6804 21.334 12.5414 21.334C11.6943 21.334 10.92 21.4728 10.2185 21.7505C9.51705 22.0287 8.92336 22.3997 8.43731 22.8652C7.95081 23.3302 7.52065 23.8936 7.14537 24.5528C6.77052 25.2126 6.47193 25.8892 6.24966 26.584C6.02747 27.2782 5.84365 28.0318 5.69757 28.8444C5.55163 29.657 5.4545 30.4137 5.40591 31.1153C5.35723 31.8168 5.33301 32.5358 5.33301 33.2719C5.33301 34.9383 5.83979 36.2545 6.85363 37.2194C7.86785 38.1843 9.21517 38.6673 10.8954 38.6673H29.104C30.7844 38.6673 32.1315 38.1843 33.146 37.2194C34.1598 36.2545 34.6667 34.9383 34.6667 33.2719C34.6667 32.5358 34.6423 31.817 34.5943 31.1153C34.545 30.4137 34.4479 29.657 34.3026 28.8444Z" fill="#591B4C"/>
<path d="M12.3541 20.0004C11.229 18.3754 10.6666 16.5977 10.6669 14.6671C10.6669 14.2643 10.7017 13.8061 10.771 13.2922C9.85419 13.6116 8.9306 13.7714 8.00001 13.7714C7.18056 13.7714 6.35439 13.6221 5.52093 13.3237C4.68782 13.025 4.01052 12.7298 3.48987 12.438C2.96901 12.1464 2.6667 12.0005 2.58344 12.0005C0.861121 12.0006 0 14.452 0 19.3548C0 20.4379 0.388931 21.2613 1.16657 21.8233C1.94444 22.3857 2.90283 22.6671 4.04138 22.6671H6.83322C8.26395 20.9588 10.104 20.07 12.3541 20.0004Z" fill="#591B4C"/>
</g>
<defs>
<clipPath id="clip0_77_1095">
<rect width="40" height="40" fill="white"/>
</clipPath>
</defs>
</svg>
