<svg width="248" height="248" viewBox="0 0 248 248" fill="none" xmlns="http://www.w3.org/2000/svg">
<path d="M85.9834 248H112.822C114.3 240.712 114.441 184.159 114.3 171.993C114.241 163.892 114.049 157.823 114.049 157.823L105.305 153.906C105.305 153.906 105.135 158.821 103.893 169.546C103.154 175.666 102.127 223.549 100.545 233.623C100.308 235.168 100.049 236.757 99.8056 238.398C89.1987 241.717 85.9834 248 85.9834 248Z" fill="#591B4C"/>
<path d="M103.894 169.531C107.233 170.848 110.746 171.67 114.323 171.971C114.242 163.892 114.05 157.823 114.05 157.823L105.305 153.906C105.305 153.906 105.135 158.806 103.894 169.531Z" fill="#3D0E34"/>
<path d="M99.7832 238.391C99.7832 238.391 105.149 238.864 108.173 243.151C106.834 239.164 104.123 235.782 100.522 233.609C100.308 235.153 100.049 236.743 99.7832 238.391Z" fill="#3D0E34"/>
<path d="M156.751 248H129.905C128.426 240.712 128.286 184.159 128.426 171.993C128.508 163.914 128.7 157.831 128.7 157.831L137.444 153.913C137.444 153.913 137.614 158.828 138.856 169.554C139.595 175.674 140.622 223.556 142.204 233.631C142.445 235.178 142.692 236.77 142.943 238.406C153.528 241.717 156.751 248 156.751 248Z" fill="#591B4C"/>
<path d="M138.833 169.532C135.494 170.849 131.98 171.671 128.403 171.971C128.485 163.892 128.677 157.809 128.677 157.809L137.421 153.891C137.421 153.891 137.591 158.806 138.833 169.532Z" fill="#3D0E34"/>
<path d="M142.943 238.391C142.943 238.391 137.576 238.864 134.561 243.151C135.893 239.171 138.593 235.793 142.181 233.616C142.423 235.158 142.676 236.75 142.943 238.391Z" fill="#3D0E34"/>
<path d="M159.426 180.515C161.976 181.786 161.2 170.485 163.927 173.863C168.059 178.978 161.776 182.09 161.385 184.211C161.577 186.17 164.984 186.643 167.66 184.211C168.69 184.63 169.823 184.722 170.907 184.473C171.99 184.224 172.97 183.647 173.714 182.821C178.807 183.989 180.233 176.309 178.415 152.279C178.38 151.787 178.343 151.294 178.304 150.801C175.732 118.522 170.979 116.246 170.979 116.246C167.845 112.328 166.47 114.287 166.862 125.249C167.231 135.515 167.771 157.461 165.746 163.101C165.638 163.422 165.489 163.728 165.302 164.01C162.752 167.536 162.346 165.991 159.463 169.553C156.063 173.833 157.807 179.709 159.426 180.515Z" fill="#E0CC00"/>
<path d="M165.746 163.16C167.579 162.477 169.333 161.6 170.979 160.544C174.461 158.274 176.774 154.556 178.304 150.861C175.732 118.582 170.979 116.305 170.979 116.305C167.845 112.388 166.47 114.347 166.862 125.308C167.232 135.575 167.786 157.52 165.746 163.16Z" fill="#E2C100"/>
<path d="M161.909 184.477C162.323 184.602 162.745 184.696 163.173 184.758C163.646 184.851 164.136 184.797 164.578 184.603C165.438 184.212 166.223 183.674 166.899 183.014C167.568 182.356 168.084 181.56 168.413 180.682C168.741 179.803 168.872 178.863 168.798 177.928C168.798 177.633 169.264 177.566 169.316 177.854C169.545 179.016 169.517 180.214 169.232 181.364C168.947 182.514 168.413 183.586 167.667 184.507C166.857 185.526 165.678 186.185 164.385 186.34C163.781 186.414 163.168 186.333 162.604 186.103C162.339 185.995 162.106 185.82 161.93 185.594C161.754 185.368 161.64 185.101 161.599 184.817C161.579 184.773 161.573 184.723 161.58 184.675C161.588 184.627 161.61 184.582 161.643 184.546C161.676 184.51 161.719 184.484 161.766 184.472C161.813 184.46 161.863 184.461 161.909 184.477Z" fill="#E2C100"/>
<path d="M167.002 183.827C167.785 184.307 168.705 184.515 169.619 184.418C170.609 184.227 171.495 183.68 172.109 182.881C172.795 181.992 173.252 180.949 173.44 179.843C173.706 178.49 173.529 177.13 173.676 175.777C173.67 175.729 173.673 175.68 173.686 175.632C173.699 175.585 173.721 175.541 173.751 175.502C173.781 175.463 173.818 175.431 173.86 175.406C173.903 175.382 173.949 175.366 173.998 175.36C174.047 175.353 174.096 175.357 174.143 175.37C174.19 175.382 174.235 175.404 174.273 175.434C174.312 175.464 174.345 175.501 174.369 175.544C174.394 175.586 174.409 175.633 174.416 175.681C174.871 177.314 174.966 179.027 174.697 180.7C174.511 182.095 173.946 183.411 173.063 184.507C171.452 186.443 167.571 187.375 165.975 184.876C165.509 184.189 166.359 183.502 167.002 183.827Z" fill="#E2C100"/>
<path d="M92.1926 90.9521C91.1105 92.7746 89.5344 94.2533 87.6468 95.217C86.432 95.8618 85.0568 96.1421 83.6866 96.024C82.3163 95.906 81.0093 95.3948 79.9226 94.5518C79.9226 94.5518 74.6894 81.3579 77.2395 78.4235L77.3208 78.3348C80.0631 75.7773 93.427 88.6386 92.1926 90.9521Z" fill="#732B60"/>
<path d="M79.0878 83.043C79.0878 83.043 83.3306 90.6119 85.2819 92.8959C82.3253 94.9212 81.3718 94.5294 81.3718 94.5294C81.3718 94.5294 78.8365 87.9362 79.0878 83.043Z" fill="#914A82"/>
<path d="M92.1921 90.9521C91.11 92.7746 89.5339 94.2533 87.6463 95.217C84.7007 89.3006 81.2457 83.6519 77.3203 78.3348C80.0626 75.7773 93.4265 88.6386 92.1921 90.9521Z" fill="#591B4C"/>
<path d="M167.911 94.9952C166.812 95.6711 165.549 96.035 164.259 96.048C162.968 96.061 161.699 95.7227 160.586 95.0691C158.616 93.9034 157.05 92.1622 156.099 90.0799C155.22 87.7959 167.867 77.7951 171.592 78.7339C171.891 78.7981 172.155 78.9722 172.331 79.2217C174.549 82.4296 167.911 94.9952 167.911 94.9952Z" fill="#732B60"/>
<path d="M158.177 90.2645C160.367 86.5933 163.697 83.7383 167.66 82.1338C162.7 88.9192 161.045 91.4471 161.045 91.4471L158.177 90.2645Z" fill="#914A82"/>
<path d="M167.911 94.9953C166.812 95.6711 165.549 96.035 164.259 96.0481C162.968 96.0611 161.699 95.7227 160.586 95.0692C164.866 89.5107 169.648 81.9122 171.592 78.7339C171.891 78.7981 172.155 78.9722 172.331 79.2217C174.549 82.4297 167.911 94.9953 167.911 94.9953Z" fill="#591B4C"/>
<path d="M81.8368 92.6966C74.1939 97.2128 71.9247 101.049 71.1412 121.413C70.3577 141.776 71.6956 149.863 76.6183 155.606C81.5411 161.349 107.663 163.175 124.124 162.657C140.585 162.14 161.717 162.657 166.935 155.865C172.154 149.072 173.196 122.196 171.636 105.491C170.077 88.7864 157.851 89.0821 148.664 88.0029C133.26 86.1772 95.1563 84.8689 81.8368 92.6966Z" fill="#E0CC00"/>
<path d="M75.0667 133.335C75.0667 133.335 73.4997 149.39 81.719 155.65C89.9384 161.911 153.173 161.135 161.193 155.65C169.213 150.166 169.612 130.201 169.612 130.201C169.612 130.201 164.719 144.888 152.781 147.202C140.844 149.515 89.5467 150.897 85.0452 148.185C80.5438 145.472 75.2662 136.861 75.0667 133.335Z" fill="#E2C100"/>
<path d="M130.932 105.824C130.002 108.538 129.966 111.477 130.828 114.213C132.351 118.944 137.688 121.605 143.024 121.08C150.682 120.341 154.311 112.846 151.111 104.686C143.283 105.136 130.932 105.824 130.932 105.824Z" fill="#D6B200"/>
<path d="M150.785 110.229C150.401 114.879 147.577 118.005 143.231 118.619C138.885 119.232 135.374 118.005 132.787 114.184C130.2 110.363 131.567 105.499 131.567 105.499L132.484 105.44L134.524 105.344L147.289 104.605L148.767 104.523L150.12 104.442C150.12 104.442 151.162 105.58 150.785 110.229Z" fill="white"/>
<path d="M150.785 110.229C150.401 114.879 147.577 118.005 143.231 118.619C138.885 119.232 135.374 118.005 132.787 114.184C130.2 110.362 131.567 105.499 131.567 105.499L132.484 105.44C132.262 108.182 132.41 112.425 134.819 115.049C138.515 119.092 145.168 117.443 146.949 115.049C148.73 112.654 149.277 109.631 148.745 104.493L150.098 104.412C150.098 104.412 151.162 105.58 150.785 110.229Z" fill="#FDDCC0"/>
<path d="M140.762 113.031C141.966 113.55 143.2 113.994 144.458 114.361C144.14 115.1 142.322 116.091 140.991 116.18C140.122 116.218 139.265 115.963 138.558 115.457C137.85 114.95 137.333 114.221 137.089 113.386C136.718 112.234 136.763 110.989 137.214 109.867L144.606 109.438C144.91 110.262 145.087 111.127 145.131 112.003C145.205 112.144 140.762 113.031 140.762 113.031Z" fill="#591B4C"/>
<path d="M129.017 100.909C128.87 101.337 129.247 106.083 129.875 106.393C135.877 106.112 152.633 105.255 152.692 104.567C152.752 103.88 130.961 104.567 131.02 104.338C131.08 104.109 129.247 100.169 129.017 100.909Z" fill="#D6B200"/>
<path d="M114.567 105.136C114.567 105.136 118.462 112.602 111.61 118.441C106.126 123.083 96.295 120.806 93.7154 115.691C91.1357 110.577 93.7745 103.51 93.7745 103.51L114.567 105.136Z" fill="#D6B200"/>
<path d="M112.615 113.873C110.02 117.687 106.517 118.907 102.163 118.308C97.8096 117.709 95.0008 114.561 94.6091 109.911C94.2173 105.262 95.2965 104.109 95.2965 104.109L97.0335 104.212L98.0979 104.271L98.9997 104.331L110.745 105.003H110.87L112.474 105.092L113.842 105.166C113.842 105.166 115.209 110.066 112.615 113.873Z" fill="white"/>
<path d="M112.615 113.873C110.02 117.687 106.517 118.907 102.163 118.308C97.8096 117.709 95.0008 114.561 94.6091 109.911C94.2173 105.262 95.2965 104.109 95.2965 104.109L97.0335 104.212C96.0874 107.339 95.23 114.893 101.18 116.963C108.394 119.468 114.544 112.934 112.467 105.136L113.834 105.21C113.834 105.21 115.209 110.066 112.615 113.873Z" fill="#FDDCC0"/>
<path d="M104.566 113.703C105.886 114.18 107.258 114.5 108.653 114.657C108.292 115.334 107.779 115.918 107.155 116.365C106.53 116.811 105.811 117.107 105.054 117.229C103.657 117.451 101.358 116.86 100.574 113.999C100.141 112.482 100.281 110.859 100.966 109.438L108.498 109.875C108.71 110.813 108.745 111.783 108.602 112.735L104.566 113.703Z" fill="#591B4C"/>
<path d="M116.141 105.905C117.435 104.146 117.132 99.726 116.518 99.4968C115.905 99.2677 114.079 103.991 114.079 103.991C114.079 103.991 90.1306 102.468 91.0471 103.917C91.4167 104.501 114.914 106.282 116.141 105.905Z" fill="#D6B200"/>
<path d="M141.073 132.241C140.395 134.589 138.907 136.621 136.874 137.977C136.17 138.455 135.429 138.875 134.657 139.233L134.524 139.293C133.804 139.627 133.063 139.916 132.307 140.157C131.567 140.394 130.776 140.593 129.978 140.763H129.86C129.121 140.919 128.337 141.044 127.554 141.148H127.472C126.733 141.237 125.994 141.31 125.255 141.355H125.018C124.353 141.399 123.681 141.421 123.001 141.429H122.446C121.862 141.429 121.286 141.429 120.724 141.392H120.48C119.741 141.355 119.002 141.303 118.263 141.229H118.181C117.376 141.14 116.6 141.03 115.86 140.897H115.727C114.937 140.752 114.155 140.567 113.384 140.342H113.318C112.564 140.116 111.824 139.847 111.1 139.536L110.871 139.463C110.076 139.114 109.312 138.699 108.587 138.221C107.193 137.314 105.994 136.138 105.061 134.762C102.371 130.726 103.243 125.382 107.493 123.889C107.973 123.724 108.468 123.61 108.971 123.549C109.437 123.489 109.888 123.452 110.339 123.438H110.716C111.703 123.412 112.692 123.458 113.672 123.578C114.685 123.696 115.668 123.874 116.629 124.066C117.575 124.266 118.499 124.473 119.408 124.657H119.549C120.433 124.84 121.326 124.978 122.224 125.071H122.365C122.579 125.071 122.801 125.071 123.015 125.116C123.755 125.116 124.494 125.116 125.137 125.116C126.127 125.079 127.044 124.997 127.894 124.886H128.167C129.15 124.746 130.045 124.576 130.873 124.406L131.124 124.354C132.114 124.155 133.016 123.955 133.859 123.815L134.339 123.748C134.68 123.701 135.023 123.672 135.367 123.659C135.949 123.638 136.533 123.687 137.104 123.807C139.809 124.376 142.655 126.623 141.073 132.241Z" fill="#732B60"/>
<path d="M118.085 132.818C117.925 131.64 118.063 130.441 118.485 129.329C119.054 127.437 120.658 126.986 121.515 128.013C122.372 129.041 121.574 131.842 123.119 131.79C124.664 131.739 125.115 131.214 124.915 129.957C124.716 128.701 123.769 128.302 124.915 127.326C126.061 126.35 131.265 129.041 129.151 133.106C127.037 137.172 119.224 137.046 118.085 132.818Z" fill="#591B4C"/>
<path d="M123.001 134.037C120.835 133.853 119.416 131.635 115.188 131.864C111.152 132.079 109.918 134.614 110.494 137.09C111.603 138.879 115.757 140.897 123.341 140.668C130.924 140.438 133.948 138.494 135.012 137.319C136.076 136.144 135.478 132.433 132.684 131.938C127.96 131.103 127.133 134.377 123.001 134.037Z" fill="#C1472A"/>
<path d="M132.35 133.875C130.791 133.136 129.039 133.934 127.716 134.814C127.046 135.306 126.328 135.73 125.572 136.077C124.801 136.373 123.948 136.373 123.177 136.077C121.47 135.508 119.992 134.451 118.262 133.934C116.739 133.476 115.032 133.365 113.672 134.318C113.561 134.392 113.628 134.607 113.768 134.555C115.446 133.904 117.094 134.769 118.395 135.811C119.696 136.854 121.278 138.029 123.044 138.214C123.866 138.299 124.696 138.212 125.481 137.957C126.267 137.703 126.99 137.286 127.605 136.735C128.884 135.723 130.17 134.444 131.936 134.836C132.505 134.976 132.927 134.17 132.35 133.875Z" fill="#F26F4B"/>
<path d="M113.628 123.357V123.283C113.632 123.307 113.632 123.332 113.628 123.357Z" fill="white"/>
<path d="M113.62 123.283C113.624 123.307 113.624 123.332 113.62 123.357V123.283Z" fill="white"/>
<path d="M136.616 137.969C135.914 138.453 135.172 138.876 134.398 139.233L134.272 139.293C133.606 139.596 132.922 139.86 132.225 140.083V140.157C132.229 140.199 132.229 140.241 132.225 140.283C132.222 140.244 132.222 140.204 132.225 140.165L132.055 140.209V140.283C132.055 140.283 132.055 140.239 132.055 140.209C131.35 140.433 130.635 140.62 129.911 140.771H129.793C129.054 140.919 128.315 141.044 127.576 141.148H127.428C126.777 141.244 126.112 141.296 125.44 141.347H125.203C124.53 141.392 123.865 141.414 123.185 141.421H122.623C122.039 141.421 121.47 141.421 120.909 141.384H120.657C119.918 141.347 119.179 141.296 118.44 141.222H118.344C117.545 141.133 116.769 141.03 116.03 140.889H115.89C115.105 140.744 114.327 140.559 113.561 140.335H113.487C112.733 140.111 111.992 139.842 111.27 139.529L111.048 139.44C110.253 139.084 109.487 138.666 108.757 138.191C108.757 137.896 108.757 137.563 108.801 137.223C108.882 136.159 109.134 135.005 109.762 134.961C110.39 134.917 110.908 136.181 111.166 137.541C111.292 136.713 111.543 135.981 112.046 135.929C112.711 135.863 113.354 137.533 113.524 139.071C113.606 137.969 113.85 136.742 114.493 136.676C115.136 136.609 115.705 138.043 115.971 139.477C116.052 138.406 116.289 137.26 116.932 137.186C117.575 137.112 118.196 138.664 118.41 140.187C118.41 140.187 118.41 140.231 118.41 140.261V140.187C118.477 139.063 118.713 137.77 119.386 137.703C119.933 137.652 120.45 138.753 120.724 140.002C120.827 139.004 121.079 137.992 121.677 137.932C122.276 137.873 122.793 139.1 123.059 140.431C123.244 139.241 123.651 138.213 124.176 138.213C124.7 138.213 124.974 138.893 125.173 139.692C125.373 138.642 125.757 137.785 126.23 137.792C127.324 137.792 127.287 138.864 127.391 139.899C127.509 138.479 127.953 137.053 128.574 137.068C129.194 137.082 129.549 138.199 129.727 139.285C129.837 137.807 130.288 136.329 130.917 136.329C131.545 136.329 131.774 137.112 131.966 137.992C132.12 137.038 132.512 136.138 133.105 135.375C133.607 135.375 133.925 136.114 134.132 136.898C134.265 135.515 134.701 134.192 135.292 134.207C136.253 134.207 136.512 135.294 136.593 136.321C136.623 136.986 136.593 137.607 136.616 137.969Z" fill="white"/>
<path d="M136.616 137.97C135.914 138.453 135.172 138.876 134.398 139.234L134.272 139.293C133.606 139.596 132.922 139.86 132.225 140.084V140.157C132.229 140.199 132.229 140.241 132.225 140.283C132.222 140.244 132.222 140.204 132.225 140.165L132.055 140.209V140.283C132.055 140.283 132.055 140.239 132.055 140.209C131.35 140.433 130.635 140.62 129.911 140.771H129.793C129.054 140.919 128.315 141.044 127.576 141.148H127.428C126.777 141.244 126.112 141.296 125.44 141.348H125.203C124.53 141.392 123.865 141.414 123.185 141.421H122.623C122.039 141.421 121.47 141.421 120.909 141.384H120.657C119.918 141.348 119.179 141.296 118.44 141.222H118.344C117.545 141.133 116.769 141.03 116.03 140.889H115.89C115.105 140.744 114.327 140.559 113.561 140.335H113.487C112.733 140.111 111.992 139.842 111.27 139.529L111.048 139.441C110.253 139.084 109.487 138.666 108.757 138.191C108.757 137.896 108.757 137.563 108.801 137.223C109.645 137.774 110.56 138.207 111.521 138.509C113.757 139.267 116.055 139.829 118.388 140.187C123.178 140.926 129.653 140.076 133.666 138.117C134.842 137.541 135.729 136.824 136.571 136.321C136.623 136.987 136.593 137.607 136.616 137.97Z" fill="#FDDCC0"/>
<path d="M110.294 123.431C110.211 123.868 110.085 124.297 109.917 124.709C109.474 125.818 108.801 126.927 108.439 126.868C108.077 126.809 107.825 126.129 107.663 125.264C107.582 124.805 107.515 124.325 107.471 123.889C107.951 123.725 108.446 123.611 108.949 123.549C109.393 123.497 109.851 123.46 110.294 123.431Z" fill="white"/>
<path d="M113.613 123.564C113.554 124.073 113.42 124.572 113.214 125.042C112.778 126.173 112.083 127.304 111.736 127.259C111.233 127.193 110.997 125.848 110.819 124.65C110.76 124.192 110.723 123.756 110.701 123.431C111.674 123.408 112.647 123.452 113.613 123.564Z" fill="white"/>
<path d="M116.592 124.059C116.494 124.631 116.328 125.189 116.097 125.722C115.661 126.764 115.033 127.74 114.685 127.71C114.19 127.651 113.946 126.35 113.769 125.175C113.702 124.524 113.651 123.911 113.636 123.563C114.648 123.682 115.631 123.867 116.592 124.059Z" fill="white"/>
<path d="M119.534 124.687C119.516 124.843 119.483 124.996 119.438 125.146C119.32 125.552 119.174 125.949 119.002 126.336C118.558 127.326 117.989 128.198 117.657 128.161C117.206 128.117 116.917 126.979 116.784 125.877C116.681 125.138 116.629 124.458 116.6 124.066C117.561 124.259 118.477 124.473 119.379 124.65L119.534 124.687Z" fill="white"/>
<path d="M122.217 125.101C122.079 125.61 121.894 126.105 121.662 126.579C121.219 127.518 120.716 128.257 120.413 128.257C120.11 128.257 119.741 127.37 119.607 126.439C119.527 126.011 119.47 125.579 119.437 125.145C119.437 124.968 119.437 124.805 119.386 124.65L119.534 124.687C120.42 124.874 121.315 125.012 122.217 125.101Z" fill="white"/>
<path d="M137.089 123.822C137.089 124.192 137.007 124.561 136.941 124.99C136.778 125.951 136.52 126.831 136.12 126.875C135.721 126.919 135.145 125.929 134.709 124.879C134.552 124.517 134.424 124.144 134.324 123.763C134.665 123.716 135.008 123.686 135.352 123.674C135.935 123.653 136.518 123.702 137.089 123.822Z" fill="white"/>
<path d="M133.851 123.822C133.851 124.14 133.785 124.51 133.733 124.879C133.585 126.01 133.312 127.193 132.839 127.252C132.477 127.252 131.819 126.232 131.36 125.138C131.253 124.885 131.162 124.626 131.087 124.362C132.1 124.162 133.001 123.955 133.851 123.822Z" fill="white"/>
<path d="M130.828 124.414C130.828 124.672 130.777 124.953 130.74 125.241C130.599 126.402 130.326 127.651 129.838 127.71C129.49 127.71 128.877 126.779 128.433 125.737C128.315 125.459 128.211 125.175 128.123 124.887C129.136 124.754 130.03 124.561 130.828 124.414Z" fill="white"/>
<path d="M127.871 124.924C127.871 125.227 127.805 125.567 127.768 125.9C127.613 127.008 127.339 128.117 126.888 128.161C126.556 128.161 126.001 127.348 125.565 126.387C125.387 125.989 125.237 125.579 125.114 125.16C126.12 125.123 127.029 125.035 127.871 124.924Z" fill="white"/>
<path d="M125.122 125.16C125.078 125.574 125.026 126.04 124.952 126.476C124.79 127.385 124.538 128.198 124.147 128.242C123.755 128.287 123.319 127.503 122.912 126.609C122.677 126.136 122.488 125.641 122.351 125.13C122.565 125.13 122.779 125.13 123.001 125.175C123.748 125.182 124.45 125.182 125.122 125.16Z" fill="white"/>
<path d="M108.927 123.549C109.392 123.497 109.851 123.46 110.294 123.431C110.211 123.868 110.085 124.297 109.917 124.709C109.149 124.817 108.394 125.003 107.663 125.264C107.582 124.805 107.515 124.325 107.471 123.889C107.943 123.727 108.431 123.613 108.927 123.549Z" fill="#FDDCC0"/>
<path d="M110.679 123.423C111.666 123.401 112.654 123.448 113.635 123.563C113.576 124.073 113.442 124.571 113.236 125.042C112.785 124.931 112.357 124.842 111.987 124.761C111.603 124.682 111.211 124.645 110.819 124.65C110.738 124.184 110.701 123.748 110.679 123.423Z" fill="#FDDCC0"/>
<path d="M113.636 123.563C114.648 123.682 115.631 123.867 116.592 124.059C116.494 124.631 116.328 125.189 116.097 125.722C115.306 125.53 114.508 125.337 113.769 125.175C113.702 124.561 113.651 123.911 113.636 123.563Z" fill="#FDDCC0"/>
<path d="M122.217 125.101C122.08 125.611 121.894 126.106 121.663 126.58H120.746C120.365 126.554 119.985 126.507 119.608 126.439C119.527 126.011 119.471 125.58 119.438 125.146C119.32 125.552 119.174 125.949 119.002 126.336C118.322 126.21 117.568 126.047 116.784 125.877C116.681 125.138 116.629 124.458 116.6 124.066C117.561 124.259 118.477 124.473 119.379 124.65L119.527 124.687C120.415 124.874 121.313 125.012 122.217 125.101Z" fill="#FDDCC0"/>
<path d="M125.122 125.16C125.078 125.574 125.026 126.04 124.952 126.476C124.276 126.568 123.595 126.612 122.912 126.609C122.677 126.136 122.488 125.641 122.351 125.13C122.565 125.13 122.779 125.13 123.001 125.175C123.748 125.182 124.45 125.182 125.122 125.16Z" fill="#FDDCC0"/>
<path d="M127.872 124.924C127.872 125.227 127.805 125.567 127.768 125.9L127.133 126.04C126.586 126.188 126.061 126.291 125.573 126.373C125.395 125.974 125.244 125.564 125.122 125.146C126.12 125.123 127.029 125.035 127.872 124.924Z" fill="#FDDCC0"/>
<path d="M128.152 124.887C129.135 124.754 130.03 124.591 130.858 124.414C130.858 124.672 130.806 124.953 130.769 125.241C130.096 125.374 129.291 125.53 128.463 125.737C128.344 125.459 128.241 125.175 128.152 124.887Z" fill="#FDDCC0"/>
<path d="M131.108 124.362C132.099 124.162 133.001 123.955 133.851 123.822C133.851 124.14 133.784 124.51 133.732 124.879C133.429 124.879 133.156 124.879 132.934 124.879C132.528 124.916 131.995 124.99 131.382 125.101C131.276 124.86 131.185 124.613 131.108 124.362Z" fill="#FDDCC0"/>
<path d="M137.089 123.822C137.089 124.192 137.007 124.561 136.941 124.99L136.815 124.924C136.815 124.924 135.773 124.924 134.709 124.879C134.552 124.517 134.424 124.144 134.324 123.763C134.665 123.716 135.008 123.686 135.352 123.674C135.935 123.653 136.518 123.702 137.089 123.822Z" fill="#FDDCC0"/>
<path d="M141.79 127.444C141.424 126.111 140.648 124.927 139.572 124.059C138.261 123.095 136.649 122.631 135.026 122.75C133.263 122.864 131.511 123.111 129.786 123.49C125.558 124.229 121.404 124.554 117.22 123.645C115.498 123.268 113.761 122.906 112.046 122.677C108.912 122.3 105.682 122.928 103.842 125.722C103.082 126.955 102.647 128.36 102.577 129.806C102.508 131.252 102.805 132.693 103.442 133.993C104.795 136.95 107.486 138.997 110.391 140.246C113.795 141.628 117.409 142.423 121.079 142.597C124.677 142.876 128.295 142.436 131.722 141.303C134.808 140.242 137.557 138.383 139.691 135.915C140.703 134.721 141.461 133.333 141.915 131.835C142.284 130.388 142.241 128.867 141.79 127.444ZM139.639 133.963C137.983 136.419 135.63 138.324 132.883 139.433C126.748 142.057 119.852 141.606 113.525 139.914C110.568 139.123 107.7 137.696 105.734 135.323C104.853 134.334 104.241 133.134 103.957 131.839C103.674 130.545 103.728 129.199 104.115 127.932C104.55 126.545 105.492 125.373 106.754 124.65C108.224 123.954 109.864 123.697 111.477 123.911C113.325 124.059 115.173 124.487 116.962 124.805C117.863 124.953 118.75 125.042 119.659 125.227C121.965 125.605 124.322 125.55 126.608 125.064C128.404 124.783 130.215 124.569 132.011 124.325C134.746 123.97 138.205 123.467 140.045 126.047C141.768 128.494 141.176 131.606 139.639 133.963Z" fill="#D6B200"/>
<path d="M98.0682 156.426C98.0411 155.238 98.216 154.053 98.5856 152.923C99.8421 148.68 104.159 148.71 105.297 149.966C107.093 151.969 99.8126 154.275 102.976 155.879" fill="#E0CC00"/>
<path d="M145.101 179.503H105.438L99.1924 120.829H151.155L145.101 179.503Z" fill="#20263F"/>
<path d="M148.76 120.821H100.929L93.3975 87.3892H156.055L148.76 120.821Z" fill="url(#paint0_linear_42_2515)"/>
<path d="M68 175.563C70.5796 132.278 74.6524 116.933 74.6524 116.933C77.7864 111.685 79.1538 114.309 78.7621 129.004C78.3999 142.759 80.2034 170.544 82.2287 178.098" fill="#E2C100"/>
<path d="M102.933 155.864C107.73 158.296 107.153 151.696 108.329 150.757C109.615 150.417 111.285 153.418 110.834 156.515C111.499 157.333 111.98 158.284 112.247 159.304C112.513 160.324 112.558 161.389 112.379 162.428C115.129 166.782 110.945 170.145 95.3786 174.898L94.4251 175.186C73.4923 181.476 70.2179 177.714 70.2179 177.714C66.5221 175.888 67.2021 174.085 74.1206 171.534C80.6104 169.132 94.366 163.759 97.0343 160.395C97.1972 160.198 97.327 159.976 97.4187 159.738C97.8366 158.68 98.0376 157.549 98.01 156.411" fill="#E0CC00"/>
<path d="M108.254 151.363C108.523 151.694 108.77 152.042 108.994 152.405C109.263 152.808 109.407 153.281 109.408 153.765C109.388 154.711 109.202 155.647 108.861 156.53C108.524 157.405 108.001 158.197 107.326 158.849C106.652 159.502 105.844 159.999 104.958 160.307C104.677 160.395 104.81 160.883 105.098 160.809C106.257 160.556 107.347 160.052 108.29 159.334C109.234 158.615 110.009 157.698 110.561 156.648C111.181 155.5 111.322 154.152 110.952 152.9C110.78 152.318 110.462 151.788 110.028 151.363C109.822 151.162 109.567 151.019 109.288 150.948C109.009 150.877 108.717 150.88 108.439 150.956C108.393 150.959 108.349 150.974 108.311 151C108.272 151.025 108.242 151.061 108.223 151.103C108.204 151.145 108.197 151.192 108.202 151.238C108.208 151.283 108.226 151.327 108.254 151.363Z" fill="#E2C100"/>
<path d="M109.673 156.301C110.493 156.823 111.073 157.648 111.289 158.595C111.505 159.543 111.339 160.538 110.826 161.364C110.276 162.349 109.495 163.186 108.55 163.803C107.404 164.586 106.081 164.963 104.854 165.643C104.77 165.676 104.701 165.738 104.661 165.818C104.62 165.899 104.611 165.991 104.635 166.078C104.659 166.165 104.715 166.239 104.79 166.287C104.866 166.335 104.958 166.354 105.046 166.338C106.739 166.104 108.363 165.509 109.806 164.594C111.018 163.863 112.007 162.815 112.667 161.563C113.827 159.346 113.14 155.384 110.198 154.911C110.032 154.9 109.867 154.942 109.727 155.033C109.587 155.123 109.479 155.255 109.42 155.411C109.362 155.567 109.354 155.737 109.4 155.898C109.445 156.058 109.541 156.199 109.673 156.301Z" fill="#E2C100"/>
<defs>
<linearGradient id="paint0_linear_42_2515" x1="124.723" y1="120.821" x2="124.723" y2="87.3892" gradientUnits="userSpaceOnUse">
<stop stop-color="white" stop-opacity="0.7"/>
<stop offset="0.64" stop-color="white" stop-opacity="0"/>
</linearGradient>
</defs>
</svg>
