<svg width="248" height="248" viewBox="0 0 248 248" fill="none" xmlns="http://www.w3.org/2000/svg">
<path d="M87.3174 248C87.3174 248 94.68 248 114.159 248C115.633 240.708 115.779 184.148 115.66 171.984C115.581 163.902 115.386 157.818 115.386 157.818L106.643 153.902C106.643 153.902 106.475 158.815 105.232 169.544C104.522 175.666 103.463 223.55 101.884 233.628C101.643 235.172 101.388 236.765 101.122 238.407C90.5382 241.735 87.3174 248 87.3174 248Z" fill="#521946"/>
<path d="M105.232 169.544C107.845 170.584 111.362 171.605 115.659 171.984C115.581 163.902 115.385 157.818 115.385 157.818L106.642 153.902C106.642 153.902 106.475 158.815 105.232 169.544Z" fill="#36152D"/>
<path d="M101.122 238.407C101.122 238.407 106.488 238.877 109.508 243.161C108.217 238.819 104.549 235.106 101.884 233.628C101.643 235.172 101.388 236.765 101.122 238.407Z" fill="#36152D"/>
<path d="M158.089 248C158.089 248 150.726 248 131.247 248C129.773 240.708 129.627 184.148 129.746 171.984C129.824 163.902 130.02 157.818 130.02 157.818L138.763 153.902C138.763 153.902 138.931 158.815 140.173 169.544C140.884 175.666 141.942 223.55 143.521 233.628C143.764 235.172 144.017 236.765 144.284 238.407C154.868 241.735 158.089 248 158.089 248Z" fill="#521946"/>
<path d="M140.173 169.544C137.56 170.584 134.044 171.605 129.746 171.984C129.824 163.902 130.02 157.818 130.02 157.818L138.763 153.902C138.763 153.902 138.931 158.815 140.173 169.544Z" fill="#36152D"/>
<path d="M144.284 238.407C144.284 238.407 138.918 238.877 135.898 243.161C137.188 238.819 140.856 235.106 143.522 233.628C143.764 235.172 144.017 236.765 144.284 238.407Z" fill="#36152D"/>
<path d="M167.089 163.169C168.9 162.485 170.678 161.629 172.32 160.559C175.806 158.285 178.119 154.571 179.645 150.875C177.072 118.593 172.32 116.312 172.32 116.312C169.187 112.396 167.816 114.354 168.208 125.318C168.575 135.585 169.114 157.532 167.089 163.169Z" fill="#DAC011"/>
<path d="M93.5321 90.9607C92.9 92.1464 91.2264 94.1098 88.9807 95.2216C86.8 96.3031 84.0819 96.5795 81.2543 94.5615C81.2543 94.5615 76.0221 81.3627 78.5739 78.425C78.5991 78.3954 78.6272 78.3666 78.656 78.3415C81.4007 75.7542 94.7658 88.647 93.5321 90.9607Z" fill="#6C225D"/>
<path d="M80.4349 83.0464C80.4349 83.0464 84.6766 90.6168 86.634 92.901C83.6978 94.9243 82.7184 94.5325 82.7184 94.5325C82.7184 94.5325 80.1732 87.9408 80.4349 83.0464Z" fill="#8C3985"/>
<path d="M93.5318 90.9606C92.8998 92.1463 91.2262 94.1096 88.9805 95.2214C85.6517 88.5707 81.3813 81.826 78.6558 78.3413C81.4005 75.7541 94.7656 88.6468 93.5318 90.9606Z" fill="#521946"/>
<path d="M169.252 94.9886C166.427 96.5698 163.913 96.1795 161.925 95.0574C159.585 93.7349 157.974 91.3975 157.442 90.0676C156.535 87.8004 169.211 77.7995 172.937 78.7509C173.254 78.8307 173.507 78.9911 173.68 79.2417C175.895 82.4411 169.252 94.9886 169.252 94.9886Z" fill="#6C225D"/>
<path d="M159.49 90.2688C159.576 89.9207 162.709 84.7003 168.974 82.1766C164.015 88.9641 162.361 91.4871 162.361 91.4871L159.49 90.2688Z" fill="#8C3985"/>
<path d="M169.252 94.9886C166.427 96.5698 163.913 96.1795 161.925 95.0574C166.212 89.5169 170.99 81.9155 172.937 78.7509C173.255 78.8307 173.507 78.9911 173.68 79.2417C175.895 82.4411 169.252 94.9886 169.252 94.9886Z" fill="#521946"/>
<path d="M83.176 92.7052C75.5258 97.2056 73.2556 101.059 72.4728 121.421C71.6892 141.783 72.9947 149.875 77.9549 155.618C82.9143 161.361 109.02 163.188 125.465 162.667C141.912 162.145 163.057 162.667 168.278 155.879C173.498 149.092 174.543 122.204 172.977 105.497C171.41 88.7896 159.192 89.0963 150.004 88.0067C134.602 86.1794 96.4893 84.8739 83.176 92.7052Z" fill="#D6CC10"/>
<path d="M76.4034 133.345C76.4034 133.345 74.837 149.399 83.0593 155.664C91.2824 161.929 154.518 161.145 162.546 155.664C170.572 150.182 170.964 130.212 170.964 130.212C170.964 130.212 166.069 144.896 154.127 147.246C142.184 149.595 90.8907 150.965 86.3881 148.224C81.8855 145.483 76.5993 136.869 76.4034 133.345Z" fill="#DAC011"/>
<path d="M132.272 105.828C132.272 105.828 130.735 109.689 132.195 114.217C133.721 118.946 139.059 121.615 144.398 121.081C152.051 120.316 155.686 112.844 152.483 104.684C144.627 105.142 132.272 105.828 132.272 105.828Z" fill="#CFB015"/>
<path d="M152.133 110.235C151.749 114.886 148.922 118.014 144.582 118.624C140.232 119.235 136.722 118.014 134.132 114.202C131.534 110.39 132.91 105.502 132.91 105.502L133.822 105.448L135.874 105.338L148.64 104.6L150.09 104.517L151.439 104.435C151.439 104.435 152.507 105.585 152.133 110.235Z" fill="white"/>
<path d="M152.133 110.235C151.749 114.886 148.922 118.014 144.582 118.624C140.232 119.235 136.722 118.014 134.132 114.202C131.534 110.39 132.91 105.502 132.91 105.502L133.822 105.448C133.604 108.192 133.749 112.433 136.157 115.068C139.868 119.117 146.534 117.466 148.294 115.068C150.035 112.716 150.619 109.652 150.09 104.517L151.439 104.435C151.439 104.435 152.507 105.585 152.133 110.235Z" fill="#FCD7B8"/>
<path d="M141.909 110.766C141.909 110.766 145.036 112.139 148.316 113.054C147.781 114.275 144.655 116.029 142.366 116.183C140.078 116.334 136.952 115.114 135.655 111.378C134.79 108.884 135.385 106.626 135.878 105.334L148.643 104.598C149.401 106.406 149.536 108.837 149.536 109.012C149.536 109.241 141.909 110.766 141.909 110.766Z" fill="#521946"/>
<path d="M130.355 100.89C130.21 101.324 130.584 106.038 131.213 106.381C137.218 106.096 153.978 105.238 154.035 104.551C154.092 103.864 132.299 104.551 132.356 104.323C132.413 104.093 130.584 100.204 130.355 100.89Z" fill="#CFB015"/>
<path d="M115.874 105.142C115.874 105.142 119.769 112.612 112.9 118.469C107.466 123.103 97.6277 120.815 95.0537 115.667C92.4798 110.518 95.1107 103.483 95.1107 103.483L115.874 105.142Z" fill="#CFB015"/>
<path d="M113.952 113.883C111.362 117.694 107.851 118.916 103.502 118.305C99.1608 117.694 96.3348 114.567 95.9511 109.916C95.5771 105.265 96.6438 104.116 96.6438 104.116L98.3765 104.217L99.4439 104.281L100.347 104.335L112.091 105.01L112.201 105.019L113.806 105.111L115.174 105.183C115.174 105.183 116.551 110.071 113.952 113.883Z" fill="white"/>
<path d="M113.952 113.883C111.362 117.694 107.851 118.916 103.502 118.305C99.1608 117.694 96.3348 114.567 95.9511 109.916C95.5771 105.265 96.6438 104.116 96.6438 104.116L98.3765 104.217C97.4377 107.344 96.5662 114.902 102.514 116.968C109.733 119.476 115.885 112.943 113.806 105.111L115.174 105.183C115.174 105.183 116.551 110.071 113.952 113.883Z" fill="#FCD7B8"/>
<path d="M105.922 110.982C105.922 110.982 107.752 111.782 112.328 112.469C111.298 114.643 108.895 116.13 106.722 116.473C104.549 116.816 101.002 115.901 99.7439 111.439C98.797 108.082 99.7942 105.566 100.346 104.332L112.09 105.008C112.641 107.011 112.213 109.494 112.213 109.494L105.922 110.982Z" fill="#521946"/>
<path d="M117.476 105.91C118.772 104.156 118.467 99.7329 117.857 99.5037C117.247 99.2746 115.416 103.998 115.416 103.998C115.416 103.998 91.4693 102.472 92.3845 103.927C92.7519 104.511 116.255 106.291 117.476 105.91Z" fill="#CFB015"/>
<path d="M142.414 132.254C141.721 134.7 140.23 136.58 138.213 137.986C137.538 138.456 136.805 138.873 136.022 139.241C135.977 139.262 135.933 139.284 135.888 139.304C135.175 139.633 134.422 139.92 133.637 140.171C133.627 140.174 133.617 140.177 133.607 140.18C132.859 140.417 132.082 140.621 131.284 140.789C131.242 140.799 131.202 140.808 131.16 140.817C130.409 140.973 129.641 141.102 128.857 141.205C128.83 141.209 128.802 141.212 128.774 141.215C128.053 141.308 127.321 141.379 126.581 141.428C126.503 141.434 126.424 141.438 126.345 141.443C125.676 141.484 125.002 141.508 124.326 141.516C124.247 141.518 124.168 141.518 124.089 141.518C123.982 141.521 123.875 141.521 123.767 141.521C123.183 141.521 122.61 141.509 122.049 141.487C121.964 141.486 121.881 141.481 121.798 141.477C121.04 141.443 120.305 141.389 119.594 141.315C119.565 141.313 119.538 141.309 119.51 141.305C118.706 141.22 117.932 141.109 117.187 140.973C117.143 140.963 117.099 140.956 117.054 140.948C116.239 140.793 115.459 140.608 114.716 140.392C114.695 140.386 114.672 140.378 114.65 140.372C113.862 140.141 113.115 139.874 112.413 139.573C112.337 139.542 112.261 139.508 112.188 139.475C111.365 139.109 110.602 138.695 109.9 138.23C108.461 137.281 107.283 136.127 106.379 134.771C103.689 130.735 104.556 125.388 108.811 123.898C109.259 123.74 109.745 123.625 110.269 123.56C110.734 123.502 111.191 123.464 111.64 123.444C111.766 123.438 111.893 123.433 112.017 123.431C113.032 123.404 114.01 123.464 114.954 123.575C114.96 123.576 114.967 123.576 114.973 123.577C115.99 123.697 116.97 123.876 117.924 124.07C117.932 124.073 117.941 124.075 117.95 124.076C118.9 124.272 119.823 124.481 120.729 124.666C120.779 124.675 120.827 124.685 120.875 124.695C121.78 124.875 122.669 125.028 123.55 125.109C123.595 125.113 123.641 125.116 123.686 125.12C123.905 125.14 124.122 125.153 124.339 125.162C125.083 125.19 125.789 125.19 126.461 125.167H126.464C127.452 125.133 128.368 125.048 129.221 124.938C129.314 124.926 129.404 124.914 129.494 124.901C130.471 124.765 131.367 124.595 132.2 124.425C132.283 124.408 132.366 124.391 132.448 124.374C133.44 124.169 134.343 123.97 135.186 123.835C135.347 123.81 135.508 123.785 135.666 123.764C136.018 123.719 136.36 123.687 136.695 123.674C137.234 123.654 137.828 123.697 138.43 123.823C141.15 124.388 144.007 126.634 142.414 132.254Z" fill="#6C225D"/>
<path d="M119.421 132.826C119.307 132.406 119.249 131.224 119.82 129.337C120.393 127.449 121.995 126.992 122.853 128.021C123.71 129.051 122.91 131.853 124.454 131.796C125.998 131.739 126.456 131.224 126.284 129.966C126.113 128.707 125.141 128.307 126.284 127.334C127.429 126.362 132.633 129.051 130.517 133.112C128.401 137.174 120.564 137.059 119.421 132.826Z" fill="#521946"/>
<path d="M124.34 134.047C122.171 133.866 120.756 131.644 116.522 131.873C112.49 132.091 111.252 134.622 111.832 137.097C112.938 138.889 117.094 140.91 124.683 140.682C132.271 140.453 135.284 138.508 136.351 137.326C137.419 136.144 136.816 132.444 134.026 131.95C129.297 131.11 128.458 134.39 124.34 134.047Z" fill="#C23925"/>
<path d="M133.693 133.883C132.133 133.123 130.378 133.946 129.053 134.822C128.368 135.275 127.682 135.783 126.913 136.088C126.095 136.414 125.342 136.365 124.518 136.091C122.81 135.526 121.334 134.467 119.603 133.951C118.079 133.496 116.374 133.378 115.011 134.336C114.901 134.412 114.964 134.624 115.108 134.569C116.784 133.925 118.436 134.786 119.732 135.827C121.087 136.916 122.618 138.007 124.385 138.228C126.148 138.448 127.59 137.843 128.946 136.763C130.222 135.748 131.51 134.47 133.28 134.864C133.843 134.988 134.265 134.163 133.693 133.883Z" fill="#F2563F"/>
<path d="M114.963 123.369C114.96 123.32 114.959 123.293 114.959 123.293C114.959 123.293 114.959 123.293 114.96 123.293C114.963 123.318 114.964 123.343 114.963 123.369Z" fill="white"/>
<path d="M114.96 123.293C114.963 123.318 114.964 123.343 114.963 123.369C114.96 123.32 114.959 123.293 114.959 123.293C114.959 123.293 114.959 123.293 114.96 123.293Z" fill="white"/>
<path d="M117.937 123.826C117.935 123.777 117.934 123.751 117.934 123.751C117.934 123.751 117.934 123.751 117.935 123.751C117.937 123.775 117.938 123.8 117.937 123.826Z" fill="white"/>
<path d="M117.935 123.751C117.937 123.775 117.938 123.8 117.937 123.826C117.935 123.777 117.934 123.751 117.934 123.751C117.934 123.751 117.934 123.751 117.935 123.751Z" fill="white"/>
<path d="M132.275 123.293C132.276 123.293 132.276 123.293 132.276 123.293C132.276 123.293 132.275 123.32 132.272 123.369C132.271 123.343 132.272 123.318 132.275 123.293Z" fill="white"/>
<path d="M129.301 123.751C129.301 123.751 129.301 123.751 129.301 123.751C129.301 123.751 129.301 123.777 129.298 123.826C129.297 123.8 129.298 123.775 129.301 123.751Z" fill="white"/>
<path d="M132.276 123.293C132.276 123.293 132.275 123.32 132.272 123.369C132.271 123.343 132.272 123.318 132.275 123.293C132.276 123.293 132.276 123.293 132.276 123.293Z" fill="white"/>
<path d="M129.301 123.751C129.301 123.751 129.301 123.777 129.298 123.826C129.297 123.8 129.298 123.775 129.301 123.751C129.301 123.751 129.301 123.751 129.301 123.751Z" fill="white"/>
<path d="M137.953 137.984C137.269 138.458 136.539 138.878 135.755 139.242C135.709 139.26 135.664 139.288 135.627 139.306C134.971 139.607 134.278 139.871 133.566 140.099V140.172C133.575 140.218 133.575 140.264 133.575 140.3C133.558 140.264 133.548 140.218 133.539 140.182C133.484 140.2 133.43 140.208 133.375 140.227V140.3C133.366 140.282 133.366 140.255 133.357 140.227C132.664 140.446 131.953 140.638 131.214 140.792C131.177 140.802 131.132 140.811 131.095 140.819C130.366 140.966 129.618 141.093 128.852 141.194L128.861 141.202C128.834 141.211 128.807 141.211 128.77 141.211C128.113 141.303 127.448 141.358 126.782 141.412C126.782 141.412 126.782 141.422 126.782 141.431C126.7 141.431 126.618 141.44 126.545 141.44C125.87 141.485 125.204 141.503 124.521 141.513C124.447 141.522 124.365 141.522 124.283 141.522H123.964C123.381 141.522 122.806 141.513 122.25 141.486C122.159 141.486 122.077 141.476 121.995 141.476C121.238 141.44 120.508 141.385 119.797 141.312C119.761 141.312 119.733 141.312 119.706 141.303C118.903 141.221 118.128 141.111 117.389 140.975C117.344 140.966 117.298 140.956 117.253 140.947C116.441 140.792 115.657 140.61 114.919 140.391C114.892 140.382 114.873 140.382 114.846 140.373C114.061 140.145 113.313 139.871 112.612 139.57C112.539 139.543 112.457 139.507 112.383 139.479C111.563 139.105 110.796 138.695 110.095 138.23C110.095 137.938 110.113 137.601 110.14 137.263C110.223 136.196 110.469 135.065 111.098 135.002C111.69 134.938 112.247 136.224 112.502 137.582C112.63 136.752 112.885 136.023 113.386 135.969C114.052 135.904 114.69 137.574 114.873 139.114C114.954 138.011 115.192 136.78 115.839 136.716C116.468 136.652 117.052 138.084 117.29 139.515C117.372 138.449 117.608 137.29 118.247 137.227C118.894 137.163 119.515 138.722 119.725 140.227C119.725 140.255 119.733 140.272 119.733 140.3V140.227C119.797 139.105 120.034 137.81 120.709 137.747C121.256 137.692 121.776 138.795 122.049 140.045C122.15 139.042 122.405 138.03 122.998 137.975C123.572 137.92 124.119 139.142 124.384 140.473C124.566 139.278 124.977 138.239 125.496 138.248C125.989 138.257 126.299 138.923 126.5 139.716C126.7 138.668 127.083 137.81 127.557 137.82C128.651 137.837 128.615 138.886 128.715 139.926C128.834 138.503 129.28 137.081 129.901 137.09C130.539 137.099 130.876 138.221 131.049 139.288C131.16 137.837 131.615 136.36 132.245 136.369C132.773 136.379 133.101 137.154 133.293 138.03C133.539 136.68 134.306 135.412 134.433 135.412C134.934 135.421 135.253 136.114 135.454 136.935C135.591 135.558 136.029 134.235 136.622 134.245C137.578 134.254 137.834 135.33 137.916 136.36C137.962 136.998 137.935 137.619 137.953 137.984Z" fill="white"/>
<path d="M137.953 137.984C137.269 138.458 136.539 138.878 135.755 139.242C135.709 139.26 135.664 139.288 135.627 139.306C134.971 139.607 134.278 139.871 133.566 140.099V140.172C133.575 140.218 133.575 140.264 133.575 140.3C133.558 140.264 133.548 140.218 133.539 140.182C133.484 140.2 133.43 140.208 133.375 140.227V140.3C133.366 140.282 133.366 140.255 133.357 140.227C132.664 140.446 131.953 140.638 131.214 140.792C131.177 140.802 131.132 140.811 131.095 140.819C130.366 140.966 129.618 141.093 128.852 141.194L128.861 141.202C128.834 141.211 128.807 141.211 128.77 141.211C128.113 141.303 127.448 141.358 126.782 141.412C126.782 141.412 126.782 141.422 126.782 141.431C126.7 141.431 126.618 141.44 126.545 141.44C125.87 141.485 125.204 141.503 124.521 141.513C124.447 141.522 124.365 141.522 124.283 141.522H123.964C123.381 141.522 122.806 141.513 122.25 141.486C122.159 141.486 122.077 141.476 121.995 141.476C121.238 141.44 120.508 141.385 119.797 141.312C119.761 141.312 119.733 141.312 119.706 141.303C118.903 141.221 118.128 141.111 117.389 140.975C117.344 140.966 117.298 140.956 117.253 140.947C116.441 140.792 115.657 140.61 114.919 140.391C114.892 140.382 114.873 140.382 114.846 140.373C114.061 140.145 113.313 139.871 112.612 139.57C112.539 139.543 112.457 139.507 112.383 139.479C111.563 139.105 110.796 138.695 110.095 138.23C110.095 137.938 110.113 137.601 110.14 137.263C110.651 137.628 111.481 138.066 112.858 138.549C114.225 139.033 116.733 139.762 119.725 140.227C119.725 140.227 119.725 140.227 119.733 140.227C124.521 140.975 131.001 140.116 135.017 138.157C136.191 137.583 137.078 136.862 137.916 136.36C137.962 136.998 137.935 137.619 137.953 137.984Z" fill="#FCD7B8"/>
<path d="M111.636 123.439C111.572 123.823 111.426 124.269 111.253 124.716C110.815 125.828 110.14 126.913 109.775 126.877C109.41 126.831 109.164 126.12 109 125.272C108.918 124.816 108.854 124.333 108.809 123.895C109.256 123.74 109.748 123.622 110.268 123.558C110.733 123.503 111.189 123.466 111.636 123.439Z" fill="white"/>
<path d="M114.955 123.576C114.919 123.987 114.764 124.515 114.554 125.044C114.116 126.175 113.424 127.305 113.049 127.26C112.548 127.197 112.274 125.847 112.137 124.652C112.074 124.196 112.037 123.758 112.019 123.43C113.031 123.403 114.007 123.466 114.955 123.576Z" fill="white"/>
<path d="M117.928 124.069C117.873 124.524 117.682 125.135 117.435 125.728C116.998 126.777 116.369 127.752 116.022 127.716C115.53 127.661 115.256 126.357 115.11 125.181C115.037 124.534 114.992 123.922 114.973 123.576C115.986 123.695 116.971 123.877 117.928 124.069Z" fill="white"/>
<path d="M120.873 124.698C120.855 124.844 120.818 124.999 120.773 125.153C120.672 125.536 120.517 125.947 120.344 126.348C119.906 127.333 119.332 128.208 119.004 128.171C118.548 128.126 118.274 126.987 118.128 125.883C118.028 125.172 117.973 124.469 117.946 124.078C118.903 124.269 119.824 124.479 120.727 124.661C120.781 124.679 120.827 124.688 120.873 124.698Z" fill="white"/>
<path d="M123.554 125.108C123.436 125.573 123.235 126.12 122.998 126.612C122.578 127.515 122.058 128.281 121.749 128.254C121.357 128.208 121.101 127.379 120.946 126.448C120.864 126.02 120.809 125.563 120.773 125.153C120.755 124.98 120.737 124.816 120.727 124.661C120.782 124.679 120.828 124.688 120.873 124.698C121.785 124.88 122.67 125.026 123.554 125.108Z" fill="white"/>
<path d="M138.427 123.823C138.4 124.196 138.346 124.597 138.281 124.989C138.117 125.956 137.862 126.831 137.46 126.877C137.114 126.913 136.485 125.929 136.047 124.881C135.883 124.506 135.755 124.114 135.665 123.767C136.019 123.722 136.357 123.685 136.694 123.676C137.232 123.658 137.825 123.695 138.427 123.823Z" fill="white"/>
<path d="M135.19 123.832C135.163 124.15 135.126 124.515 135.072 124.889C134.926 126.02 134.652 127.205 134.178 127.26C133.814 127.296 133.156 126.238 132.719 125.144C132.609 124.881 132.518 124.616 132.445 124.37C133.439 124.169 134.342 123.968 135.19 123.832Z" fill="white"/>
<path d="M132.199 124.424C132.181 124.679 132.145 124.962 132.108 125.254C131.972 126.412 131.697 127.661 131.205 127.716C130.859 127.752 130.247 126.785 129.8 125.746C129.682 125.464 129.573 125.172 129.491 124.898C130.476 124.761 131.369 124.597 132.199 124.424Z" fill="white"/>
<path d="M129.217 124.934C129.189 125.235 129.153 125.573 129.116 125.91C128.962 127.014 128.687 128.126 128.232 128.171C127.904 128.208 127.347 127.361 126.91 126.394C126.727 125.983 126.573 125.555 126.462 125.172C127.457 125.135 128.368 125.044 129.217 124.934Z" fill="white"/>
<path d="M126.463 125.172C126.417 125.582 126.363 126.047 126.29 126.485C126.125 127.397 125.879 128.208 125.487 128.254C125.177 128.281 124.657 127.525 124.247 126.621C124.01 126.12 123.809 125.582 123.69 125.117C123.9 125.135 124.119 125.153 124.338 125.163C125.086 125.19 125.788 125.19 126.463 125.172Z" fill="white"/>
<path d="M110.268 123.558C110.733 123.503 111.189 123.466 111.636 123.439C111.572 123.823 111.426 124.269 111.253 124.716C110.404 124.825 109.611 125.062 109 125.272C108.918 124.816 108.854 124.333 108.809 123.895C109.256 123.74 109.748 123.622 110.268 123.558Z" fill="#FCD7B8"/>
<path d="M112.019 123.43C113.031 123.403 114.007 123.466 114.955 123.576C114.919 123.987 114.764 124.515 114.554 125.044C114.098 124.935 113.67 124.844 113.305 124.762C112.931 124.68 112.539 124.652 112.137 124.652C112.074 124.196 112.037 123.758 112.019 123.43Z" fill="#FCD7B8"/>
<path d="M114.973 123.576C115.986 123.695 116.971 123.877 117.928 124.069C117.873 124.524 117.682 125.135 117.435 125.728C116.642 125.536 115.848 125.345 115.11 125.181C115.037 124.534 114.992 123.922 114.973 123.576Z" fill="#FCD7B8"/>
<path d="M123.554 125.108C123.435 125.573 123.235 126.12 122.998 126.612C122.688 126.603 122.387 126.595 122.085 126.585C121.785 126.576 121.393 126.521 120.946 126.448C120.863 126.02 120.809 125.563 120.773 125.153C120.672 125.536 120.517 125.947 120.344 126.348C119.669 126.221 118.912 126.056 118.128 125.883C118.028 125.172 117.973 124.469 117.946 124.078C118.903 124.269 119.824 124.479 120.727 124.661C120.781 124.679 120.827 124.688 120.873 124.698C121.785 124.88 122.669 125.026 123.554 125.108Z" fill="#FCD7B8"/>
<path d="M126.463 125.172C126.417 125.582 126.363 126.047 126.29 126.485C125.551 126.585 124.876 126.621 124.247 126.621C124.01 126.12 123.809 125.582 123.69 125.117C123.9 125.135 124.119 125.153 124.338 125.163C125.086 125.19 125.788 125.19 126.463 125.172Z" fill="#FCD7B8"/>
<path d="M129.217 124.934C129.189 125.235 129.153 125.573 129.116 125.91C128.907 125.956 128.687 126.011 128.469 126.065C127.922 126.211 127.402 126.312 126.91 126.394C126.727 125.983 126.573 125.555 126.462 125.172C127.457 125.135 128.368 125.044 129.217 124.934Z" fill="#FCD7B8"/>
<path d="M129.491 124.898C130.476 124.761 131.369 124.597 132.199 124.424C132.181 124.679 132.145 124.962 132.108 125.254C131.433 125.381 130.658 125.536 129.8 125.746C129.682 125.464 129.573 125.172 129.491 124.898Z" fill="#FCD7B8"/>
<path d="M132.445 124.37C133.439 124.169 134.342 123.968 135.19 123.832C135.163 124.15 135.126 124.515 135.072 124.889C134.771 124.889 134.497 124.907 134.279 124.926C133.868 124.962 133.339 125.035 132.719 125.145C132.609 124.881 132.518 124.616 132.445 124.37Z" fill="#FCD7B8"/>
<path d="M138.427 123.823C138.4 124.196 138.346 124.597 138.281 124.989L138.154 124.926C138.154 124.926 137.114 124.889 136.047 124.881C135.883 124.506 135.755 124.114 135.665 123.767C136.019 123.722 136.357 123.685 136.694 123.676C137.232 123.658 137.825 123.695 138.427 123.823Z" fill="#FCD7B8"/>
<path d="M140.981 133.974C139.41 136.453 136.893 138.305 134.22 139.448C128.085 142.068 121.189 141.615 114.86 139.924C111.905 139.133 109.038 137.744 107.069 135.337C105.372 133.263 104.584 130.562 105.45 127.967C105.906 126.598 106.817 125.388 108.092 124.69C109.531 123.902 111.215 123.818 112.818 123.945C114.663 124.09 116.481 124.52 118.303 124.833C119.205 124.988 120.091 125.075 120.995 125.258C123.392 125.745 125.565 125.474 127.949 125.096C129.744 124.812 131.551 124.602 133.353 124.367C136.088 124.01 139.543 123.508 141.386 126.088C143.109 128.504 142.477 131.613 140.981 133.974ZM143.133 127.457C142.746 126.124 141.981 124.92 140.881 124.065C139.562 123.038 137.983 122.709 136.339 122.757C134.571 122.806 132.829 123.194 131.094 123.508C126.869 124.276 122.714 124.573 118.51 123.66C116.784 123.285 115.049 122.901 113.294 122.691C110.161 122.316 106.929 122.941 105.091 125.735C103.468 128.202 103.473 131.386 104.69 134.014C106.043 136.934 108.736 139.017 111.638 140.261C114.991 141.698 118.697 142.384 122.325 142.613C125.896 142.838 129.583 142.512 132.972 141.318C135.995 140.254 138.88 138.396 140.945 135.93C141.952 134.727 142.772 133.356 143.221 131.845C143.632 130.464 143.534 128.837 143.133 127.457Z" fill="#CFB015"/>
<path d="M88.0172 153.115C86.1969 152.353 78.0972 167.18 76.4456 165.987C72.9411 163.453 70.6147 159.314 69.0806 155.195C71.6679 119.22 76.4456 116.678 76.4456 116.678C79.5956 112.314 80.9736 114.496 80.5797 126.714C80.211 138.156 85.9814 146.833 88.0172 153.115Z" fill="#DAC011"/>
<path d="M100.621 95.871C103.705 96.0608 96.8504 106.252 101.239 104.563C107.897 102.002 103.675 95.6733 104.476 93.439C105.721 91.7063 109.181 93.1055 110.385 96.8237C112.147 97.0251 114.573 98.3432 115.317 101.413C120.732 103.069 117.904 111.058 103.169 132.642C102.865 133.085 102.566 133.522 102.27 133.952C82.351 162.874 76.651 162.439 76.651 162.439C71.5855 164.418 71.3602 161.836 77.6728 151.752C83.5839 142.309 95.99 121.991 97.1444 115.599C97.2239 115.167 97.25 114.798 97.219 114.5C96.7399 109.81 95.5068 111.034 94.7441 106.126C93.8429 100.324 98.6645 95.7496 100.621 95.871Z" fill="#D6CC10"/>
<path d="M97.1445 115.599C98.4746 117.223 99.68 118.991 100.642 120.887C102.683 124.912 102.841 129.654 102.27 133.952C82.3511 162.874 76.6511 162.439 76.6511 162.439C71.5856 164.419 71.3603 161.837 77.6729 151.752C83.584 142.309 95.9901 121.992 97.1445 115.599Z" fill="#DAC011"/>
<path d="M105.102 93.4938C105.539 93.5685 106.011 93.772 106.44 93.9141C106.94 94.0792 107.355 94.4101 107.675 94.8247C108.274 95.598 108.714 96.6407 108.995 97.5723C109.562 99.4533 109.18 101.797 108.02 103.383C107.831 103.641 108.264 103.978 108.468 103.73C110.148 101.696 110.93 99.2615 110.51 96.6218C110.289 95.2269 109.569 93.9551 108.422 93.1123C107.894 92.7247 107.273 92.449 106.62 92.3706C105.914 92.2852 105.46 92.5359 104.98 93.0343C104.845 93.1724 104.888 93.4572 105.102 93.4938Z" fill="#DAC011"/>
<path d="M109.532 96.8686C110.563 96.925 111.472 97.0571 112.312 97.7292C113.159 98.4071 113.647 99.474 113.817 100.529C114.008 101.731 113.811 102.957 113.421 104.098C112.938 105.517 112.029 106.692 111.434 108.047C111.259 108.444 111.704 108.841 112.054 108.527C113.357 107.35 114.4 105.58 115.045 103.964C115.612 102.545 115.824 101.014 115.569 99.5035C115.113 96.8085 111.973 93.8349 109.115 95.3114C108.33 95.7161 108.748 96.8251 109.532 96.8686Z" fill="#DAC011"/>
<path d="M160.454 153.115C162.274 152.353 170.374 167.18 172.026 165.987C175.53 163.453 177.857 159.314 179.391 155.195C176.803 119.22 172.026 116.678 172.026 116.678C168.876 112.314 167.498 114.496 167.892 126.714C168.26 138.156 162.49 146.833 160.454 153.115Z" fill="#DAC011"/>
<path d="M147.851 95.871C144.766 96.0608 151.621 106.252 147.232 104.563C140.574 102.002 144.796 95.6733 143.996 93.439C142.75 91.7063 139.291 93.1055 138.087 96.8237C136.324 97.0251 133.898 98.3432 133.155 101.413C127.739 103.069 130.567 111.058 145.302 132.642C145.606 133.085 145.905 133.522 146.201 133.952C166.12 162.874 171.82 162.439 171.82 162.439C176.886 164.418 177.111 161.836 170.798 151.752C164.887 142.309 152.481 121.991 151.327 115.599C151.247 115.167 151.221 114.798 151.252 114.5C151.731 109.81 152.964 111.034 153.727 106.126C154.628 100.324 149.807 95.7496 147.851 95.871Z" fill="#D6CC10"/>
<path d="M151.327 115.599C149.997 117.223 148.792 118.991 147.83 120.887C145.789 124.912 145.631 129.654 146.202 133.952C166.121 162.874 171.821 162.439 171.821 162.439C176.886 164.419 177.111 161.837 170.799 151.752C164.888 142.309 152.482 121.992 151.327 115.599Z" fill="#DAC011"/>
<path d="M143.369 93.4938C142.932 93.5685 142.461 93.772 142.032 93.9141C141.531 94.0792 141.117 94.4101 140.796 94.8247C140.197 95.598 139.757 96.6407 139.476 97.5723C138.91 99.4533 139.292 101.797 140.451 103.383C140.64 103.641 140.208 103.978 140.003 103.73C138.323 101.696 137.541 99.2615 137.961 96.6218C138.182 95.2269 138.902 93.9551 140.049 93.1123C140.578 92.7247 141.198 92.449 141.851 92.3706C142.557 92.2852 143.011 92.5359 143.491 93.0343C143.626 93.1724 143.583 93.4572 143.369 93.4938Z" fill="#DAC011"/>
<path d="M138.939 96.8686C137.908 96.925 137 97.0571 136.159 97.7292C135.312 98.4071 134.824 99.474 134.655 100.529C134.463 101.731 134.661 102.957 135.05 104.098C135.533 105.517 136.442 106.692 137.038 108.047C137.212 108.444 136.767 108.841 136.417 108.527C135.114 107.35 134.071 105.58 133.426 103.964C132.859 102.545 132.647 101.014 132.902 99.5035C133.358 96.8085 136.498 93.8349 139.356 95.3114C140.142 95.7161 139.723 96.8251 138.939 96.8686Z" fill="#DAC011"/>
</svg>
