<svg width="20" height="20" viewBox="0 0 20 20" fill="none" xmlns="http://www.w3.org/2000/svg">
<path d="M11.6001 0.399902C16.0089 0.399902 19.6001 3.9911 19.6001 8.3999C19.6001 12.8087 16.0089 16.3999 11.6001 16.3999C9.68289 16.3999 7.92219 15.7191 6.54228 14.589L1.76572 19.3655C1.69201 19.4423 1.60371 19.5036 1.50601 19.5458C1.4083 19.5881 1.30316 19.6104 1.19672 19.6115C1.09029 19.6125 0.984711 19.5924 0.886169 19.5521C0.787626 19.5119 0.698103 19.4524 0.622839 19.3772C0.547575 19.3019 0.488087 19.2124 0.447857 19.1138C0.407625 19.0153 0.387459 18.9097 0.388542 18.8033C0.389626 18.6968 0.411936 18.5917 0.454165 18.494C0.496393 18.3963 0.557692 18.308 0.634472 18.2343L5.41103 13.4577C4.28091 12.0778 3.6001 10.3171 3.6001 8.3999C3.6001 3.9911 7.19129 0.399902 11.6001 0.399902ZM11.6001 1.9999C8.056 1.9999 5.2001 4.8558 5.2001 8.3999C5.2001 11.944 8.056 14.7999 11.6001 14.7999C15.1442 14.7999 18.0001 11.944 18.0001 8.3999C18.0001 4.8558 15.1442 1.9999 11.6001 1.9999Z" fill="#591B4C"/>
</svg>
