<svg width="27" height="26" viewBox="0 0 27 26" fill="none" xmlns="http://www.w3.org/2000/svg">
<path d="M11.1737 0.199951C5.27958 0.199951 0.478516 4.98821 0.478516 10.8666C0.478516 16.745 5.27958 21.5333 11.1737 21.5333C13.7368 21.5333 16.0907 20.6255 17.9355 19.1187L24.3213 25.4875C24.4198 25.5898 24.5379 25.6716 24.6685 25.7279C24.7991 25.7842 24.9397 25.8139 25.082 25.8154C25.2242 25.8168 25.3654 25.7899 25.4971 25.7363C25.6289 25.6826 25.7486 25.6033 25.8492 25.503C25.9498 25.4026 26.0293 25.2832 26.0831 25.1519C26.1369 25.0205 26.1639 24.8797 26.1624 24.7378C26.161 24.5959 26.1311 24.4557 26.0747 24.3254C26.0182 24.1951 25.9363 24.0774 25.8336 23.9791L19.4478 17.6104C20.9587 15.7705 21.8689 13.4229 21.8689 10.8666C21.8689 4.98821 17.0678 0.199951 11.1737 0.199951ZM11.1737 2.33328C15.9118 2.33328 19.7299 6.14115 19.7299 10.8666C19.7299 15.5921 15.9118 19.4 11.1737 19.4C6.4356 19.4 2.61755 15.5921 2.61755 10.8666C2.61755 6.14115 6.4356 2.33328 11.1737 2.33328Z" fill="#1A1A1A"/>
</svg>
