<svg width="20" height="22" viewBox="0 0 20 22" fill="none" xmlns="http://www.w3.org/2000/svg">
<path d="M0 0.846106V10.0001L12 11.0001L0 12.0001V21.1541C1.48755e-05 21.241 0.0226703 21.3264 0.0657334 21.4018C0.108797 21.4773 0.170781 21.5402 0.245577 21.5844C0.320372 21.6287 0.405398 21.6526 0.492273 21.654C0.579148 21.6553 0.664874 21.634 0.741 21.5921L19.203 11.4381C19.2814 11.3949 19.3468 11.3315 19.3923 11.2545C19.4378 11.1774 19.4618 11.0896 19.4618 11.0001C19.4618 10.9106 19.4378 10.8228 19.3923 10.7457C19.3468 10.6687 19.2814 10.6053 19.203 10.5621L0.741 0.408106C0.664874 0.366227 0.579148 0.344908 0.492273 0.346251C0.405398 0.347594 0.320372 0.371552 0.245577 0.415763C0.170781 0.459974 0.108797 0.522913 0.0657334 0.598376C0.0226703 0.673839 1.48755e-05 0.759221 0 0.846106Z" fill="white"/>
</svg>
