<svg width="208" height="213" viewBox="0 0 208 213" fill="none" xmlns="http://www.w3.org/2000/svg">
<g clip-path="url(#clip0_79_1342)">
<path d="M91.5059 206H118.345C119.823 198.712 119.963 142.159 119.823 129.993C119.742 121.914 119.549 115.831 119.549 115.831L110.805 111.913C110.805 111.913 110.635 116.829 109.393 127.554C108.654 133.674 107.627 181.556 106.045 191.631C105.808 193.176 105.55 194.765 105.306 196.406C94.7286 199.717 91.5059 206 91.5059 206Z" fill="#591B4C"/>
<path d="M109.416 127.532C112.755 128.847 116.268 129.668 119.845 129.971C119.764 121.892 119.571 115.809 119.571 115.809L110.827 111.891C110.827 111.891 110.657 116.806 109.416 127.532Z" fill="#3D0E34"/>
<path d="M105.306 196.391C105.306 196.391 110.672 196.864 113.695 201.151C112.361 197.17 109.658 193.792 106.067 191.616C105.83 193.154 105.572 194.743 105.306 196.391Z" fill="#3D0E34"/>
<path d="M162.272 206H135.434C133.955 198.712 133.807 142.159 133.955 129.993C134.029 121.914 134.229 115.831 134.229 115.831L142.966 111.891C142.966 111.891 143.136 116.806 144.377 127.532C145.117 133.652 146.144 181.534 147.726 191.609C147.972 193.156 148.219 194.748 148.465 196.384C159.05 199.717 162.272 206 162.272 206Z" fill="#591B4C"/>
<path d="M144.355 127.532C141.019 128.848 137.507 129.67 133.933 129.971C134.007 121.892 134.207 115.809 134.207 115.809L142.966 111.891C142.966 111.891 143.113 116.806 144.355 127.532Z" fill="#3D0E34"/>
<path d="M148.465 196.391C148.465 196.391 143.099 196.864 140.083 201.151C141.415 197.171 144.116 193.793 147.704 191.616C147.95 193.158 148.204 194.75 148.465 196.391Z" fill="#3D0E34"/>
<path d="M77.2271 162.702L75.374 162.621C75.4844 160.093 76.5943 137.807 81.4723 133.742C81.7821 133.465 82.1475 133.257 82.5438 133.133C82.9402 133.009 83.3585 132.971 83.7707 133.022C86.6748 133.426 89.8459 138.034 93.4656 147.109C96.0429 153.571 97.9007 160.013 97.9191 160.078L96.1366 160.59C96.1184 160.526 94.2825 154.162 91.7385 147.786C87.2464 136.528 84.4913 134.996 83.5153 134.86C83.3586 134.844 83.2002 134.862 83.0519 134.916C82.9036 134.969 82.7694 135.055 82.6593 135.168C79.0599 138.167 77.5177 156.061 77.2271 162.702Z" fill="black"/>
<path d="M60.8551 150.677L59 197.227L120.207 190.63L112.641 145.687L60.8551 150.677Z" fill="#FFBA49"/>
<path d="M112.641 145.687L108.139 146.121L114.131 185.531L59.2144 191.854L59 197.227L120.207 190.63L112.641 145.687Z" fill="#FFA113"/>
<path d="M179.676 157.419L178.105 157.245C178.119 157.121 179.423 144.836 175.194 140.242C174.697 139.683 174.08 139.244 173.389 138.958C172.699 138.672 171.952 138.546 171.206 138.589C161.994 138.851 157.663 154.671 157.62 154.83L156.094 154.422C156.944 151.468 158.126 148.619 159.616 145.931C162.826 140.217 166.818 137.132 171.161 137.009C172.133 136.959 173.105 137.127 174.004 137.501C174.903 137.876 175.707 138.446 176.357 139.172C181.072 144.296 179.735 156.886 179.676 157.419Z" fill="#FFBA49"/>
<path d="M151.654 146.152L184.986 150.108L184.469 203L139.975 197.697L151.654 146.152Z" fill="#EF3651"/>
<path d="M184.986 150.108L181.685 149.716L180.077 198.656L140.601 194.931L139.975 197.697L184.469 203L184.986 150.108Z" fill="#CC2A42"/>
<path d="M164.948 138.515C167.498 139.787 166.722 128.485 169.45 131.863C173.589 136.978 167.299 140.09 166.907 142.211C167.099 144.17 170.507 144.643 173.182 142.211C174.212 142.63 175.345 142.722 176.429 142.473C177.512 142.224 178.492 141.648 179.236 140.821C184.329 141.989 185.755 134.31 183.937 110.28C183.898 109.787 183.861 109.294 183.826 108.801C181.254 76.5225 176.501 74.2459 176.501 74.2459C173.367 70.3284 172 72.2872 172.384 83.2488C172.754 93.5156 173.293 115.461 171.268 121.101C171.161 121.422 171.012 121.728 170.824 122.01C168.274 125.536 167.868 123.991 164.985 127.554C161.592 131.833 163.329 137.71 164.948 138.515Z" fill="#E0CC00"/>
<path d="M171.268 121.16C173.101 120.478 174.855 119.601 176.501 118.543C179.982 116.274 182.296 112.556 183.826 108.86C181.254 76.5817 176.501 74.3051 176.501 74.3051C173.367 70.3876 171.999 72.3463 172.384 83.3079C172.753 93.5748 173.271 115.52 171.268 121.16Z" fill="#E2C100"/>
<path d="M167.432 142.477C167.846 142.601 168.268 142.695 168.696 142.758C169.169 142.852 169.659 142.797 170.1 142.603C170.961 142.213 171.747 141.675 172.421 141.014C173.091 140.357 173.609 139.561 173.937 138.683C174.266 137.804 174.397 136.863 174.321 135.928C174.321 135.633 174.794 135.566 174.838 135.854C175.068 137.016 175.039 138.214 174.754 139.364C174.47 140.514 173.935 141.586 173.19 142.507C172.38 143.526 171.201 144.185 169.908 144.34C169.304 144.414 168.691 144.333 168.127 144.103C167.861 143.995 167.629 143.82 167.453 143.594C167.276 143.368 167.162 143.101 167.121 142.817C167.077 142.618 167.247 142.433 167.432 142.477Z" fill="#E2C100"/>
<path d="M172.532 141.827C173.315 142.307 174.235 142.515 175.148 142.418C176.139 142.227 177.025 141.68 177.639 140.881C178.325 139.992 178.781 138.949 178.97 137.843C179.243 136.49 179.058 135.13 179.206 133.777C179.193 133.679 179.22 133.58 179.28 133.502C179.341 133.424 179.43 133.372 179.528 133.36C179.626 133.347 179.725 133.374 179.803 133.434C179.881 133.494 179.933 133.583 179.945 133.681C180.4 135.314 180.496 137.026 180.226 138.7C180.044 140.095 179.478 141.413 178.593 142.507C176.981 144.443 173.108 145.375 171.504 142.876C171.053 142.189 171.881 141.501 172.532 141.827Z" fill="#E2C100"/>
<path d="M91.7497 138.515C89.1996 139.787 89.9757 128.485 87.2482 131.863C83.109 136.978 89.3991 140.09 89.7909 142.211C89.5987 144.17 86.1912 144.643 83.5155 142.211C82.486 142.63 81.3524 142.722 80.269 142.473C79.1857 142.224 78.2054 141.648 77.4618 140.822C72.3691 142.034 70.9425 134.354 72.746 110.324C72.7854 109.831 72.8224 109.339 72.8569 108.846C75.4292 76.567 80.1819 74.2904 80.1819 74.2904C83.3159 70.3729 84.6907 72.3317 84.299 83.2933C83.9294 93.5601 83.3898 115.506 85.4151 121.145C85.5224 121.467 85.6715 121.772 85.8586 122.054C88.4087 125.58 88.8152 124.035 91.6979 127.598C95.1128 131.833 93.3684 137.71 91.7497 138.515Z" fill="#E0CC00"/>
<path d="M85.4298 121.16C83.5966 120.478 81.8421 119.601 80.1966 118.543C76.7152 116.274 74.4016 112.556 72.8716 108.86C75.4438 76.5817 80.1966 74.3051 80.1966 74.3051C83.3306 70.3876 84.7054 72.3463 84.3137 83.3079C83.9441 93.5748 83.4045 115.52 85.4298 121.16Z" fill="#E2C100"/>
<path d="M89.2659 142.477C88.8521 142.602 88.4297 142.696 88.002 142.758C87.529 142.851 87.0388 142.797 86.5976 142.603C85.7375 142.212 84.9521 141.674 84.2766 141.014C83.6035 140.358 83.0826 139.563 82.7505 138.685C82.4184 137.806 82.2833 136.865 82.3548 135.928C82.3548 135.633 81.8892 135.566 81.8374 135.854C81.6078 137.016 81.6364 138.214 81.9212 139.364C82.2061 140.514 82.7402 141.586 83.4857 142.507C84.3062 143.52 85.4937 144.168 86.7898 144.31C87.394 144.385 88.0072 144.303 88.5711 144.074C88.8363 143.966 89.0687 143.79 89.245 143.565C89.4214 143.339 89.5356 143.071 89.5764 142.788C89.6207 142.618 89.4507 142.433 89.2659 142.477Z" fill="#E2C100"/>
<path d="M84.1731 141.827C83.3901 142.307 82.47 142.515 81.5565 142.418C80.5661 142.227 79.6799 141.68 79.0655 140.881C78.3802 139.992 77.9234 138.949 77.7351 137.843C77.469 136.49 77.6464 135.13 77.4985 133.777C77.5048 133.729 77.5015 133.679 77.4888 133.632C77.476 133.585 77.4541 133.541 77.4242 133.502C77.3944 133.463 77.3572 133.431 77.3148 133.406C77.2723 133.382 77.2255 133.366 77.177 133.36C77.1285 133.353 77.0792 133.357 77.0319 133.369C76.9846 133.382 76.9404 133.404 76.9016 133.434C76.8233 133.494 76.7721 133.583 76.7594 133.681C76.3064 135.328 76.2181 137.053 76.5007 138.737C76.6833 140.132 77.2487 141.45 78.1342 142.544C79.7455 144.48 83.6187 145.412 85.2227 142.913C85.6662 142.189 84.8161 141.501 84.1731 141.827Z" fill="#E2C100"/>
<path d="M97.7146 48.9521C96.6347 50.7764 95.0581 52.2556 93.1688 53.217C91.954 53.8618 90.5788 54.1421 89.2085 54.024C87.8383 53.906 86.5313 53.3948 85.4446 52.5518C85.4446 52.5518 80.2114 39.3579 82.7615 36.4235L82.8428 36.3348C85.585 33.7773 98.9489 46.6386 97.7146 48.9521Z" fill="#732B60"/>
<path d="M84.6244 41.0432C84.6244 41.0432 88.8672 48.6121 90.8186 50.8961C87.8619 52.9214 86.9084 52.5297 86.9084 52.5297C86.9084 52.5297 84.3584 45.9364 84.6244 41.0432Z" fill="#914A82"/>
<path d="M97.7145 48.9521C96.6347 50.7764 95.0581 52.2556 93.1687 53.217C90.2232 47.3006 86.7682 41.6519 82.8428 36.3348C85.585 33.7773 98.9489 46.6386 97.7145 48.9521Z" fill="#591B4C"/>
<path d="M173.434 52.9953C172.334 53.6711 171.072 54.0351 169.781 54.0481C168.491 54.0611 167.221 53.7227 166.109 53.0692C164.139 51.9034 162.573 50.1622 161.622 48.0799C160.705 45.7959 173.389 35.7952 177.115 36.7339C177.413 36.7982 177.677 36.9723 177.854 37.2218C180.071 40.4297 173.434 52.9953 173.434 52.9953Z" fill="#732B60"/>
<path d="M163.662 48.2647C165.853 44.5935 169.183 41.7385 173.145 40.134C168.186 46.9194 166.537 49.4473 166.537 49.4473L163.662 48.2647Z" fill="#914A82"/>
<path d="M173.433 52.9953C172.334 53.6712 171.072 54.0351 169.781 54.0481C168.491 54.0611 167.221 53.7228 166.108 53.0692C170.388 47.5108 175.17 39.9123 177.114 36.7339C177.413 36.7982 177.677 36.9723 177.854 37.2218C180.071 40.4297 173.433 52.9953 173.433 52.9953Z" fill="#591B4C"/>
<path d="M87.3665 50.6966C79.7163 55.2128 77.4471 59.049 76.6636 79.4127C75.8801 99.7763 77.181 107.863 82.1407 113.606C87.1004 119.349 113.185 121.175 129.646 120.657C146.107 120.14 167.239 120.657 172.458 113.865C177.676 107.072 178.726 80.1962 177.159 63.4913C175.592 46.7864 163.374 47.0821 154.186 46.0029C138.782 44.1772 100.679 42.8689 87.3665 50.6966Z" fill="#E0CC00"/>
<path d="M80.5884 91.3352C80.5884 91.3352 79.0288 107.39 87.2408 113.65C95.4528 119.911 158.695 119.135 166.715 113.65C174.734 108.166 175.133 88.2012 175.133 88.2012C175.133 88.2012 170.24 102.888 158.303 105.202C146.366 107.515 95.0684 108.897 90.567 106.185C86.0655 103.472 80.788 94.8609 80.5884 91.3352Z" fill="#E2C100"/>
<path d="M136.454 63.8239C135.534 66.5407 135.508 69.4807 136.38 72.2133C137.902 76.9439 143.239 79.6048 148.583 79.08C156.233 78.3409 159.862 70.8459 156.662 62.6856C148.805 63.1365 136.454 63.8239 136.454 63.8239Z" fill="#D6B200"/>
<path d="M156.314 68.2293C155.93 72.8786 153.107 76.0052 148.76 76.6187C144.414 77.2322 140.903 76.0052 138.316 72.1838C135.729 68.3623 137.096 63.4913 137.096 63.4913L138.006 63.4322L140.053 63.3435L152.818 62.6043L154.297 62.523L155.642 62.4417C155.642 62.4417 156.684 63.58 156.314 68.2293Z" fill="white"/>
<path d="M156.314 68.2293C155.93 72.8785 153.107 76.0051 148.76 76.6186C144.414 77.2321 140.903 76.0051 138.316 72.1837C135.729 68.3623 137.096 63.4913 137.096 63.4913L138.006 63.4321C137.784 66.1744 137.932 70.4171 140.341 73.0411C144.037 77.0843 150.689 75.436 152.478 73.0411C154.267 70.6463 154.799 67.6231 154.274 62.486L155.62 62.4047C155.62 62.4047 156.684 63.58 156.314 68.2293Z" fill="#FDDCC0"/>
<path d="M146.093 68.7614C148.178 69.6519 150.316 70.4146 152.494 71.0454C151.961 72.265 148.798 74.002 146.58 74.172C145.084 74.2438 143.607 73.8085 142.389 72.9365C141.171 72.0646 140.283 70.807 139.869 69.3675C139.225 67.3918 139.304 65.2518 140.091 63.3286L152.856 62.5895C153.376 64.0143 153.677 65.5095 153.75 67.0244C153.721 67.2314 146.093 68.7614 146.093 68.7614Z" fill="#591B4C"/>
<path d="M134.539 58.9085C134.392 59.3372 134.769 64.0826 135.397 64.393C141.399 64.1121 158.163 63.2547 158.214 62.5673C158.266 61.8799 136.483 62.5673 136.542 62.3382C136.602 62.109 134.769 58.1694 134.539 58.9085Z" fill="#D6B200"/>
<path d="M120.052 63.1365C120.052 63.1365 123.947 70.6019 117.095 76.4412C111.655 81.0831 101.817 78.8065 99.2373 73.6916C96.6577 68.5766 99.2965 61.5103 99.2965 61.5103L120.052 63.1365Z" fill="#D6B200"/>
<path d="M118.137 71.8733C115.55 75.6873 112.039 76.9069 107.686 76.3082C103.332 75.7095 100.523 72.5755 100.139 67.9262C99.7546 63.2769 100.834 62.1238 100.834 62.1238L102.563 62.2273L103.628 62.2865L104.529 62.3456L116.275 63.0182H116.356L117.96 63.1069L119.327 63.1808C119.327 63.1808 120.732 68.0666 118.137 71.8733Z" fill="white"/>
<path d="M118.137 71.8733C115.55 75.6873 112.039 76.9069 107.686 76.3082C103.332 75.7095 100.523 72.5755 100.139 67.9262C99.7546 63.2769 100.834 62.1238 100.834 62.1238L102.563 62.2273C101.625 65.3539 100.752 72.9081 106.703 74.9777C113.917 77.4834 120.066 70.9493 117.989 63.1513L119.357 63.2252C119.357 63.2252 120.732 68.0666 118.137 71.8733Z" fill="#FDDCC0"/>
<path d="M110.11 68.9758C112.18 69.7125 114.328 70.2085 116.511 70.4541C115.949 71.5084 115.151 72.4185 114.179 73.1135C113.207 73.8084 112.088 74.2694 110.909 74.4603C108.735 74.8003 105.187 73.8838 103.931 69.4267C103.258 67.0651 103.471 64.5391 104.53 62.3234L116.275 63.0034C116.597 64.478 116.639 65.9999 116.4 67.4901L110.11 68.9758Z" fill="#591B4C"/>
<path d="M121.663 63.9052C122.956 62.146 122.653 57.7259 122.04 57.4967C121.426 57.2676 119.601 61.9908 119.601 61.9908C119.601 61.9908 95.6596 60.4681 96.5687 61.9169C96.9383 62.5008 120.443 64.2821 121.663 63.9052Z" fill="#D6B200"/>
<path d="M146.595 90.2412C145.921 92.5911 144.433 94.6245 142.397 95.977C141.693 96.455 140.951 96.8753 140.179 97.2335L140.039 97.2927C139.318 97.6273 138.578 97.9161 137.821 98.1575C137.082 98.394 136.299 98.5936 135.5 98.7636H135.375C134.635 98.9188 133.852 99.0445 133.068 99.148H132.987C132.248 99.2367 131.509 99.3106 130.77 99.3549H130.533C129.868 99.3993 129.195 99.4214 128.515 99.4288H127.961C127.377 99.4288 126.8 99.4288 126.239 99.3919H125.965C125.226 99.3549 124.487 99.3032 123.748 99.2293H123.666C122.861 99.1406 122.085 99.0297 121.345 98.8966H121.212C120.422 98.7518 119.64 98.5667 118.869 98.3423H118.803C118.049 98.1158 117.309 97.8468 116.585 97.5366L116.356 97.4627C115.561 97.1143 114.797 96.6989 114.072 96.2209C112.678 95.3141 111.48 94.1381 110.546 92.7617C107.863 88.7259 108.728 83.3818 112.986 81.8887C113.465 81.7231 113.96 81.6091 114.464 81.5487C114.93 81.4896 115.381 81.4526 115.831 81.4378H116.208C117.196 81.412 118.184 81.459 119.165 81.5783C120.185 81.6965 121.161 81.8739 122.122 82.0661C123.068 82.2657 123.992 82.4727 124.901 82.6574H125.049C125.93 82.8406 126.821 82.9787 127.717 83.0714H127.857C128.072 83.0714 128.294 83.0714 128.508 83.1157C129.247 83.1157 129.986 83.1157 130.629 83.1157C131.612 83.0788 132.529 82.9975 133.379 82.8866H133.652C134.635 82.7461 135.53 82.5761 136.358 82.4061L136.609 82.3544C137.599 82.1548 138.501 81.9553 139.344 81.8148L139.824 81.7483C140.167 81.701 140.513 81.6714 140.859 81.6596C141.44 81.638 142.02 81.6877 142.589 81.8074C145.331 82.3766 148.192 84.6236 146.595 90.2412Z" fill="#732B60"/>
<path d="M123.607 90.8178C123.447 89.6398 123.584 88.4404 124.006 87.329C124.575 85.4367 126.179 84.9859 127.037 86.0133C127.894 87.0407 127.096 89.8421 128.641 89.7904C130.185 89.7386 130.636 89.2138 130.466 87.9573C130.296 86.7007 129.321 86.3016 130.466 85.3259C131.612 84.3502 136.816 87.0407 134.702 91.1061C132.588 95.1714 124.745 95.0457 123.607 90.8178Z" fill="#591B4C"/>
<path d="M128.523 92.0373C126.357 91.8525 124.938 89.635 120.71 89.8642C116.674 90.0785 115.44 92.6138 116.016 95.09C117.125 96.8787 121.279 98.8966 128.87 98.6675C136.461 98.4383 139.47 96.4944 140.534 95.3191C141.598 94.1439 141 90.4333 138.206 89.9381C133.482 89.1028 132.618 92.3773 128.523 92.0373Z" fill="#C1472A"/>
<path d="M137.873 91.8748C136.313 91.1356 134.561 91.9339 133.238 92.8135C132.568 93.3064 131.85 93.7299 131.095 94.0775C130.324 94.3734 129.471 94.3734 128.7 94.0775C126.992 93.5083 125.521 92.4513 123.784 91.9339C122.262 91.4756 120.562 91.3648 119.194 92.3183C119.083 92.3922 119.15 92.6065 119.29 92.5548C120.968 91.9043 122.624 92.7692 123.918 93.8114C125.211 94.8536 126.8 96.0288 128.567 96.2136C129.388 96.2993 130.218 96.212 131.004 95.9574C131.789 95.7028 132.513 95.2865 133.127 94.7353C134.406 93.7227 135.692 92.4439 137.459 92.8357C138.028 92.9761 138.449 92.1704 137.873 91.8748Z" fill="#F26F4B"/>
<path d="M119.15 81.3567V81.2828C119.154 81.3073 119.154 81.3322 119.15 81.3567Z" fill="white"/>
<path d="M119.143 81.2828C119.146 81.3073 119.146 81.3322 119.143 81.3567V81.2828Z" fill="white"/>
<path d="M136.461 81.2828V81.3567C136.457 81.3322 136.457 81.3073 136.461 81.2828Z" fill="white"/>
<path d="M136.461 81.2828V81.3567C136.457 81.3322 136.457 81.3073 136.461 81.2828Z" fill="white"/>
<path d="M142.138 95.9697C141.436 96.4534 140.694 96.8763 139.92 97.2336L139.795 97.2928C139.129 97.5976 138.445 97.8618 137.747 98.0837V98.1576C137.754 98.1992 137.754 98.2416 137.747 98.2832C137.741 98.2441 137.741 98.2041 137.747 98.165L137.577 98.2093V98.2832C137.577 98.2832 137.577 98.2389 137.577 98.2093C136.873 98.433 136.157 98.6205 135.434 98.7711H135.315C134.586 98.9189 133.847 99.0446 133.098 99.148H133.009C132.359 99.2441 131.693 99.2959 131.028 99.3476H130.784C130.112 99.392 129.446 99.4141 128.766 99.4215H128.182C127.599 99.4215 127.029 99.4215 126.468 99.3846H126.216C125.477 99.3476 124.738 99.2959 123.999 99.222H123.903C123.105 99.1333 122.328 99.0298 121.589 98.8893H121.449C120.664 98.7437 119.887 98.5586 119.12 98.335H119.047C118.292 98.1118 117.551 97.8427 116.829 97.5293L116.6 97.4406C115.805 97.0839 115.039 96.6662 114.309 96.1914C114.309 95.8958 114.309 95.5631 114.353 95.2231C114.434 94.1588 114.686 93.0057 115.314 92.9613C115.942 92.917 116.46 94.1809 116.718 95.541C116.844 94.7131 117.103 93.9814 117.598 93.9296C118.263 93.8631 118.906 95.5336 119.076 97.071C119.165 95.9697 119.401 94.7427 120.044 94.6762C120.687 94.6096 121.257 96.0436 121.523 97.4776C121.604 96.4058 121.848 95.2601 122.484 95.1862C123.119 95.1123 123.748 96.6645 123.962 98.1871C123.962 98.1871 123.962 98.2315 123.962 98.2611V98.1871C124.028 97.0636 124.265 95.7701 124.938 95.7036C125.485 95.6518 126.002 96.7532 126.275 98.0024C126.379 97.0045 126.63 95.9919 127.229 95.9327C127.828 95.8736 128.345 97.1006 128.611 98.4311C128.796 97.241 129.203 96.2136 129.727 96.2136C130.252 96.2136 130.526 96.8936 130.725 97.6919C130.925 96.6423 131.309 95.7849 131.782 95.7923C132.876 95.7923 132.839 96.8641 132.943 97.8989C133.061 96.4797 133.512 95.0531 134.125 95.0679C134.739 95.0827 135.101 96.1988 135.278 97.2854C135.389 95.8071 135.84 94.3288 136.468 94.3288C137.097 94.3288 137.326 95.1123 137.518 95.9919C137.67 95.036 138.064 94.135 138.664 93.3753C139.159 93.3753 139.484 94.1144 139.684 94.8979C139.817 93.5157 140.253 92.1926 140.852 92.2074C141.805 92.2074 142.064 93.294 142.145 94.3214C142.145 94.9866 142.116 95.6075 142.138 95.9697Z" fill="white"/>
<path d="M142.138 95.9697C141.436 96.4534 140.694 96.8763 139.92 97.2336L139.795 97.2927C139.129 97.5976 138.445 97.8617 137.747 98.0836V98.1576C137.754 98.1992 137.754 98.2416 137.747 98.2832C137.741 98.2441 137.741 98.2041 137.747 98.1649L137.577 98.2093V98.2832C137.577 98.2832 137.577 98.2389 137.577 98.2093C136.873 98.433 136.157 98.6205 135.434 98.771H135.315C134.586 98.9189 133.847 99.0445 133.098 99.148H133.009C132.359 99.2441 131.693 99.2958 131.028 99.3476H130.784C130.112 99.3919 129.446 99.4141 128.766 99.4215H128.182C127.599 99.4215 127.029 99.4215 126.468 99.3845H126.216C125.477 99.3476 124.738 99.2958 123.999 99.2219H123.903C123.105 99.1332 122.328 99.0298 121.589 98.8893H121.449C120.664 98.7436 119.887 98.5586 119.12 98.3349H119.047C118.292 98.1118 117.551 97.8427 116.829 97.5293L116.6 97.4406C115.805 97.0839 115.039 96.6662 114.309 96.1914C114.309 95.8957 114.309 95.5631 114.353 95.2231C115.197 95.7739 116.112 96.2066 117.073 96.5092C119.309 97.2675 121.606 97.8289 123.94 98.1871C128.729 98.9263 135.204 98.0762 139.218 96.1175C140.393 95.5409 141.28 94.824 142.123 94.3214C142.145 94.9866 142.116 95.6075 142.138 95.9697Z" fill="#FDDCC0"/>
<path d="M115.824 81.4305C115.735 81.8674 115.606 82.2954 115.439 82.7092C115.003 83.8179 114.323 84.9267 113.961 84.8675C113.599 84.8084 113.348 84.1284 113.222 83.2636C113.141 82.8053 113.074 82.3249 113.03 81.8888C113.509 81.7245 114.005 81.6105 114.508 81.5487C114.915 81.497 115.373 81.46 115.824 81.4305Z" fill="white"/>
<path d="M119.143 81.5635C119.077 82.0729 118.94 82.5705 118.736 83.0418C118.3 84.1727 117.605 85.3036 117.258 85.2593C116.755 85.1928 116.519 83.8475 116.341 82.6501C116.282 82.1918 116.245 81.7557 116.223 81.4305C117.198 81.408 118.174 81.4524 119.143 81.5635Z" fill="white"/>
<path d="M122.114 82.0588C122.015 82.6309 121.849 83.1892 121.619 83.7219C121.183 84.7641 120.554 85.7398 120.207 85.7102C119.712 85.6511 119.468 84.3502 119.298 83.175C119.224 82.5245 119.179 81.911 119.157 81.5636C120.17 81.6819 121.153 81.8667 122.114 82.0588Z" fill="white"/>
<path d="M125.056 82.6871C125.037 82.8424 125.005 82.9957 124.96 83.1454C124.844 83.5514 124.701 83.949 124.531 84.3354C124.088 85.3259 123.519 86.1981 123.186 86.1611C122.735 86.1168 122.447 84.9785 122.314 83.8771C122.21 83.138 122.158 82.458 122.129 82.0662C123.09 82.2584 124.006 82.4728 124.908 82.6502L125.056 82.6871Z" fill="white"/>
<path d="M127.739 83.101C127.602 83.6103 127.416 84.1054 127.185 84.5793C126.763 85.5181 126.246 86.2572 125.965 86.2572C125.684 86.2572 125.314 85.385 125.159 84.4537C125.078 84.025 125.026 83.5667 124.989 83.1602C124.989 82.9828 124.989 82.8201 124.938 82.6649L125.085 82.7019C125.962 82.8821 126.848 83.0153 127.739 83.101Z" fill="white"/>
<path d="M142.611 81.8222C142.611 82.1917 142.529 82.5613 142.463 82.99C142.3 83.9509 142.041 84.8305 141.642 84.8749C141.243 84.9192 140.667 83.9288 140.231 82.8792C140.074 82.5175 139.946 82.1443 139.846 81.763C140.187 81.7161 140.53 81.6865 140.874 81.6743C141.456 81.6528 142.04 81.7024 142.611 81.8222Z" fill="white"/>
<path d="M139.373 81.8223C139.373 82.1402 139.307 82.5097 139.255 82.8793C139.107 84.0102 138.834 85.1929 138.361 85.252C137.998 85.252 137.341 84.232 136.882 83.138C136.775 82.8853 136.684 82.6261 136.609 82.3619C137.622 82.1623 138.531 81.9554 139.373 81.8223Z" fill="white"/>
<path d="M136.38 82.4136C136.38 82.6723 136.328 82.9532 136.291 83.2414C136.15 84.4019 135.877 85.6511 135.389 85.7102C135.042 85.7102 134.428 84.7789 133.985 83.7367C133.866 83.459 133.763 83.1753 133.674 82.8866C134.657 82.7536 135.574 82.5614 136.38 82.4136Z" fill="white"/>
<path d="M133.401 82.9236C133.401 83.2267 133.335 83.5667 133.298 83.8993C133.142 85.0081 132.869 86.1168 132.418 86.1611C132.085 86.1611 131.531 85.3481 131.095 84.3872C130.917 83.9889 130.766 83.5789 130.644 83.1602C131.642 83.1232 132.551 83.0345 133.401 82.9236Z" fill="white"/>
<path d="M130.644 83.1601C130.6 83.574 130.548 84.0397 130.474 84.4758C130.311 85.385 130.06 86.198 129.668 86.2424C129.276 86.2867 128.84 85.5032 128.434 84.6089C128.201 84.1345 128.013 83.6397 127.872 83.1306C128.086 83.1306 128.301 83.1306 128.523 83.1749C129.269 83.1823 129.971 83.1823 130.644 83.1601Z" fill="white"/>
<path d="M114.456 81.5487C114.915 81.497 115.373 81.46 115.824 81.4305C115.735 81.8674 115.606 82.2954 115.439 82.7092C114.684 82.8194 113.941 83.0051 113.222 83.2636C113.141 82.8053 113.074 82.3249 113.03 81.8888C113.493 81.7279 113.971 81.614 114.456 81.5487Z" fill="#FDDCC0"/>
<path d="M116.201 81.4231C117.188 81.4014 118.176 81.4483 119.157 81.5636C119.092 82.0729 118.955 82.5706 118.751 83.0419C118.3 82.931 117.871 82.8423 117.502 82.761C117.125 82.6812 116.741 82.6416 116.356 82.6427C116.26 82.1845 116.223 81.7484 116.201 81.4231Z" fill="#FDDCC0"/>
<path d="M119.157 81.5636C120.17 81.6819 121.153 81.8667 122.114 82.0588C122.015 82.6309 121.849 83.1892 121.619 83.7219C120.828 83.5297 120.029 83.3376 119.298 83.175C119.224 82.5615 119.179 81.911 119.157 81.5636Z" fill="#FDDCC0"/>
<path d="M127.739 83.101C127.602 83.6104 127.416 84.1054 127.185 84.5793H126.268C125.887 84.5525 125.507 84.5056 125.13 84.4389C125.049 84.0102 124.997 83.5519 124.96 83.1454C124.844 83.5514 124.701 83.949 124.531 84.3354C123.851 84.2098 123.097 84.0472 122.314 83.8771C122.21 83.138 122.158 82.458 122.129 82.0662C123.09 82.2584 124.006 82.4728 124.908 82.6502L125.056 82.6871C125.942 82.8733 126.838 83.0115 127.739 83.101Z" fill="#FDDCC0"/>
<path d="M130.644 83.1601C130.6 83.574 130.548 84.0397 130.474 84.4758C129.798 84.5681 129.116 84.6126 128.434 84.6089C128.201 84.1345 128.013 83.6397 127.872 83.1306C128.086 83.1306 128.301 83.1306 128.523 83.1749C129.269 83.1823 129.971 83.1823 130.644 83.1601Z" fill="#FDDCC0"/>
<path d="M133.401 82.9236C133.401 83.2267 133.335 83.5667 133.298 83.8993L132.655 84.0545C132.108 84.2024 131.583 84.3059 131.095 84.3872C130.917 83.9889 130.766 83.5789 130.644 83.1602C131.642 83.1232 132.551 83.0345 133.401 82.9236Z" fill="#FDDCC0"/>
<path d="M133.674 82.8866C134.657 82.7536 135.552 82.591 136.38 82.4136C136.38 82.6723 136.328 82.9532 136.291 83.2414C135.618 83.3745 134.813 83.5297 133.985 83.7367C133.866 83.459 133.763 83.1753 133.674 82.8866Z" fill="#FDDCC0"/>
<path d="M136.631 82.3619C137.621 82.1623 138.523 81.9554 139.373 81.8223C139.373 82.1402 139.307 82.5097 139.255 82.8793C138.952 82.8793 138.678 82.8793 138.464 82.8793C138.05 82.9163 137.518 82.9902 136.904 83.1011C136.798 82.8604 136.707 82.6136 136.631 82.3619Z" fill="#FDDCC0"/>
<path d="M142.611 81.8222C142.611 82.1917 142.529 82.5613 142.463 82.99L142.337 82.9235C142.337 82.9235 141.295 82.9235 140.231 82.8792C140.074 82.5175 139.946 82.1443 139.846 81.763C140.187 81.7161 140.53 81.6865 140.874 81.6743C141.456 81.6528 142.04 81.7024 142.611 81.8222Z" fill="#FDDCC0"/>
<path d="M147.312 85.4441C146.946 84.1109 146.17 82.9265 145.094 82.0588C143.783 81.0951 142.171 80.6311 140.548 80.7505C138.785 80.8635 137.033 81.1106 135.308 81.4896C131.08 82.2288 126.926 82.554 122.742 81.6448C121.02 81.2679 119.283 80.9057 117.568 80.6765C114.434 80.2996 111.204 80.9279 109.364 83.7219C108.604 84.9547 108.169 86.3597 108.099 87.806C108.03 89.2523 108.327 90.6928 108.964 91.993C110.317 94.9496 113.008 96.9971 115.912 98.2462C119.317 99.6278 122.931 100.423 126.601 100.597C130.199 100.876 133.817 100.436 137.244 99.3032C140.33 98.242 143.079 96.3828 145.213 93.9148C146.212 92.718 146.957 91.3296 147.4 89.8347C147.781 88.3916 147.751 86.8706 147.312 85.4441ZM145.183 91.9634C143.527 94.4194 141.174 96.3242 138.427 97.4332C132.292 100.057 125.396 99.6063 119.069 97.9136C116.112 97.1227 113.244 95.6961 111.278 93.3235C110.397 92.3337 109.785 91.134 109.502 89.8395C109.218 88.545 109.272 87.1994 109.659 85.9319C110.094 84.5447 111.037 83.3727 112.298 82.6501C113.768 81.9537 115.408 81.697 117.021 81.9109C118.869 82.0588 120.717 82.4875 122.506 82.8053C123.407 82.9531 124.294 83.0418 125.204 83.2266C127.51 83.6053 129.866 83.5502 132.152 83.064C133.948 82.7831 135.759 82.5688 137.555 82.3249C140.29 81.9701 143.749 81.4674 145.589 84.0471C147.29 86.4937 146.661 89.6055 145.183 91.9634Z" fill="#D6B200"/>
<path d="M179.999 147.509C182.46 148.025 184.804 146.057 185.235 143.109C185.694 143.893 186.153 144.678 186.612 145.464C186.182 148.411 183.836 150.38 181.378 149.864C180.919 149.078 180.459 148.293 179.999 147.509Z" fill="#FFBA49"/>
<path d="M107.332 210.563C109.793 211.079 112.137 209.11 112.568 206.163C113.027 206.947 113.486 207.731 113.945 208.517C113.515 211.464 111.169 213.434 108.711 212.918C108.252 212.132 107.792 211.347 107.332 210.563Z" fill="#ABB4BD"/>
<path d="M185.494 98.1688C186.526 100.893 189.205 102.103 191.481 100.867C191.199 101.765 190.917 102.662 190.634 103.559C188.358 104.793 185.679 103.584 184.648 100.859C184.932 99.9633 185.214 99.0666 185.494 98.1688Z" fill="#FF5C00"/>
<path d="M169.571 78.8197C169.987 75.8687 168.327 73.0745 165.864 72.5774C166.515 72.0213 167.167 71.4653 167.82 70.9095C170.282 71.4067 171.942 74.202 171.528 77.1519C170.876 77.7081 170.224 78.264 169.571 78.8197Z" fill="#021193"/>
<path d="M21.7077 66.9101C22.123 63.9591 20.4636 61.1648 18 60.6677C18.6515 60.1116 19.3035 59.5557 19.9563 59C22.418 59.497 24.0783 62.2923 23.664 65.2423C23.0125 65.7984 22.3604 66.3543 21.7077 66.9101Z" fill="#FF5C00"/>
<path d="M72.0943 171.475C72.5097 168.523 70.8503 165.729 68.3867 165.232C69.0382 164.676 69.6902 164.12 70.3429 163.564C72.8046 164.061 74.4649 166.857 74.0506 169.807C73.3992 170.363 72.7471 170.919 72.0943 171.475Z" fill="#FF5C00"/>
<path d="M201.332 60.8891C203.777 61.5061 206.174 59.6327 206.689 56.7032C207.126 57.5058 207.563 58.309 208 59.1129C207.486 62.0395 205.087 63.914 202.644 63.2988C202.206 62.4962 201.769 61.693 201.332 60.8891Z" fill="#FFBA49"/>
<path d="M5.82079 97.1413C4.94465 94.3384 2.33935 92.9172 0 93.968C0.330918 93.0967 0.662322 92.2241 0.994215 91.3504C3.33162 90.3007 5.93838 91.7209 6.815 94.5225C6.4841 95.395 6.15269 96.2679 5.82079 97.1413Z" fill="#FFBA49"/>
<path d="M66.5339 131.279C66.7066 134.264 68.8667 136.516 71.3577 136.308C70.8324 137.033 70.3061 137.754 69.7818 138.479C67.2898 138.685 65.1306 136.432 64.958 133.447C65.4833 132.726 66.0086 132.003 66.5339 131.279Z" fill="#DB3022"/>
<path d="M48.9287 77.0531C51.4027 76.6419 53.1295 73.9049 52.7852 70.9409C53.4244 71.5196 54.0625 72.0977 54.6998 72.6751C55.043 75.6403 53.3173 78.3755 50.8432 78.7885C50.206 78.2096 49.5678 77.6312 48.9287 77.0531Z" fill="#021193"/>
<path d="M149.812 40.7055C146.604 40.8118 148.91 46.4645 145.701 46.573C145.088 45.9567 144.476 45.3403 143.862 44.724C147.071 44.6172 144.765 38.9644 147.973 38.856C148.586 39.4724 149.199 40.0889 149.812 40.7055Z" fill="#FF5C00"/>
<path d="M155.641 189.278C152.519 188.392 153.531 194.565 150.407 193.68C149.947 192.895 149.488 192.11 149.028 191.325C152.152 192.211 151.139 186.038 154.264 186.924C154.722 187.709 155.182 188.494 155.641 189.278Z" fill="#FFBA49"/>
<path d="M62.7804 197.315C60.5748 200.11 65.5417 202.157 63.3361 204.949C62.5396 205.031 61.7421 205.116 60.9456 205.197C63.1512 202.404 58.1842 200.359 60.3898 197.565C61.1873 197.483 61.9842 197.4 62.7804 197.315Z" fill="#021193"/>
<path d="M134.225 4.35469C131.085 5.15391 134.201 10.2188 131.063 11.0163C130.369 10.5414 129.671 10.0682 128.977 9.59218C132.116 8.79516 128.997 3.73212 132.138 2.93286C132.834 3.4089 133.53 3.88284 134.225 4.35469Z" fill="#DB3022"/>
<path d="M33.444 21.0038C34.9887 24.3758 38.1373 19.3394 39.6796 22.7103C39.5005 23.6435 39.3235 24.5803 39.1434 25.5141C37.6011 22.1422 34.4543 27.1802 32.9097 23.8083C33.0893 22.8721 33.2674 21.9373 33.444 21.0038Z" fill="#ABB4BD"/>
<path d="M6.81494 153.583C7.22927 153.508 7.60411 153.29 7.87404 152.966C8.14398 152.643 8.29185 152.235 8.29185 151.814C8.29185 151.392 8.14398 150.984 7.87404 150.661C7.60411 150.337 7.22927 150.119 6.81494 150.044" fill="black"/>
<path d="M174.448 16.8658C173.098 16.8658 172 15.5501 172 13.9328C172 12.3156 173.098 11 174.448 11C175.798 11 176.896 12.3156 176.896 13.9329C176.896 15.5501 175.798 16.8658 174.448 16.8658ZM174.448 12.1634C174.019 12.2058 173.624 12.415 173.348 12.7459C173.072 13.0768 172.936 13.5031 172.971 13.9329C172.932 14.1493 172.941 14.3716 172.997 14.5842C173.053 14.7968 173.155 14.9945 173.296 15.1633C173.437 15.332 173.613 15.4678 173.812 15.561C174.011 15.6541 174.228 15.7024 174.448 15.7024C174.668 15.7024 174.885 15.6541 175.084 15.561C175.283 15.4678 175.459 15.332 175.6 15.1633C175.741 14.9945 175.843 14.7968 175.899 14.5842C175.955 14.3716 175.964 14.1493 175.925 13.9329C175.959 13.5031 175.824 13.0768 175.548 12.7459C175.272 12.415 174.877 12.2058 174.448 12.1634Z" fill="black"/>
<path d="M31.9474 127.983C30.5976 127.983 29.4995 126.668 29.4995 125.05C29.4995 123.433 30.5976 122.117 31.9474 122.117C33.2972 122.117 34.3953 123.433 34.3953 125.05C34.3953 126.668 33.2972 127.983 31.9474 127.983ZM31.9474 123.281C31.5331 123.356 31.1582 123.574 30.8883 123.897C30.6184 124.221 30.4705 124.629 30.4705 125.05C30.4705 125.472 30.6184 125.88 30.8883 126.203C31.1582 126.526 31.5331 126.745 31.9474 126.82C32.3617 126.745 32.7366 126.526 33.0065 126.203C33.2764 125.88 33.4243 125.472 33.4243 125.05C33.4243 124.629 33.2764 124.221 33.0065 123.897C32.7366 123.574 32.3617 123.356 31.9474 123.281Z" fill="black"/>
</g>
<defs>
<clipPath id="clip0_79_1342">
<rect width="208" height="213" fill="white"/>
</clipPath>
</defs>
</svg>
