<svg width="44" height="46" viewBox="0 0 44 46" fill="none" xmlns="http://www.w3.org/2000/svg">
<g filter="url(#filter0_d_145_1771)">
<ellipse cx="22" cy="18.8" rx="18" ry="18.2769" fill="#2A2C36"/>
</g>
<path d="M16.1752 12.7512C15.9632 13.1387 15.6536 13.4529 15.2826 13.6571C15.0441 13.7941 14.7741 13.8536 14.505 13.8285C14.236 13.8035 13.9793 13.6949 13.7659 13.5158C13.7659 13.5158 12.7384 10.7133 13.2391 10.09L13.2551 10.0711C13.7935 9.52787 16.4176 12.2598 16.1752 12.7512Z" fill="#732B60"/>
<path d="M13.6049 11.0713C13.6049 11.0713 14.438 12.679 14.8211 13.1642C14.2406 13.5944 14.0534 13.5111 14.0534 13.5111C14.0534 13.5111 13.5526 12.1107 13.6049 11.0713Z" fill="#914A82"/>
<path d="M16.175 12.7512C15.963 13.1387 15.6534 13.4529 15.2825 13.6571C14.7041 12.4004 14.0257 11.2005 13.2549 10.0711C13.7933 9.52787 16.4174 12.2598 16.175 12.7512Z" fill="#591B4C"/>
<path d="M31.0429 13.61C30.8271 13.7535 30.5792 13.8308 30.3258 13.8336C30.0724 13.8364 29.8231 13.7645 29.6046 13.6257C29.2178 13.378 28.9103 13.0082 28.7236 12.5659C28.5437 12.0807 31.0342 9.95647 31.7657 10.1559C31.8244 10.1695 31.8762 10.2065 31.9108 10.2595C32.3463 10.9409 31.0429 13.61 31.0429 13.61Z" fill="#732B60"/>
<path d="M29.124 12.6051C29.5542 11.8253 30.2081 11.2189 30.9861 10.8781C30.0123 12.3194 29.6886 12.8563 29.6886 12.8563L29.124 12.6051Z" fill="#914A82"/>
<path d="M31.0433 13.61C30.8274 13.7535 30.5795 13.8309 30.3261 13.8336C30.0728 13.8364 29.8235 13.7645 29.605 13.6257C30.4453 12.445 31.3844 10.831 31.7661 10.1559C31.8247 10.1695 31.8765 10.2065 31.9112 10.2595C32.3466 10.9409 31.0433 13.61 31.0433 13.61Z" fill="#591B4C"/>
<path d="M14.1431 13.1217C12.6409 14.081 12.1954 14.8958 12.0415 19.2213C11.8877 23.5468 12.1431 25.2644 13.117 26.4844C14.0909 27.7043 19.2127 28.0921 22.445 27.9822C25.6772 27.8723 29.8266 27.9822 30.8513 26.5393C31.876 25.0965 32.0821 19.3878 31.7744 15.8394C31.4667 12.2911 29.0676 12.3539 27.2635 12.1247C24.2389 11.7369 16.757 11.459 14.1431 13.1217Z" fill="#E0CC00"/>
<path d="M12.8123 21.7538C12.8123 21.7538 12.506 25.164 14.1185 26.4938C15.731 27.8236 28.1489 27.6588 29.7237 26.4938C31.2984 25.3288 31.3768 21.0881 31.3768 21.0881C31.3768 21.0881 30.416 24.2078 28.072 24.6992C25.728 25.1907 15.6555 25.4843 14.7716 24.9081C13.8877 24.3319 12.8515 22.5027 12.8123 21.7538Z" fill="#E2C100"/>
<path d="M23.7819 15.9101C23.6012 16.4872 23.5962 17.1117 23.7674 17.6921C24.0663 18.697 25.1142 19.2622 26.1636 19.1507C27.6657 18.9937 28.3784 17.4017 27.7499 15.6683C26.2071 15.7641 23.7819 15.9101 23.7819 15.9101Z" fill="#D6B200"/>
<path d="M27.6819 16.8459C27.6064 17.8335 27.052 18.4976 26.1986 18.6279C25.3452 18.7582 24.6558 18.4976 24.1478 17.6859C23.6398 16.8742 23.9083 15.8395 23.9083 15.8395L24.0868 15.827L24.4889 15.8081L26.9954 15.6511L27.2857 15.6338L27.5498 15.6166C27.5498 15.6166 27.7545 15.8584 27.6819 16.8459Z" fill="white"/>
<path d="M27.6819 16.8458C27.6064 17.8334 27.052 18.4975 26.1986 18.6278C25.3452 18.7582 24.6558 18.4975 24.1478 17.6858C23.6398 16.8741 23.9083 15.8394 23.9083 15.8394L24.0868 15.8269C24.0433 16.4094 24.0723 17.3106 24.5455 17.8679C25.2711 18.7268 26.5774 18.3766 26.9286 17.8679C27.2799 17.3592 27.3844 16.7171 27.2813 15.6259L27.5455 15.6086C27.5455 15.6086 27.7545 15.8583 27.6819 16.8458Z" fill="#FDDCC0"/>
<path d="M25.6744 16.9589C26.0839 17.1481 26.5036 17.3101 26.9313 17.4441C26.8268 17.7031 26.2056 18.0721 25.7702 18.1082C25.4764 18.1235 25.1865 18.031 24.9473 17.8458C24.7081 17.6606 24.5337 17.3935 24.4524 17.0877C24.326 16.668 24.3414 16.2135 24.4959 15.805L27.0024 15.6479C27.1045 15.9506 27.1637 16.2682 27.1781 16.59C27.1722 16.6339 25.6744 16.9589 25.6744 16.9589Z" fill="#591B4C"/>
<path d="M23.4057 14.866C23.3767 14.9571 23.4507 15.9651 23.5741 16.031C24.7526 15.9713 28.0443 15.7892 28.0545 15.6432C28.0646 15.4972 23.7874 15.6432 23.799 15.5945C23.8106 15.5459 23.4507 14.709 23.4057 14.866Z" fill="#D6B200"/>
<path d="M20.5612 15.7641C20.5612 15.7641 21.326 17.3499 19.9806 18.5902C18.9124 19.5762 16.9806 19.0926 16.4741 18.0061C15.9676 16.9197 16.4857 15.4187 16.4857 15.4187L20.5612 15.7641Z" fill="#D6B200"/>
<path d="M20.1851 17.62C19.6771 18.4301 18.9877 18.6892 18.1329 18.562C17.278 18.4348 16.7265 17.7691 16.651 16.7816C16.5755 15.794 16.7874 15.5491 16.7874 15.5491L17.1271 15.5711L17.3361 15.5836L17.5131 15.5962L19.8194 15.739H19.8353L20.1503 15.7579L20.4188 15.7736C20.4188 15.7736 20.6945 16.8114 20.1851 17.62Z" fill="white"/>
<path d="M20.1851 17.62C19.6771 18.4301 18.9877 18.6892 18.1329 18.562C17.278 18.4348 16.7265 17.7691 16.651 16.7816C16.5755 15.794 16.7874 15.5491 16.7874 15.5491L17.1271 15.5711C16.9427 16.2352 16.7715 17.8398 17.9398 18.2794C19.3564 18.8116 20.5639 17.4237 20.1561 15.7673L20.4246 15.783C20.4246 15.783 20.6945 16.8114 20.1851 17.62Z" fill="#FDDCC0"/>
<path d="M18.6089 17.0045C19.0153 17.1609 19.437 17.2663 19.8658 17.3185C19.7554 17.5424 19.5987 17.7358 19.4078 17.8834C19.217 18.031 18.9972 18.1289 18.7656 18.1695C18.3389 18.2417 17.6423 18.047 17.3955 17.1002C17.2634 16.5986 17.3052 16.0621 17.5131 15.5914L19.8193 15.7359C19.8825 16.0491 19.8909 16.3723 19.844 16.6889L18.6089 17.0045Z" fill="#591B4C"/>
<path d="M20.8777 15.9274C21.1317 15.5537 21.0722 14.6148 20.9517 14.5662C20.8312 14.5175 20.4728 15.5208 20.4728 15.5208C20.4728 15.5208 15.7718 15.1973 15.9503 15.5051C16.0228 15.6291 20.6382 16.0075 20.8777 15.9274Z" fill="#D6B200"/>
<path d="M25.7729 21.5215C25.6406 22.0207 25.3484 22.4526 24.9485 22.7399C24.8103 22.8414 24.6647 22.9307 24.5131 23.0068L24.4855 23.0194C24.3441 23.0904 24.1987 23.1518 24.0501 23.2031C23.905 23.2533 23.7511 23.2957 23.5944 23.3318H23.5697C23.4246 23.3648 23.2707 23.3915 23.1169 23.4134H23.1009C22.9558 23.4323 22.8106 23.448 22.6655 23.4574H22.619C22.4884 23.4668 22.3563 23.4715 22.2228 23.4731H22.114C21.9993 23.4731 21.8861 23.4731 21.7758 23.4653H21.7221C21.577 23.4574 21.4318 23.4464 21.2867 23.4307H21.2707C21.1125 23.4119 20.9601 23.3883 20.815 23.3601H20.7889C20.6338 23.3293 20.4802 23.29 20.3288 23.2423H20.3157C20.1677 23.1942 20.0223 23.1371 19.8803 23.0712L19.8353 23.0555C19.6792 22.9815 19.5291 22.8932 19.3868 22.7917C19.1131 22.5991 18.8778 22.3493 18.6945 22.0569C18.1677 21.1997 18.3375 20.0645 19.1735 19.7474C19.2676 19.7122 19.3649 19.688 19.4638 19.6752C19.5552 19.6626 19.6437 19.6547 19.7323 19.6516H19.8063C20.0002 19.6461 20.1943 19.6561 20.3868 19.6814C20.5871 19.7066 20.7787 19.7442 20.9674 19.7851C21.1532 19.8275 21.3346 19.8714 21.5131 19.9107H21.5421C21.7153 19.9496 21.8902 19.9789 22.0661 19.9986H22.0937C22.1357 19.9986 22.1793 19.9986 22.2214 20.008C22.3665 20.008 22.5116 20.008 22.6379 20.008C22.8309 20.0002 23.0109 19.9829 23.1778 19.9593H23.2315C23.4246 19.9295 23.6002 19.8934 23.7627 19.8573L23.8121 19.8463C24.0066 19.8039 24.1836 19.7615 24.3491 19.7317L24.4434 19.7175C24.5108 19.7075 24.5786 19.7012 24.6466 19.6987C24.7606 19.6941 24.8746 19.7047 24.9862 19.7301C25.5247 19.851 26.0864 20.3283 25.7729 21.5215Z" fill="#732B60"/>
<path d="M21.2593 21.644C21.2279 21.3937 21.2548 21.139 21.3377 20.9029C21.4495 20.501 21.7644 20.4052 21.9328 20.6234C22.1011 20.8417 21.9444 21.4367 22.2477 21.4257C22.551 21.4147 22.6396 21.3033 22.6062 21.0363C22.5728 20.7694 22.3812 20.6847 22.6062 20.4774C22.8312 20.2702 23.8529 20.8417 23.4378 21.7052C23.0227 22.5687 21.4828 22.542 21.2593 21.644Z" fill="#591B4C"/>
<path d="M22.2242 21.9029C21.799 21.8637 21.5203 21.3927 20.6901 21.4413C19.8977 21.4869 19.6553 22.0254 19.7685 22.5514C19.9862 22.9313 20.8019 23.3599 22.2924 23.3113C23.783 23.2626 24.3737 22.8497 24.5827 22.6C24.7917 22.3504 24.6741 21.5622 24.1255 21.4571C23.1981 21.2796 23.0283 21.9752 22.2242 21.9029Z" fill="#C1472A"/>
<path d="M24.0604 21.8684C23.7541 21.7114 23.4102 21.881 23.1504 22.0678C23.0188 22.1725 22.8778 22.2624 22.7295 22.3363C22.5781 22.3991 22.4106 22.3991 22.2592 22.3363C21.924 22.2154 21.6351 21.9909 21.2941 21.881C20.9951 21.7836 20.6613 21.7601 20.3928 21.9626C20.371 21.9783 20.3841 22.0238 20.4116 22.0128C20.7411 21.8747 21.0662 22.0584 21.3202 22.2797C21.5742 22.5011 21.8862 22.7508 22.2331 22.79C22.3944 22.8082 22.5574 22.7897 22.7116 22.7356C22.8658 22.6815 23.0079 22.5931 23.1286 22.476C23.3797 22.2609 23.6322 21.9893 23.9791 22.0725C24.0909 22.1023 24.1736 21.9312 24.0604 21.8684Z" fill="#F26F4B"/>
<path d="M20.3843 19.635V19.6185C20.3851 19.624 20.3851 19.6296 20.3843 19.635Z" fill="white"/>
<path d="M20.3823 19.6185C20.3831 19.624 20.3831 19.6296 20.3823 19.635V19.6185Z" fill="white"/>
<path d="M23.7833 19.6185V19.635C23.7825 19.6296 23.7825 19.624 23.7833 19.6185Z" fill="white"/>
<path d="M23.7833 19.6185V19.635C23.7825 19.6296 23.7825 19.624 23.7833 19.6185Z" fill="white"/>
<path d="M24.8975 22.7383C24.7597 22.841 24.6141 22.9308 24.4621 23.0067L24.4374 23.0193C24.3067 23.0841 24.1724 23.1402 24.0354 23.1873V23.203C24.0368 23.2118 24.0368 23.2209 24.0354 23.2297C24.0341 23.2214 24.0341 23.2129 24.0354 23.2046L24.002 23.214V23.2297C24.002 23.2297 24.002 23.2203 24.002 23.214C23.8637 23.2615 23.7232 23.3013 23.5811 23.3333H23.5579C23.4147 23.3647 23.2696 23.3914 23.1225 23.4134H23.1051C22.9774 23.4338 22.8467 23.4448 22.7161 23.4558H22.6682C22.5361 23.4652 22.4055 23.4699 22.272 23.4715H22.1573C22.0427 23.4715 21.9309 23.4715 21.8206 23.4636H21.7713C21.6261 23.4558 21.481 23.4448 21.3359 23.4291H21.317C21.1602 23.4102 21.0078 23.3883 20.8627 23.3584H20.8351C20.681 23.3275 20.5284 23.2882 20.378 23.2407H20.3634C20.2152 23.1933 20.0698 23.1361 19.928 23.0695L19.883 23.0507C19.727 22.9749 19.5765 22.8862 19.4331 22.7854C19.4331 22.7226 19.4331 22.6519 19.4418 22.5797C19.4578 22.3536 19.5071 22.1087 19.6305 22.0993C19.7539 22.0898 19.8555 22.3583 19.9063 22.6472C19.9309 22.4714 19.9817 22.3159 20.079 22.3049C20.2096 22.2908 20.3359 22.6456 20.3692 22.9722C20.3867 22.7383 20.4331 22.4776 20.5594 22.4635C20.6856 22.4494 20.7974 22.754 20.8496 23.0586C20.8656 22.8309 20.9135 22.5875 21.0383 22.5718C21.1631 22.5561 21.2865 22.8859 21.3286 23.2093C21.3286 23.2093 21.3286 23.2187 21.3286 23.225V23.2093C21.3417 22.9706 21.3881 22.6959 21.5202 22.6817C21.6276 22.6708 21.7292 22.9047 21.7829 23.17C21.8032 22.9581 21.8525 22.743 21.9701 22.7304C22.0877 22.7179 22.1893 22.9785 22.2415 23.2611C22.2778 23.0083 22.3576 22.7901 22.4607 22.7901C22.5637 22.7901 22.6174 22.9345 22.6566 23.1041C22.6958 22.8811 22.7713 22.699 22.8642 22.7006C23.079 22.7006 23.0717 22.9282 23.092 23.148C23.1152 22.8466 23.2038 22.5436 23.3242 22.5467C23.4447 22.5499 23.5158 22.7869 23.5507 23.0177C23.5724 22.7037 23.661 22.3897 23.7843 22.3897C23.9077 22.3897 23.9527 22.5561 23.9904 22.743C24.0202 22.5399 24.0977 22.3486 24.2154 22.1872C24.3126 22.1872 24.3765 22.3442 24.4157 22.5106C24.4418 22.217 24.5274 21.936 24.645 21.9391C24.8322 21.9391 24.883 22.1699 24.899 22.3881C24.899 22.5295 24.8932 22.6613 24.8975 22.7383Z" fill="white"/>
<path d="M24.8975 22.7383C24.7597 22.8411 24.6141 22.9309 24.4621 23.0068L24.4374 23.0193C24.3067 23.0841 24.1724 23.1402 24.0354 23.1873V23.203C24.0368 23.2119 24.0368 23.2209 24.0354 23.2297C24.0341 23.2214 24.0341 23.2129 24.0354 23.2046L24.002 23.214V23.2297C24.002 23.2297 24.002 23.2203 24.002 23.214C23.8637 23.2615 23.7232 23.3014 23.5811 23.3334H23.5579C23.4147 23.3648 23.2696 23.3914 23.1225 23.4134H23.1051C22.9774 23.4338 22.8467 23.4448 22.7161 23.4558H22.6682C22.5361 23.4652 22.4055 23.4699 22.272 23.4715H22.1573C22.0427 23.4715 21.9309 23.4715 21.8206 23.4637H21.7713C21.6261 23.4558 21.481 23.4448 21.3359 23.4291H21.317C21.1602 23.4103 21.0078 23.3883 20.8627 23.3585H20.8351C20.681 23.3275 20.5284 23.2882 20.378 23.2407H20.3634C20.2152 23.1933 20.0698 23.1362 19.928 23.0696L19.883 23.0507C19.727 22.975 19.5765 22.8863 19.4331 22.7854C19.4331 22.7226 19.4331 22.652 19.4418 22.5797C19.6075 22.6967 19.7872 22.7886 19.9759 22.8529C20.4149 23.014 20.8661 23.1332 21.3242 23.2093C22.2647 23.3663 23.5361 23.1858 24.3242 22.7697C24.555 22.6472 24.7292 22.4949 24.8946 22.3882C24.899 22.5295 24.8932 22.6614 24.8975 22.7383Z" fill="#FDDCC0"/>
<path d="M19.7307 19.6499C19.7132 19.7427 19.688 19.8336 19.6553 19.9215C19.5696 20.157 19.4361 20.3925 19.365 20.38C19.2939 20.3674 19.2445 20.223 19.2199 20.0393C19.2039 19.9419 19.1908 19.8399 19.1821 19.7472C19.2763 19.7123 19.3736 19.6881 19.4724 19.675C19.5522 19.664 19.6422 19.6562 19.7307 19.6499Z" fill="white"/>
<path d="M20.3824 19.6781C20.3695 19.7863 20.3426 19.892 20.3025 19.9922C20.2169 20.2324 20.0805 20.4726 20.0123 20.4632C19.9136 20.449 19.8671 20.1633 19.8323 19.9089C19.8207 19.8116 19.8134 19.719 19.8091 19.6499C20.0006 19.6451 20.1921 19.6546 20.3824 19.6781Z" fill="white"/>
<path d="M20.9663 19.7834C20.947 19.9049 20.9143 20.0235 20.869 20.1367C20.7834 20.3581 20.6601 20.5653 20.5918 20.559C20.4946 20.5465 20.4467 20.2701 20.4133 20.0205C20.3988 19.8823 20.3901 19.752 20.3857 19.6782C20.5846 19.7033 20.7776 19.7426 20.9663 19.7834Z" fill="white"/>
<path d="M21.544 19.9169C21.5403 19.9499 21.534 19.9825 21.5251 20.0143C21.5024 20.1005 21.4743 20.185 21.4409 20.267C21.3539 20.4774 21.2421 20.6627 21.1768 20.6548C21.0883 20.6454 21.0316 20.4036 21.0055 20.1697C20.9852 20.0127 20.975 19.8682 20.9692 19.785C21.1579 19.8259 21.3379 19.8714 21.515 19.9091L21.544 19.9169Z" fill="white"/>
<path d="M22.0706 20.0047C22.0436 20.1129 22.0072 20.2181 21.9617 20.3188C21.879 20.5181 21.7774 20.6752 21.7222 20.6752C21.6671 20.6752 21.5945 20.4899 21.564 20.2921C21.5481 20.201 21.5379 20.1037 21.5307 20.0173C21.5307 19.9796 21.5307 19.9451 21.5205 19.9121L21.5495 19.92C21.7217 19.9582 21.8956 19.9865 22.0706 20.0047Z" fill="white"/>
<path d="M24.9906 19.7331C24.9906 19.8116 24.9746 19.8901 24.9615 19.9812C24.9296 20.1853 24.8788 20.3721 24.8004 20.3816C24.7221 20.391 24.6089 20.1806 24.5232 19.9576C24.4925 19.8808 24.4673 19.8016 24.4478 19.7206C24.5147 19.7106 24.582 19.7043 24.6495 19.7017C24.7639 19.6971 24.8785 19.7077 24.9906 19.7331Z" fill="white"/>
<path d="M24.3553 19.7332C24.3553 19.8007 24.3423 19.8792 24.3321 19.9577C24.3031 20.1979 24.2494 20.4491 24.1565 20.4617C24.0854 20.4617 23.9562 20.245 23.8662 20.0126C23.8451 19.9589 23.8272 19.9039 23.8125 19.8478C24.0113 19.8054 24.1899 19.7614 24.3553 19.7332Z" fill="white"/>
<path d="M23.767 19.8588C23.767 19.9137 23.7569 19.9734 23.7496 20.0346C23.7221 20.2811 23.6683 20.5464 23.5726 20.559C23.5043 20.559 23.3839 20.3612 23.2968 20.1398C23.2735 20.0808 23.2532 20.0206 23.2358 19.9592C23.4289 19.931 23.6088 19.8902 23.767 19.8588Z" fill="white"/>
<path d="M23.182 19.9672C23.182 20.0315 23.1689 20.1038 23.1617 20.1744C23.1312 20.4099 23.0775 20.6454 22.989 20.6548C22.9236 20.6548 22.8148 20.4821 22.7292 20.278C22.6942 20.1934 22.6646 20.1064 22.6406 20.0174C22.8366 20.0096 23.0151 19.9907 23.182 19.9672Z" fill="white"/>
<path d="M22.6409 20.0174C22.6322 20.1053 22.6221 20.2042 22.6076 20.2969C22.5756 20.49 22.5263 20.6627 22.4494 20.6721C22.3724 20.6815 22.2868 20.5151 22.207 20.3251C22.1613 20.2244 22.1244 20.1192 22.0967 20.0111C22.1388 20.0111 22.1809 20.0111 22.2244 20.0205C22.371 20.0221 22.5089 20.0221 22.6409 20.0174Z" fill="white"/>
<path d="M19.4622 19.675C19.5522 19.664 19.6422 19.6562 19.7307 19.6499C19.7132 19.7427 19.688 19.8336 19.6553 19.9215C19.5069 19.9449 19.361 19.9844 19.2199 20.0393C19.2039 19.9419 19.1908 19.8399 19.1821 19.7472C19.273 19.7131 19.3669 19.6889 19.4622 19.675Z" fill="#FDDCC0"/>
<path d="M19.8047 19.6484C19.9986 19.6438 20.1926 19.6538 20.3852 19.6783C20.3724 19.7865 20.3455 19.8922 20.3054 19.9923C20.2169 19.9687 20.1327 19.9499 20.0601 19.9326C19.9862 19.9157 19.9108 19.9072 19.8352 19.9075C19.8163 19.8101 19.809 19.7175 19.8047 19.6484Z" fill="#FDDCC0"/>
<path d="M20.3857 19.6782C20.5846 19.7033 20.7776 19.7426 20.9663 19.7834C20.947 19.9049 20.9143 20.0235 20.869 20.1367C20.7138 20.0959 20.557 20.055 20.4133 20.0205C20.3988 19.8902 20.3901 19.752 20.3857 19.6782Z" fill="#FDDCC0"/>
<path d="M22.0708 20.0048C22.0439 20.113 22.0074 20.2182 21.962 20.3189H21.782C21.7071 20.3131 21.6325 20.3032 21.5585 20.289C21.5425 20.198 21.5324 20.1006 21.5251 20.0143C21.5024 20.1005 21.4743 20.185 21.4409 20.267C21.3074 20.2403 21.1594 20.2058 21.0055 20.1697C20.9852 20.0127 20.975 19.8682 20.9692 19.785C21.1579 19.8259 21.3379 19.8714 21.515 19.9091L21.544 19.9169C21.718 19.9565 21.8939 19.9858 22.0708 20.0048Z" fill="#FDDCC0"/>
<path d="M22.6409 20.0174C22.6322 20.1053 22.6221 20.2042 22.6076 20.2969C22.4748 20.3165 22.341 20.3259 22.207 20.3251C22.1613 20.2244 22.1244 20.1192 22.0967 20.0111C22.1388 20.0111 22.1809 20.0111 22.2244 20.0205C22.371 20.0221 22.5089 20.0221 22.6409 20.0174Z" fill="#FDDCC0"/>
<path d="M23.182 19.9672C23.182 20.0315 23.1689 20.1038 23.1617 20.1744L23.0354 20.2074C22.928 20.2388 22.8249 20.2608 22.7292 20.278C22.6942 20.1934 22.6646 20.1064 22.6406 20.0174C22.8366 20.0096 23.0151 19.9907 23.182 19.9672Z" fill="#FDDCC0"/>
<path d="M23.2358 19.9592C23.4289 19.931 23.6045 19.8964 23.767 19.8588C23.767 19.9137 23.7569 19.9734 23.7496 20.0346C23.6176 20.0629 23.4594 20.0958 23.2968 20.1398C23.2735 20.0808 23.2532 20.0206 23.2358 19.9592Z" fill="#FDDCC0"/>
<path d="M23.8164 19.8478C24.0109 19.8054 24.188 19.7614 24.3549 19.7332C24.3549 19.8007 24.3418 19.8792 24.3316 19.9577C24.2721 19.9577 24.2184 19.9577 24.1763 19.9577C24.0951 19.9655 23.9906 19.9812 23.8701 20.0048C23.8493 19.9537 23.8314 19.9012 23.8164 19.8478Z" fill="#FDDCC0"/>
<path d="M24.9906 19.7331C24.9906 19.8116 24.9746 19.8901 24.9615 19.9812L24.9369 19.9671C24.9369 19.9671 24.7322 19.9671 24.5232 19.9576C24.4925 19.8808 24.4673 19.8016 24.4478 19.7206C24.5147 19.7106 24.582 19.7043 24.6495 19.7017C24.7639 19.6971 24.8785 19.7077 24.9906 19.7331Z" fill="#FDDCC0"/>
<path d="M25.9135 20.5025C25.8417 20.2194 25.6894 19.9678 25.4781 19.7835C25.2206 19.5788 24.9041 19.4802 24.5855 19.5056C24.2393 19.5296 23.8953 19.5821 23.5564 19.6626C22.7263 19.8196 21.9106 19.8887 21.0891 19.6955C20.7509 19.6155 20.4099 19.5385 20.0731 19.4899C19.4578 19.4098 18.8235 19.5432 18.4621 20.1367C18.313 20.3986 18.2276 20.697 18.2139 21.0043C18.2002 21.3115 18.2586 21.6174 18.3837 21.8936C18.6493 22.5216 19.1776 22.9565 19.748 23.2219C20.4165 23.5153 21.1261 23.6841 21.8467 23.7211C22.5533 23.7805 23.2638 23.6871 23.9367 23.4464C24.5425 23.221 25.0823 22.8261 25.5013 22.3018C25.6976 22.0476 25.8438 21.7527 25.9309 21.4352C26.0057 21.1286 25.9997 20.8056 25.9135 20.5025ZM25.4955 21.8873C25.1703 22.409 24.7083 22.8136 24.1689 23.0492C22.9643 23.6065 21.6101 23.5108 20.3678 23.1512C19.7872 22.9832 19.2241 22.6802 18.838 22.1762C18.665 21.966 18.5449 21.7111 18.4892 21.4362C18.4335 21.1612 18.4442 20.8754 18.5202 20.6062C18.6056 20.3115 18.7906 20.0626 19.0383 19.9091C19.327 19.7611 19.6491 19.7066 19.9657 19.7521C20.3286 19.7835 20.6914 19.8745 21.0427 19.942C21.2197 19.9734 21.3939 19.9923 21.5724 20.0315C22.0252 20.112 22.4879 20.1003 22.9367 19.997C23.2894 19.9373 23.645 19.8918 23.9977 19.84C24.5347 19.7646 25.2139 19.6579 25.5753 20.2058C25.9091 20.7255 25.7858 21.3865 25.4955 21.8873Z" fill="#D6B200"/>
<defs>
<filter id="filter0_d_145_1771" x="0" y="0.523071" width="44" height="44.5538" filterUnits="userSpaceOnUse" color-interpolation-filters="sRGB">
<feFlood flood-opacity="0" result="BackgroundImageFix"/>
<feColorMatrix in="SourceAlpha" type="matrix" values="0 0 0 0 0 0 0 0 0 0 0 0 0 0 0 0 0 0 127 0" result="hardAlpha"/>
<feOffset dy="4"/>
<feGaussianBlur stdDeviation="2"/>
<feColorMatrix type="matrix" values="0 0 0 0 0 0 0 0 0 0 0 0 0 0 0 0 0 0 0.1 0"/>
<feBlend mode="normal" in2="BackgroundImageFix" result="effect1_dropShadow_145_1771"/>
<feBlend mode="normal" in="SourceGraphic" in2="effect1_dropShadow_145_1771" result="shape"/>
</filter>
</defs>
</svg>
