<svg width="32" height="32" viewBox="0 0 32 32" fill="none" xmlns="http://www.w3.org/2000/svg">
<path fill-rule="evenodd" clip-rule="evenodd" d="M7.27467 31.9842C6.56103 31.9589 5.64126 31.903 5.22321 31.8186C4.58507 31.6898 3.98243 31.4944 3.48127 31.239C2.89243 30.9389 2.36469 30.556 1.909 30.101C1.45227 29.6452 1.06786 29.1169 0.766571 28.5272C0.511851 28.0287 0.316578 27.4298 0.187164 26.7952C0.101088 26.373 0.044161 25.4464 0.0183548 24.7281C0.0078898 24.4346 0.00252035 24.0546 0.00252035 23.8794L0 8.12305C0 7.94854 0.00531466 7.56851 0.0157248 7.27462C0.0410927 6.56103 0.096924 5.64126 0.181356 5.22321C0.310168 4.58513 0.505605 3.98243 0.760983 3.48127C1.06112 2.89238 1.44394 2.36475 1.89892 1.909C2.35478 1.45233 2.88307 1.06792 3.47272 0.766571C3.97126 0.511906 4.57022 0.316578 5.20469 0.187164C5.62696 0.101088 6.55363 0.044161 7.27188 0.0184095C7.56534 0.0078898 7.94531 0.00252035 8.12053 0.00252035L23.8769 0C24.0515 0 24.4315 0.00525987 24.7253 0.0157248C25.4389 0.0411475 26.3587 0.096924 26.7767 0.181356C27.4149 0.310223 28.0176 0.50566 28.5187 0.760983C29.1075 1.06112 29.6353 1.444 30.0909 1.89892C30.5476 2.35483 30.932 2.88301 31.2334 3.47272C31.488 3.97126 31.6834 4.57017 31.8128 5.20469C31.8989 5.62696 31.9558 6.55369 31.9816 7.27188C31.9921 7.56539 31.9974 7.94531 31.9974 8.12053L32 23.8769C32 24.0515 31.9947 24.4315 31.9842 24.7253C31.9588 25.4389 31.903 26.3587 31.8186 26.7767C31.6898 27.4149 31.4943 28.0175 31.239 28.5187C30.9389 29.1076 30.5559 29.6353 30.1011 30.091C29.6452 30.5476 29.1169 30.9321 28.5272 31.2334C28.0287 31.4881 27.4298 31.6834 26.7952 31.8128C26.373 31.8989 25.4463 31.9558 24.7281 31.9815C24.4346 31.9921 24.0546 31.9974 23.8794 31.9974L8.12305 31.9999C7.94848 31.9999 7.56846 31.9947 7.27467 31.9842Z" fill="#1DA1F2"/>
<mask id="mask0_117_1769" style="mask-type:alpha" maskUnits="userSpaceOnUse" x="0" y="0" width="32" height="32">
<path fill-rule="evenodd" clip-rule="evenodd" d="M7.27467 31.9842C6.56103 31.9589 5.64126 31.903 5.22321 31.8186C4.58507 31.6898 3.98243 31.4944 3.48127 31.239C2.89243 30.9389 2.36469 30.556 1.909 30.101C1.45227 29.6452 1.06786 29.1169 0.766571 28.5272C0.511851 28.0287 0.316578 27.4298 0.187164 26.7953C0.101088 26.373 0.044161 25.4464 0.0183547 24.7281C0.0078898 24.4346 0.00252035 24.0546 0.00252035 23.8794L0 8.12305C0 7.94854 0.00531466 7.56851 0.0157248 7.27462C0.0410927 6.56103 0.096924 5.64126 0.181356 5.22322C0.310168 4.58513 0.505605 3.98243 0.760982 3.48127C1.06112 2.89238 1.44394 2.36475 1.89892 1.909C2.35478 1.45233 2.88307 1.06792 3.47272 0.766571C3.97126 0.511906 4.57022 0.316578 5.20469 0.187164C5.62696 0.101088 6.55363 0.044161 7.27188 0.0184095C7.56533 0.0078898 7.94531 0.00252035 8.12053 0.00252035L23.8769 0C24.0515 0 24.4315 0.00525987 24.7253 0.0157248C25.4389 0.0411475 26.3587 0.0969241 26.7767 0.181356C27.4149 0.310223 28.0176 0.50566 28.5187 0.760983C29.1075 1.06112 29.6353 1.444 30.0909 1.89892C30.5476 2.35483 30.932 2.88301 31.2334 3.47272C31.488 3.97126 31.6834 4.57017 31.8128 5.2047C31.8989 5.62696 31.9558 6.55369 31.9816 7.27188C31.9921 7.56539 31.9974 7.94531 31.9974 8.12053L32 23.8769C32 24.0515 31.9947 24.4315 31.9842 24.7253C31.9588 25.4389 31.903 26.3587 31.8186 26.7767C31.6898 27.4149 31.4943 28.0175 31.239 28.5187C30.9389 29.1076 30.5559 29.6353 30.1011 30.091C29.6452 30.5476 29.1169 30.9321 28.5272 31.2334C28.0287 31.4881 27.4298 31.6834 26.7952 31.8128C26.373 31.8989 25.4463 31.9558 24.7281 31.9815C24.4346 31.9921 24.0546 31.9974 23.8794 31.9974L8.12304 31.9999C7.94848 31.9999 7.56846 31.9947 7.27467 31.9842Z" fill="white"/>
</mask>
<g mask="url(#mask0_117_1769)">
<path d="M12.4555 25.0318C10.0524 25.0341 7.69929 24.3437 5.67725 23.043C6.02751 23.0837 6.37984 23.1039 6.73245 23.1034C8.72343 23.1065 10.6577 22.4392 12.2243 21.2086C11.3015 21.191 10.4072 20.885 9.6665 20.3334C8.92581 19.7818 8.37573 19.0122 8.09315 18.1321C8.36698 18.1852 8.64524 18.212 8.92415 18.2121C9.31796 18.2122 9.71004 18.1598 10.0901 18.0563C9.08911 17.8538 8.18891 17.3108 7.54219 16.5193C6.89546 15.7278 6.54204 14.7366 6.54187 13.7139C6.54187 13.6942 6.54187 13.676 6.54187 13.6577C7.15564 13.9999 7.84227 14.19 8.54439 14.2121C7.60813 13.5857 6.94556 12.6253 6.6917 11.5267C6.43784 10.428 6.61178 9.27377 7.17808 8.2991C8.28743 9.66739 9.67162 10.7868 11.2408 11.5847C12.81 12.3826 14.5292 12.8412 16.2868 12.9307C16.063 11.9797 16.1593 10.9814 16.5608 10.091C16.9622 9.20051 17.6462 8.46792 18.5064 8.00714C19.3665 7.54636 20.3547 7.38325 21.317 7.54316C22.2793 7.70308 23.1619 8.17707 23.8274 8.89138C24.8157 8.6946 25.7634 8.33107 26.6301 7.81629C26.2999 8.84193 25.6092 9.71269 24.6864 10.2668C25.563 10.1607 26.4188 9.92419 27.2256 9.56506C26.6317 10.4547 25.8843 11.2313 25.0185 11.8584C25.0283 12.0479 25.0325 12.2388 25.0325 12.431C25.0325 18.2823 20.5833 25.0318 12.4499 25.0318" fill="white"/>
</g>
</svg>
